<?xml version="1.0" standalone="no"?>
<!DOCTYPE svg PUBLIC "-//W3C//DTD SVG 1.1//EN" "http://www.w3.org/Graphics/SVG/1.1/DTD/svg11.dtd" >
<svg xmlns="http://www.w3.org/2000/svg" xmlns:xlink="http://www.w3.org/1999/xlink" version="1.1">
<metadata>
Created by FontForge 20150824 at Sun Feb  7 22:37:35 2016
 By Everything Fonts
Typeface data Copyright (c) 1992-94 The Monotype Corporation. Copyright 1994 Microsoft Corporation. All rights reserved.
</metadata>
<defs>
<font id="AbadiMT-CondensedLight" horiz-adv-x="832" >
  <font-face 
    font-family="Abadi MT Condensed Light"
    font-weight="300"
    font-stretch="condensed"
    units-per-em="2048"
    panose-1="2 11 3 6 3 1 1 1 1 3"
    ascent="1638"
    descent="-410"
    x-height="953"
    cap-height="1395"
    bbox="-352 -505 2069 1869"
    underline-thickness="102"
    underline-position="-256"
    unicode-range="U+0020-F002"
  />
<missing-glyph horiz-adv-x="1536" 
d="M256 0v1280h1024v-1280h-1024zM288 32h960v1216h-960v-1216z" />
    <glyph glyph-name=".notdef" horiz-adv-x="1536" 
d="M256 0v1280h1024v-1280h-1024zM288 32h960v1216h-960v-1216z" />
    <glyph glyph-name=".null" horiz-adv-x="0" 
 />
    <glyph glyph-name="nonmarkingreturn" horiz-adv-x="469" 
 />
    <glyph glyph-name="space" unicode=" " horiz-adv-x="469" 
 />
    <glyph glyph-name="exclam" unicode="!" horiz-adv-x="427" 
d="M144 1395h140l-20 -1046h-105zM208 231q77 0 77 -126q0 -127 -74 -127q-73 0 -73 126q0 60 20.5 93.5t49.5 33.5z" />
    <glyph glyph-name="quotedbl" unicode="&#x22;" horiz-adv-x="576" 
d="M80 1395h149v-233l-30 -272h-89l-30 272v233zM345 1395h151v-233l-31 -272h-89l-31 272v233z" />
    <glyph glyph-name="numbersign" unicode="#" horiz-adv-x="1365" 
d="M91 960h331l87 411h103l-87 -411h440l84 411h105l-87 -411h206v-104h-224l-84 -388h308v-106h-328l-85 -409h-105l87 409h-442l-83 -409h-106l86 409h-206v106h226l83 388h-309v104zM503 856l-82 -388h442l81 388h-441z" />
    <glyph glyph-name="dollar" unicode="$" horiz-adv-x="896" 
d="M417 1481h103v-131q146 -15 252 -96v-167q-111 113 -252 132v-484q330 -91 330 -348q0 -104 -49 -190.5t-119 -130t-162 -66.5v-148h-103v129q-172 8 -328 115v173q160 -145 328 -153v515q-328 73 -328 349q0 144 88.5 243t239.5 127v131zM417 1214q-189 -49 -189 -234
q0 -168 189 -222v456zM520 607v-479q190 64 190 247q0 167 -190 232z" />
    <glyph glyph-name="percent" unicode="%" horiz-adv-x="1451" 
d="M1123 1493l-684 -1589h-115l567 1317q-86 -42 -154 -42q-73 0 -146 42q26 -90 26 -185q0 -156 -71 -257.5t-203 -101.5q-129 0 -200.5 98.5t-71.5 264.5q0 182 73 280t196 98q70 0 177 -62q125 -73 214 -73q109 0 169 52t109 158h114zM352 1312q-78 0 -117.5 -75.5
t-39.5 -199.5q0 -120 42 -188t108 -68q69 0 109 73.5t40 194.5q0 125 -41 194t-101 69zM1092 718q142 0 215 -102t73 -264q0 -183 -75.5 -278.5t-200.5 -95.5q-131 0 -203.5 102.5t-72.5 259.5q0 188 77 283t187 95zM1108 614q-76 0 -114.5 -68.5t-38.5 -206.5
q0 -118 40.5 -186.5t107.5 -68.5q69 0 108 71t39 198q0 133 -42.5 197t-99.5 64z" />
    <glyph glyph-name="ampersand" unicode="&#x26;" horiz-adv-x="981" 
d="M360 857l-17 37q-66 146 -66 236q0 130 79 209t199 79q72 0 161 -34v-133q-74 51 -153 51q-73 0 -118.5 -46.5t-45.5 -124.5q0 -88 60 -203l281 -540q44 164 44 328v77h124q-4 -315 -98 -523l138 -270h-138l-70 148q-124 -170 -298 -170q-162 0 -268.5 118t-106.5 296
q0 136 65.5 245t227.5 220zM407 770q-113 -81 -161.5 -160.5t-48.5 -193.5q0 -143 70 -231.5t180 -88.5q136 0 239 149z" />
    <glyph glyph-name="quotesingle" unicode="'" horiz-adv-x="448" 
d="M150 1395h148v-235l-26 -267h-91l-31 267v235z" />
    <glyph glyph-name="parenleft" unicode="(" horiz-adv-x="640" 
d="M527 1395q-127 -219 -174.5 -424t-47.5 -504q0 -320 48.5 -492t173.5 -404h-114q-136 243 -189.5 453t-53.5 456q0 481 243 915h114z" />
    <glyph glyph-name="parenright" unicode=")" horiz-adv-x="640" 
d="M113 -429q128 219 175 424t47 504q0 320 -48 492t-174 404h114q136 -243 189.5 -453t53.5 -456q0 -481 -243 -915h-114z" />
    <glyph glyph-name="asterisk" unicode="*" horiz-adv-x="896" 
d="M178 1284l221 -125v255h98v-255l221 125l48 -83l-224 -127l224 -121l-48 -89l-221 127v-254h-98v254l-221 -127l-48 89l217 121l-217 127z" />
    <glyph glyph-name="plus" unicode="+" horiz-adv-x="1365" 
d="M141 718h485v488h108v-488h489v-108h-489v-482h-108v482h-485v108z" />
    <glyph glyph-name="comma" unicode="," horiz-adv-x="427" 
d="M216 -263h-69q60 128 69 244q-38 19 -57 47.5t-19 67.5q0 65 29.5 105t69.5 40t64.5 -43t24.5 -107q0 -81 -28 -169.5t-84 -184.5z" />
    <glyph glyph-name="hyphen" unicode="-" horiz-adv-x="576" 
d="M67 550h443v-125h-443v125z" />
    <glyph glyph-name="period" unicode="." horiz-adv-x="427" 
d="M212 239q86 0 86 -122q0 -128 -84 -128q-41 0 -63 35t-22 88q0 59 24.5 93t58.5 34z" />
    <glyph glyph-name="slash" unicode="/" horiz-adv-x="576" 
d="M434 1423h108l-403 -1586h-106z" />
    <glyph glyph-name="zero" unicode="0" horiz-adv-x="939" 
d="M464 1356q136 0 233 -94.5t135.5 -270t38.5 -344.5q0 -306 -111.5 -487.5t-295.5 -181.5q-116 0 -213.5 85.5t-141 257t-43.5 361.5q0 218 58.5 378t151 228t188.5 68zM477 1242q-139 0 -210 -154t-71 -425q0 -269 71.5 -419t197.5 -150q80 0 148.5 68.5t98.5 224.5
t30 299q0 270 -78.5 413t-186.5 143z" />
    <glyph glyph-name="one" unicode="1" horiz-adv-x="939" 
d="M472 1333h103v-1333h-119v1008h-222v96h52q86 0 136 47.5t50 141.5v40z" />
    <glyph glyph-name="two" unicode="2" horiz-adv-x="939" 
d="M104 0v74q0 159 37 253.5t91.5 148t296.5 265.5q83 73 118.5 132t35.5 130q0 105 -67.5 171t-160.5 66q-131 0 -286 -127v144q167 99 298 99q149 0 248 -91.5t99 -253.5q0 -120 -56.5 -201.5t-203.5 -201.5q-204 -168 -265 -257t-61 -178v-56h605v-117h-729z" />
    <glyph glyph-name="three" unicode="3" horiz-adv-x="939" 
d="M157 211q125 -117 248 -117q116 0 195.5 80.5t79.5 204.5q0 118 -74 191.5t-208 73.5h-115v111h63q123 0 198.5 69.5t75.5 183.5q0 103 -60.5 168t-146.5 65q-128 0 -256 -118v148q143 85 263 85q143 0 236 -88t93 -238q0 -123 -60 -194.5t-173 -123.5
q147 -23 220.5 -104.5t73.5 -222.5q0 -172 -118.5 -289.5t-279.5 -117.5q-130 0 -255 84v149z" />
    <glyph glyph-name="four" unicode="4" horiz-adv-x="939" 
d="M589 1333h126v-835h168v-117h-168v-381h-126v381h-507v117zM589 1136l-387 -638h387v638z" />
    <glyph glyph-name="five" unicode="5" horiz-adv-x="939" 
d="M170 1333h592v-116h-469v-465q48 47 101 70t112 23q141 0 239.5 -117.5t98.5 -289.5q0 -193 -121.5 -326.5t-295.5 -133.5q-113 0 -257 79v148q139 -111 250 -111q126 0 210 98.5t84 235.5q0 122 -70 210.5t-184 88.5q-50 0 -95 -22.5t-85 -68.5h-110v697z" />
    <glyph glyph-name="six" unicode="6" horiz-adv-x="939" 
d="M227 608q70 104 145.5 155.5t156.5 51.5q141 0 232.5 -116t91.5 -289q0 -184 -103 -308t-253 -124q-118 0 -215 83t-139 246t-42 343q0 220 60.5 378.5t158 243t224.5 84.5q108 0 224 -65v-144q-103 92 -203 92q-105 0 -187.5 -78.5t-116.5 -210.5t-34 -299v-43zM239 444
q15 -155 91 -252.5t172 -97.5q95 0 158 86.5t63 222.5q0 130 -59.5 214t-150.5 84q-87 0 -155.5 -64t-118.5 -193z" />
    <glyph glyph-name="seven" unicode="7" horiz-adv-x="939" 
d="M105 1333h743v-116l-505 -1217h-134l511 1217h-615v116z" />
    <glyph glyph-name="eight" unicode="8" horiz-adv-x="939" 
d="M363 687q-223 134 -223 331q0 144 93.5 241t241.5 97q137 0 229 -83.5t92 -212.5q0 -94 -53 -171t-176 -156q164 -75 228 -162t64 -206q0 -175 -117.5 -281t-279.5 -106q-161 0 -273.5 102t-112.5 252q0 109 67.5 191t219.5 164zM467 770q199 117 199 270q0 85 -56 143.5
t-137 58.5q-85 0 -144.5 -61t-59.5 -153q0 -167 198 -258zM467 647q-261 -130 -261 -310q0 -102 75.5 -171.5t184.5 -69.5q112 0 188 74t76 183q0 202 -263 294z" />
    <glyph glyph-name="nine" unicode="9" horiz-adv-x="939" 
d="M718 727q-132 -207 -300 -207q-139 0 -231 114.5t-92 291.5q0 182 99.5 306t256.5 124q126 0 219 -86.5t134.5 -242t41.5 -338.5q0 -188 -53 -357.5t-160 -261.5t-236 -92q-101 0 -218 67v141q94 -90 205 -90q78 0 146 46t116.5 146t60 196.5t11.5 242.5zM708 890
q-25 159 -91.5 254.5t-170.5 95.5q-95 0 -159.5 -86.5t-64.5 -221.5q0 -126 59 -212t153 -86q76 0 151.5 64.5t122.5 191.5z" />
    <glyph glyph-name="colon" unicode=":" horiz-adv-x="427" 
d="M212 959q86 0 86 -122q0 -128 -84 -128q-41 0 -63 35t-22 88q0 60 24.5 93.5t58.5 33.5zM212 239q86 0 86 -122q0 -128 -84 -128q-41 0 -63 35t-22 88q0 59 24.5 93t58.5 34z" />
    <glyph glyph-name="semicolon" unicode=";" horiz-adv-x="427" 
d="M222 962q90 0 90 -122q0 -56 -24 -92t-62 -36q-39 0 -62.5 35t-23.5 88t23 90t59 37zM216 -263h-69q60 128 69 244q-38 19 -57 47.5t-19 67.5q0 65 29.5 105t69.5 40t64.5 -43t24.5 -107q0 -81 -28 -169.5t-84 -184.5z" />
    <glyph glyph-name="less" unicode="&#x3c;" horiz-adv-x="1365" 
d="M1222 163l-1078 456v97l1078 455v-118l-934 -385l934 -388v-117z" />
    <glyph glyph-name="equal" unicode="=" horiz-adv-x="1365" 
d="M144 954h1078v-109h-1078v109zM144 488h1078v-108h-1078v108z" />
    <glyph glyph-name="greater" unicode="&#x3e;" horiz-adv-x="1365" 
d="M144 1171l1078 -457v-97l-1078 -454v117l934 386l-934 387v118z" />
    <glyph glyph-name="question" unicode="?" horiz-adv-x="853" 
d="M114 1309q176 109 329 109q150 0 258 -94.5t108 -250.5q0 -106 -50 -176.5t-206 -206.5q-78 -68 -103 -119t-25 -137v-84h-124v71q0 132 40 206t172 187q109 93 137.5 144t28.5 109q0 96 -70 161.5t-182 65.5q-126 0 -313 -128v143zM360 231q76 0 76 -124
q0 -129 -75 -129q-73 0 -73 126q0 127 72 127z" />
    <glyph glyph-name="at" unicode="@" horiz-adv-x="1643" 
d="M1155 949h106l-99 -449q-38 -171 -38 -243q0 -6 1 -16q176 53 268 211t92 350q0 226 -137 356.5t-374 130.5q-257 0 -438 -112t-277.5 -298.5t-96.5 -443.5q0 -308 168 -495.5t479 -187.5q280 0 504 159l-19 -150q-85 -58 -236.5 -95t-279.5 -37q-209 0 -392 106.5
t-272.5 297.5t-89.5 423q0 421 268 691.5t683 270.5q181 0 325 -69t232 -203.5t88 -339.5q0 -212 -94 -371.5t-214.5 -234t-319.5 -102.5q-1 49 -1 77q0 60 5 129q-36 -76 -115.5 -136t-173.5 -60q-124 0 -195 95t-71 248q0 145 61.5 260t168.5 185t211 70q116 0 225 -100z
M1078 750q-92 87 -187 87q-129 0 -221 -116t-92 -274q0 -90 46 -149t120 -59q49 0 104 31t102 91.5t67.5 114t38.5 153.5z" />
    <glyph glyph-name="A" unicode="A" horiz-adv-x="896" 
d="M378 1395h134l389 -1395h-152l-118 482h-371l-117 -482h-149zM443 1225l-155 -630h313z" />
    <glyph glyph-name="B" unicode="B" horiz-adv-x="1003" 
d="M124 1395h370q163 0 261.5 -80.5t98.5 -242.5q0 -116 -58 -198t-175 -131q165 -15 247.5 -99.5t82.5 -238.5q0 -118 -49 -202.5t-146.5 -143.5t-235.5 -59h-396v1395zM259 1277v-489h152q142 0 222.5 70t80.5 201q0 109 -65.5 163.5t-196.5 54.5h-193zM259 671v-554h225
q156 0 240.5 80t84.5 216t-91 197t-281 61h-178z" />
    <glyph glyph-name="C" unicode="C" 
d="M788 64q-141 -86 -263 -86q-144 0 -251 96t-156 265t-49 362q0 318 126 517.5t342 199.5q124 0 251 -85v-162q-133 123 -246 123q-153 0 -243 -161t-90 -457q0 -248 86.5 -411t237.5 -163q116 0 255 127v-165z" />
    <glyph glyph-name="D" unicode="D" horiz-adv-x="1003" 
d="M125 1395h322q244 0 364 -181.5t120 -527.5q0 -194 -54.5 -358t-168 -246t-261.5 -82h-322v1395zM261 1273v-1154h186q182 0 262 153t80 457q0 265 -83 404.5t-259 139.5h-186z" />
    <glyph glyph-name="E" unicode="E" horiz-adv-x="896" 
d="M130 1395h677v-118h-542v-491h512v-116h-512v-554h542v-116h-677v1395z" />
    <glyph glyph-name="F" unicode="F" 
d="M129 1395h654v-120h-519v-521h488v-113h-488v-641h-135v1395z" />
    <glyph glyph-name="G" unicode="G" horiz-adv-x="917" 
d="M711 137q-47 -79 -106.5 -119t-131.5 -40q-114 0 -215 95t-148 263t-47 348q0 333 138 533.5t360 200.5q125 0 257 -86v-168q-137 129 -260 129q-162 0 -259.5 -167t-97.5 -453q0 -235 81.5 -402t208.5 -167q90 0 155 89.5t65 219.5v166h-257v119h392v-698h-86z" />
    <glyph glyph-name="H" unicode="H" horiz-adv-x="1024" 
d="M129 1395h135v-606h492v606h136v-1395h-136v671h-492v-671h-135v1395z" />
    <glyph glyph-name="I" unicode="I" horiz-adv-x="405" 
d="M133 1395h136v-1395h-136v1395z" />
    <glyph glyph-name="J" unicode="J" horiz-adv-x="469" 
d="M206 1395h136v-1177q0 -120 -50 -180t-150 -60q-67 0 -120 22v145q48 -31 94 -31t68 28.5t22 102.5v1150z" />
    <glyph glyph-name="K" unicode="K" horiz-adv-x="917" 
d="M133 1395h135v-664l446 664h161l-382 -542l420 -853h-158l-341 731l-146 -201v-530h-135v1395z" />
    <glyph glyph-name="L" unicode="L" horiz-adv-x="811" 
d="M135 1395h137v-1278h518v-117h-655v1395z" />
    <glyph glyph-name="M" unicode="M" horiz-adv-x="1195" 
d="M298 1395l301 -768l299 768h163v-1395h-123v890l1 229q0 43 -1 128q-36 -137 -96 -294l-243 -633l-206 532q-60 154 -143 383q13 -451 13 -501v-734h-129v1395h164z" />
    <glyph glyph-name="N" unicode="N" horiz-adv-x="1024" 
d="M265 1395l413 -929l108 -245q-11 376 -11 389v785h121v-1395h-136l-400 895q-17 38 -64 162l-48 123q-3 -42 -3 -49l5 -108l1 -155l-3 -60v-808h-121v1395h138z" />
    <glyph glyph-name="O" unicode="O" horiz-adv-x="1045" 
d="M528 1418q202 0 327 -195t125 -548q0 -317 -129 -507t-328 -190q-203 0 -330 187.5t-127 519.5q0 338 123 535.5t339 197.5zM534 1294q-168 0 -247.5 -170.5t-79.5 -446.5q0 -261 83 -416.5t230 -155.5q149 0 233 160t84 435q0 299 -88.5 446.5t-214.5 147.5z" />
    <glyph glyph-name="P" unicode="P" horiz-adv-x="960" 
d="M130 1395h385q182 0 286 -90.5t104 -268.5q0 -190 -118 -296t-312 -106h-208v-634h-137v1395zM267 1275v-523h205q131 0 211 72.5t80 202.5q0 117 -66 182.5t-184 65.5h-246z" />
    <glyph glyph-name="Q" unicode="Q" horiz-adv-x="1045" 
d="M720 36q37 -98 75.5 -145.5t107.5 -47.5q47 0 93 26v-120q-62 -21 -117 -21q-107 0 -159.5 66t-105.5 196q-55 -12 -99 -12q-190 0 -320.5 180t-130.5 534q0 330 124 528t334 198q142 0 248 -95t156 -266.5t50 -376.5q0 -194 -57.5 -365.5t-198.5 -278.5zM668 159
q165 144 165 535q0 272 -81 434.5t-232 162.5q-145 0 -231 -152.5t-86 -470.5q0 -270 88 -418t235 -148q28 0 41 6l-141 333h124z" />
    <glyph glyph-name="R" unicode="R" horiz-adv-x="939" 
d="M135 1395h336q182 0 292.5 -83.5t110.5 -254.5q0 -129 -69.5 -223.5t-216.5 -142.5q101 -26 149.5 -89.5t73.5 -186.5l82 -415h-145l-55 336q-27 160 -90.5 231t-183.5 71h-151v-638h-133v1395zM268 1273v-522h139q148 0 239 78.5t91 212.5q0 116 -65 173.5t-195 57.5
h-209z" />
    <glyph glyph-name="S" unicode="S" horiz-adv-x="853" 
d="M60 268q107 -87 173.5 -119.5t135.5 -32.5q109 0 194.5 78t85.5 203q0 94 -56 157q-57 62 -217 122q-317 120 -317 364q0 157 112.5 267.5t269.5 110.5q129 0 266 -96v-181q-87 81 -143.5 111t-119.5 30q-105 0 -174.5 -72t-69.5 -167q0 -96 62.5 -151.5t226.5 -122.5
q99 -40 159.5 -81t101 -116t40.5 -171q0 -179 -124 -301t-294 -122q-148 0 -312 115v175z" />
    <glyph glyph-name="T" unicode="T" 
d="M24 1395h783v-118h-328v-1277h-133v1277h-322v118z" />
    <glyph glyph-name="U" unicode="U" horiz-adv-x="960" 
d="M108 1395h135v-1004q0 -135 63.5 -214t177.5 -79q109 0 174.5 76t65.5 217v1004h137v-1004q0 -189 -103.5 -301t-275.5 -112q-175 0 -274.5 120.5t-99.5 321.5v975z" />
    <glyph glyph-name="V" unicode="V" horiz-adv-x="917" 
d="M3 1395h149l309 -1215l294 1215h150l-380 -1395h-135z" />
    <glyph glyph-name="W" unicode="W" horiz-adv-x="1131" 
d="M985 1395h140l-253 -1395h-132l-148 929l-34 262q-32 -259 -55 -399l-129 -792h-130l-256 1395h150l129 -847q6 -38 22 -172q5 -47 21 -154l34 253q6 59 12 94l130 826h133l143 -847l46 -326l46 326z" />
    <glyph glyph-name="X" unicode="X" horiz-adv-x="853" 
d="M58 1395h160l199 -500l193 500h158l-275 -623l351 -772h-159l-268 648l-261 -648h-156l343 772z" />
    <glyph glyph-name="Y" unicode="Y" 
d="M8 1395h158l256 -617l245 617h156l-335 -756v-639h-137v639z" />
    <glyph glyph-name="Z" unicode="Z" horiz-adv-x="853" 
d="M56 1395h707v-119l-608 -1158h693v-118h-843v118l602 1158h-551v119z" />
    <glyph glyph-name="bracketleft" unicode="[" horiz-adv-x="683" 
d="M274 1395h311v-78h-200v-1675h200v-83h-311v1836z" />
    <glyph glyph-name="backslash" unicode="\" horiz-adv-x="576" 
d="M21 1425h109l424 -1588h-106z" />
    <glyph glyph-name="bracketright" unicode="]" horiz-adv-x="683" 
d="M409 -441h-311v78h201v1676h-201v82h311v-1836z" />
    <glyph glyph-name="asciicircum" unicode="^" horiz-adv-x="1344" 
d="M671 1421l448 -537l-65 -54l-383 461l-384 -461l-63 54z" />
    <glyph glyph-name="underscore" unicode="_" horiz-adv-x="1024" 
d="M-12 -154h1048v-102h-1048v102z" />
    <glyph glyph-name="grave" unicode="`" horiz-adv-x="683" 
d="M179 1384h147l150 -293h-83z" />
    <glyph glyph-name="a" unicode="a" 
d="M139 890q153 85 257 85q150 0 227 -87q77 -88 77 -236v-503q0 -55 52 -55q27 0 54 15v-109q-48 -22 -98 -22q-130 0 -134 153q-49 -76 -109 -114.5t-130 -38.5q-114 0 -191 83t-77 203q0 127 95.5 211t411.5 114v82q0 81 -52.5 133.5t-130.5 52.5q-111 0 -252 -110v143z
M574 491q-247 -30 -312.5 -84.5t-65.5 -138.5q0 -76 48 -125.5t121 -49.5q91 0 150 76t59 195v127z" />
    <glyph glyph-name="b" unicode="b" horiz-adv-x="875" 
d="M236 1416v-601q48 80 107 120t128 40q151 0 244.5 -142.5t93.5 -344.5q0 -219 -105 -364.5t-258 -145.5q-58 0 -100.5 22.5t-109.5 83.5l-33 -84h-93v1416h126zM236 203q43 -54 88.5 -81.5t93.5 -27.5q114 0 186.5 108t72.5 282q0 157 -63 266t-168 109
q-95 0 -152.5 -89.5t-57.5 -209.5v-357z" />
    <glyph glyph-name="c" unicode="c" horiz-adv-x="725" 
d="M678 43q-112 -65 -218 -65q-175 0 -284 140.5t-109 347.5q0 213 113.5 361t293.5 148q100 0 204 -60v-139q-101 81 -195 81q-122 0 -205 -109t-83 -274q0 -150 75 -264t202 -114q93 0 206 82v-135z" />
    <glyph glyph-name="d" unicode="d" horiz-adv-x="875" 
d="M637 1395h127v-1395h-127v134q-47 -78 -106.5 -117t-130.5 -39q-150 0 -243 147.5t-93 343.5q0 210 102.5 358t260.5 148q51 0 103.5 -23t106.5 -70v513zM637 761q-39 48 -85 71.5t-100 23.5q-111 0 -185 -106t-74 -280q0 -163 65 -270t166 -107q89 0 151 79t62 200v389z
" />
    <glyph glyph-name="e" unicode="e" 
d="M740 100q-152 -122 -297 -122q-170 0 -275 136.5t-105 355.5q0 226 108.5 365.5t274.5 139.5q147 0 236 -112.5t89 -284.5v-62h-579v-49q0 -186 77.5 -281t181.5 -95q144 0 289 159v-150zM637 623q-4 119 -61 178.5t-133 59.5q-77 0 -143.5 -59.5t-94.5 -178.5h432z" />
    <glyph glyph-name="f" unicode="f" horiz-adv-x="427" 
d="M133 953v215q0 125 49 187.5t147 62.5q49 0 112 -23v-115q-50 22 -86 22q-43 0 -70 -27.5t-27 -71.5v-250h183v-110h-183v-843h-125v843h-129v110h129z" />
    <glyph glyph-name="g" unicode="g" horiz-adv-x="875" 
d="M670 953h93v-1008q0 -193 -105 -302t-252 -109q-129 0 -278 102v149q145 -139 273 -139q106 0 171 83t65 216v205q-50 -75 -109 -112.5t-127 -37.5q-145 0 -241 140t-96 335q0 210 107 355t254 145q63 0 116 -27.5t96 -82.5zM637 749q-43 53 -90 79t-99 26
q-110 0 -181 -107t-71 -273q0 -152 62 -257.5t167 -105.5q91 0 151.5 83t60.5 215v340z" />
    <glyph glyph-name="h" unicode="h" horiz-adv-x="853" 
d="M111 1395h126v-572q47 76 109 114t140 38q117 0 187.5 -82t70.5 -209v-684h-125v684q0 79 -45.5 126.5t-113.5 47.5q-94 0 -158.5 -81t-64.5 -188v-589h-126v1395z" />
    <glyph glyph-name="i" unicode="i" horiz-adv-x="341" 
d="M174 1375q74 0 74 -113q0 -119 -76 -119q-73 0 -73 115q0 117 75 117zM110 953h125v-953h-125v953z" />
    <glyph glyph-name="j" unicode="j" horiz-adv-x="341" 
d="M171 1375q74 0 74 -116q0 -115 -75 -115q-72 0 -72 114q0 117 73 117zM109 953h124v-1170q0 -124 -49.5 -186.5t-148.5 -62.5q-58 0 -107 22v120q42 -25 84 -25q49 0 73 33t24 99v1170z" />
    <glyph glyph-name="k" unicode="k" horiz-adv-x="747" 
d="M102 1395h126v-861l338 419h147l-297 -350l342 -603h-152l-268 513l-110 -132v-381h-126v1395z" />
    <glyph glyph-name="l" unicode="l" horiz-adv-x="341" 
d="M109 1395h126v-1395h-126v1395z" />
    <glyph glyph-name="m" unicode="m" horiz-adv-x="1237" 
d="M667 816q39 80 96 119.5t131 39.5q109 0 169.5 -72.5t60.5 -191.5v-711h-126v711q0 68 -36.5 108t-91.5 40q-79 0 -135.5 -76t-56.5 -172v-611h-126v711q0 73 -30.5 109.5t-92.5 36.5q-85 0 -140 -75.5t-55 -189.5v-592h-123v953h110l13 -122q41 72 96.5 108t126.5 36
q79 0 131.5 -39.5t78.5 -119.5z" />
    <glyph glyph-name="n" unicode="n" horiz-adv-x="853" 
d="M111 953h113l12 -136q50 79 113.5 118.5t140.5 39.5q122 0 190 -82t68 -219v-674h-127v674q0 84 -44 134t-114 50q-95 0 -161 -83.5t-66 -192.5v-582h-125v953z" />
    <glyph glyph-name="o" unicode="o" horiz-adv-x="875" 
d="M440 975q157 0 262 -136.5t105 -361.5q0 -130 -41.5 -245.5t-128.5 -184.5t-202 -69q-171 0 -269.5 141t-98.5 353q0 169 62 292t151.5 167t159.5 44zM448 857q-125 0 -188 -106t-63 -289q0 -157 62 -263t174 -106q106 0 174.5 98.5t68.5 287.5q0 180 -67 279t-161 99z
" />
    <glyph glyph-name="p" unicode="p" horiz-adv-x="875" 
d="M233 -444h-124v1397h112l12 -138q51 80 111.5 120t129.5 40q153 0 242.5 -141.5t89.5 -347.5q0 -250 -115.5 -379t-253.5 -129q-54 0 -105 23t-99 69v-514zM233 188q41 -47 87.5 -71t98.5 -24q113 0 185.5 107t72.5 279q0 158 -63.5 268.5t-168.5 110.5q-92 0 -152 -87.5
t-60 -201.5v-381z" />
    <glyph glyph-name="q" unicode="q" horiz-adv-x="875" 
d="M640 -444v574q-53 -76 -111.5 -114t-122.5 -38q-153 0 -246 144t-93 339q0 218 106 366t253 148q59 0 112.5 -27.5t101.5 -82.5l32 88h94v-1397h-126zM640 752q-45 53 -93 79t-99 26q-109 0 -180 -110t-71 -284q0 -163 63.5 -266.5t164.5 -103.5q92 0 153.5 82t61.5 211
v366z" />
    <glyph glyph-name="r" unicode="r" horiz-adv-x="576" 
d="M244 812q45 82 100.5 122.5t121.5 40.5q49 0 99 -22v-118q-58 22 -98 22q-95 0 -159 -89t-64 -204v-564h-123v953h112z" />
    <glyph glyph-name="s" unicode="s" horiz-adv-x="747" 
d="M69 208q140 -114 267 -114q98 0 162 49.5t64 125.5q0 55 -42.5 92t-164.5 73q-150 45 -219 103t-69 161q0 118 93 197.5t230 79.5q110 0 250 -78v-142q-119 104 -244 104q-86 0 -141.5 -46t-55.5 -111q0 -55 50 -90q49 -36 163 -68q280 -78 280 -266
q0 -127 -102.5 -213.5t-248.5 -86.5q-135 0 -272 87v143z" />
    <glyph glyph-name="t" unicode="t" horiz-adv-x="491" 
d="M155 1237h113v-284h181v-110h-181v-666q0 -42 22 -63.5t66 -21.5q40 0 93 32v-124q-66 -22 -129 -22q-77 0 -126 45t-49 136v684h-131v110h131z" />
    <glyph glyph-name="u" unicode="u" horiz-adv-x="853" 
d="M614 953h125v-953h-125v131q-53 -76 -116 -114.5t-136 -38.5q-122 0 -190.5 83t-68.5 222v670h124v-670q0 -95 40 -142.5t120 -47.5q100 0 163.5 84.5t63.5 217.5v558z" />
    <glyph glyph-name="v" unicode="v" horiz-adv-x="725" 
d="M1 953h137l225 -795l218 795h135l-295 -953h-122z" />
    <glyph glyph-name="w" unicode="w" horiz-adv-x="1003" 
d="M876 953h124l-219 -953h-114l-114 535q-3 10 -10 39q-23 96 -40 221q-12 -115 -38 -246l-108 -549h-118l-232 953h132l100 -490l62 -334q19 120 56 318l91 506h115l118 -538q15 -68 32 -166q9 -51 20 -106q25 169 48 291z" />
    <glyph glyph-name="x" unicode="x" horiz-adv-x="704" 
d="M43 953h151l150 -342l152 342h144l-227 -438l278 -515h-153l-194 421l-198 -421h-143l271 515z" />
    <glyph glyph-name="y" unicode="y" horiz-adv-x="725" 
d="M9 953h139l235 -798l205 798h135l-320 -1111q-51 -178 -105 -243t-156 -65q-36 0 -77 22v117q42 -13 69 -13q56 0 90 49.5t78 203.5l21 76z" />
    <glyph glyph-name="z" unicode="z" horiz-adv-x="768" 
d="M84 953h617v-121l-498 -715h528v-117h-677v117l494 715h-464v121z" />
    <glyph glyph-name="braceleft" unicode="{" horiz-adv-x="683" 
d="M585 1414v-110q-98 -4 -130 -31t-40.5 -104.5t-8.5 -288.5q0 -151 -22.5 -223.5t-62 -118.5t-113.5 -82q106 -45 152.5 -136.5t46.5 -283.5l-1 -180q0 -171 34.5 -206.5t144.5 -42.5v-112h-27q-130 0 -197.5 77t-67.5 270v210q0 199 -46.5 265.5t-146.5 72.5v131
q62 3 103.5 32t65.5 96t24 203v135q0 162 17.5 240.5t82 132.5t150.5 54l11 3q27 0 31 -3z" />
    <glyph glyph-name="bar" unicode="|" horiz-adv-x="1045" 
d="M468 1418h109v-1884h-109v1884z" />
    <glyph glyph-name="braceright" unicode="}" horiz-adv-x="683" 
d="M97 -501v113q98 4 130 31t41 104.5t9 288.5q0 151 22 224t61.5 118.5t113.5 81.5q-105 45 -151.5 136.5t-46.5 283.5v180q0 130 -22.5 187.5t-156.5 61.5v109h28q129 0 196.5 -76t67.5 -268v-210q0 -191 44.5 -263.5t148.5 -74.5v-131q-62 -3 -103 -31.5t-65.5 -96
t-24.5 -203.5v-135q0 -163 -17.5 -242.5t-82 -133.5t-150.5 -54h-27q1 0 -15 0z" />
    <glyph glyph-name="asciitilde" unicode="~" horiz-adv-x="1344" 
d="M1209 656q-161 -125 -284 -125q-90 0 -286 92q-152 71 -218 71q-120 0 -286 -135v121q155 122 293 122q83 0 287 -95q144 -67 212 -67q122 0 282 139v-123z" />
    <glyph glyph-name="Adieresis" unicode="&#xc4;" horiz-adv-x="896" 
d="M378 1395h134l389 -1395h-152l-118 482h-371l-117 -482h-149zM443 1225l-155 -630h313zM306 1765q74 0 74 -126q0 -127 -75 -127q-72 0 -72 123q0 130 73 130zM604 1763q75 0 75 -124q0 -128 -73 -128q-76 0 -76 128q0 124 74 124z" />
    <glyph glyph-name="Aring" unicode="&#xc5;" horiz-adv-x="896" 
d="M526 1345l375 -1345h-152l-118 482h-371l-117 -482h-149l370 1343q-34 24 -51.5 55.5t-17.5 70.5q0 61 43.5 104.5t105.5 43.5q61 0 104.5 -43.5t43.5 -104.5q0 -38 -16.5 -69t-49.5 -55zM444 1545q-30 0 -52.5 -21.5t-22.5 -53.5q0 -31 21.5 -53t53.5 -22q31 0 53 22
t22 53t-22 53t-53 22zM443 1225l-155 -630h313z" />
    <glyph glyph-name="Ccedilla" unicode="&#xc7;" 
d="M528 -22v-101h49q75 0 124 -44.5t49 -110.5q0 -79 -67 -133t-166 -54q-73 0 -147 26v106q73 -40 136 -40q51 0 90 23t39 60q0 34 -30.5 52t-65.5 18h-110v210q-187 53 -273.5 249t-86.5 462q0 192 55.5 364.5t166 262.5t246.5 90q128 0 251 -85v-162q-133 123 -246 123
q-153 0 -243 -161t-90 -457q0 -248 86.5 -411t237.5 -163q116 0 255 127v-165q-147 -87 -243 -87q-6 0 -17 1z" />
    <glyph glyph-name="Eacute" unicode="&#xc9;" horiz-adv-x="896" 
d="M130 1395h677v-118h-542v-491h512v-116h-512v-554h542v-116h-677v1395zM506 1785h149l-215 -293h-84z" />
    <glyph glyph-name="Ntilde" unicode="&#xd1;" horiz-adv-x="1024" 
d="M265 1395l413 -929l108 -245q-11 376 -11 389v785h121v-1395h-136l-400 895q-17 38 -64 162l-48 123q-3 -42 -3 -49l5 -108l1 -155l-3 -60v-808h-121v1395h138zM255 1537q5 217 158 217q74 0 140 -76q45 -52 79 -52q60 0 60 118h95q0 -221 -154 -221q-70 0 -144 79
q-48 51 -78 51q-61 0 -61 -116h-95z" />
    <glyph glyph-name="Odieresis" unicode="&#xd6;" horiz-adv-x="1045" 
d="M528 1418q202 0 327 -195t125 -548q0 -317 -129 -507t-328 -190q-203 0 -330 187.5t-127 519.5q0 338 123 535.5t339 197.5zM534 1294q-168 0 -247.5 -170.5t-79.5 -446.5q0 -261 83 -416.5t230 -155.5q149 0 233 160t84 435q0 299 -88.5 446.5t-214.5 147.5zM372 1765
q74 0 74 -126q0 -127 -75 -127q-72 0 -72 123q0 130 73 130zM670 1763q75 0 75 -124q0 -128 -73 -128q-76 0 -76 128q0 124 74 124z" />
    <glyph glyph-name="Udieresis" unicode="&#xdc;" horiz-adv-x="960" 
d="M108 1395h135v-1004q0 -135 63.5 -214t177.5 -79q109 0 174.5 76t65.5 217v1004h137v-1004q0 -189 -103.5 -301t-275.5 -112q-175 0 -274.5 120.5t-99.5 321.5v975zM330 1765q74 0 74 -126q0 -127 -75 -127q-72 0 -72 123q0 130 73 130zM628 1763q75 0 75 -124
q0 -128 -73 -128q-76 0 -76 128q0 124 74 124z" />
    <glyph glyph-name="aacute" unicode="&#xe1;" 
d="M139 890q153 85 257 85q150 0 227 -87q77 -88 77 -236v-503q0 -55 52 -55q27 0 54 15v-109q-48 -22 -98 -22q-130 0 -134 153q-49 -76 -109 -114.5t-130 -38.5q-114 0 -191 83t-77 203q0 127 95.5 211t411.5 114v82q0 81 -52.5 133.5t-130.5 52.5q-111 0 -252 -110v143z
M574 491q-247 -30 -312.5 -84.5t-65.5 -138.5q0 -76 48 -125.5t121 -49.5q91 0 150 76t59 195v127zM474 1383h149l-215 -293h-84z" />
    <glyph glyph-name="agrave" unicode="&#xe0;" 
d="M139 890q153 85 257 85q150 0 227 -87q77 -88 77 -236v-503q0 -55 52 -55q27 0 54 15v-109q-48 -22 -98 -22q-130 0 -134 153q-49 -76 -109 -114.5t-130 -38.5q-114 0 -191 83t-77 203q0 127 95.5 211t411.5 114v82q0 81 -52.5 133.5t-130.5 52.5q-111 0 -252 -110v143z
M574 491q-247 -30 -312.5 -84.5t-65.5 -138.5q0 -76 48 -125.5t121 -49.5q91 0 150 76t59 195v127zM254 1384h147l150 -293h-83z" />
    <glyph glyph-name="acircumflex" unicode="&#xe2;" 
d="M139 890q153 85 257 85q150 0 227 -87q77 -88 77 -236v-503q0 -55 52 -55q27 0 54 15v-109q-48 -22 -98 -22q-130 0 -134 153q-49 -76 -109 -114.5t-130 -38.5q-114 0 -191 83t-77 203q0 127 95.5 211t411.5 114v82q0 81 -52.5 133.5t-130.5 52.5q-111 0 -252 -110v143z
M574 491q-247 -30 -312.5 -84.5t-65.5 -138.5q0 -76 48 -125.5t121 -49.5q91 0 150 76t59 195v127zM344 1383h192l148 -293h-86l-159 222l-161 -222h-81z" />
    <glyph glyph-name="adieresis" unicode="&#xe4;" 
d="M139 890q153 85 257 85q150 0 227 -87q77 -88 77 -236v-503q0 -55 52 -55q27 0 54 15v-109q-48 -22 -98 -22q-130 0 -134 153q-49 -76 -109 -114.5t-130 -38.5q-114 0 -191 83t-77 203q0 127 95.5 211t411.5 114v82q0 81 -52.5 133.5t-130.5 52.5q-111 0 -252 -110v143z
M574 491q-247 -30 -312.5 -84.5t-65.5 -138.5q0 -76 48 -125.5t121 -49.5q91 0 150 76t59 195v127zM266 1363q74 0 74 -126q0 -127 -75 -127q-72 0 -72 123q0 130 73 130zM564 1361q75 0 75 -124q0 -128 -73 -128q-76 0 -76 128q0 124 74 124z" />
    <glyph glyph-name="atilde" unicode="&#xe3;" 
d="M139 890q153 85 257 85q150 0 227 -87q77 -88 77 -236v-503q0 -55 52 -55q27 0 54 15v-109q-48 -22 -98 -22q-130 0 -134 153q-49 -76 -109 -114.5t-130 -38.5q-114 0 -191 83t-77 203q0 127 95.5 211t411.5 114v82q0 81 -52.5 133.5t-130.5 52.5q-111 0 -252 -110v143z
M574 491q-247 -30 -312.5 -84.5t-65.5 -138.5q0 -76 48 -125.5t121 -49.5q91 0 150 76t59 195v127zM150 1135q5 217 158 217q74 0 140 -76q45 -52 79 -52q60 0 60 118h95q0 -221 -154 -221q-70 0 -144 79q-48 51 -78 51q-61 0 -61 -116h-95z" />
    <glyph glyph-name="aring" unicode="&#xe5;" 
d="M139 890q153 85 257 85q150 0 227 -87q77 -88 77 -236v-503q0 -55 52 -55q27 0 54 15v-109q-48 -22 -98 -22q-130 0 -134 153q-49 -76 -109 -114.5t-130 -38.5q-114 0 -191 83t-77 203q0 127 95.5 211t411.5 114v82q0 81 -52.5 133.5t-130.5 52.5q-111 0 -252 -110v143z
M574 491q-247 -30 -312.5 -84.5t-65.5 -138.5q0 -76 48 -125.5t121 -49.5q91 0 150 76t59 195v127zM417 1383q59 0 103.5 -42.5t44.5 -105.5q0 -62 -43.5 -105.5t-104.5 -43.5q-62 0 -105.5 43.5t-43.5 105.5q0 61 43.5 104.5t105.5 43.5zM417 1311q-32 0 -54 -22t-22 -53
t22 -53t54 -22q31 0 53 22t22 53t-22 53t-53 22z" />
    <glyph glyph-name="ccedilla" unicode="&#xe7;" horiz-adv-x="725" 
d="M450 -22v-101h49q75 0 124 -45t49 -110q0 -79 -67.5 -133t-165.5 -54q-73 0 -147 26v106q73 -40 136 -40q51 0 90 23t39 60q0 34 -30.5 52t-65.5 18h-111v214q-130 43 -206.5 172t-76.5 300q0 220 117 364.5t290 144.5q100 0 204 -60v-139q-101 81 -195 81
q-122 0 -205 -109t-83 -274q0 -150 75 -264t202 -114q93 0 206 82v-135q-117 -66 -208 -66q-7 0 -20 1z" />
    <glyph glyph-name="eacute" unicode="&#xe9;" 
d="M740 100q-152 -122 -297 -122q-170 0 -275 136.5t-105 355.5q0 226 108.5 365.5t274.5 139.5q147 0 236 -112.5t89 -284.5v-62h-579v-49q0 -186 77.5 -281t181.5 -95q144 0 289 159v-150zM637 623q-4 119 -61 178.5t-133 59.5q-77 0 -143.5 -59.5t-94.5 -178.5h432z
M475 1383h149l-215 -293h-84z" />
    <glyph glyph-name="egrave" unicode="&#xe8;" 
d="M740 100q-152 -122 -297 -122q-170 0 -275 136.5t-105 355.5q0 226 108.5 365.5t274.5 139.5q147 0 236 -112.5t89 -284.5v-62h-579v-49q0 -186 77.5 -281t181.5 -95q144 0 289 159v-150zM637 623q-4 119 -61 178.5t-133 59.5q-77 0 -143.5 -59.5t-94.5 -178.5h432z
M254 1384h147l150 -293h-83z" />
    <glyph glyph-name="ecircumflex" unicode="&#xea;" 
d="M740 100q-152 -122 -297 -122q-170 0 -275 136.5t-105 355.5q0 226 108.5 365.5t274.5 139.5q147 0 236 -112.5t89 -284.5v-62h-579v-49q0 -186 77.5 -281t181.5 -95q144 0 289 159v-150zM637 623q-4 119 -61 178.5t-133 59.5q-77 0 -143.5 -59.5t-94.5 -178.5h432z
M344 1383h192l148 -293h-86l-159 222l-161 -222h-81z" />
    <glyph glyph-name="edieresis" unicode="&#xeb;" 
d="M740 100q-152 -122 -297 -122q-170 0 -275 136.5t-105 355.5q0 226 108.5 365.5t274.5 139.5q147 0 236 -112.5t89 -284.5v-62h-579v-49q0 -186 77.5 -281t181.5 -95q144 0 289 159v-150zM637 623q-4 119 -61 178.5t-133 59.5q-77 0 -143.5 -59.5t-94.5 -178.5h432z
M291 1363q74 0 74 -126q0 -127 -75 -127q-72 0 -72 123q0 130 73 130zM589 1361q75 0 75 -124q0 -128 -73 -128q-76 0 -76 128q0 124 74 124z" />
    <glyph glyph-name="iacute" unicode="&#xed;" horiz-adv-x="341" 
d="M110 953h125v-953h-125v953zM229 1383h149l-215 -293h-84z" />
    <glyph glyph-name="igrave" unicode="&#xec;" horiz-adv-x="341" 
d="M110 953h125v-953h-125v953zM8 1384h147l150 -293h-83z" />
    <glyph glyph-name="icircumflex" unicode="&#xee;" horiz-adv-x="341" 
d="M110 953h125v-953h-125v953zM86 1383h192l148 -293h-86l-159 222l-161 -222h-81z" />
    <glyph glyph-name="idieresis" unicode="&#xef;" horiz-adv-x="341" 
d="M110 953h125v-953h-125v953zM21 1363q74 0 74 -126q0 -127 -75 -127q-72 0 -72 123q0 130 73 130zM319 1361q75 0 75 -124q0 -128 -73 -128q-76 0 -76 128q0 124 74 124z" />
    <glyph glyph-name="ntilde" unicode="&#xf1;" horiz-adv-x="853" 
d="M111 953h113l12 -136q50 79 113.5 118.5t140.5 39.5q122 0 190 -82t68 -219v-674h-127v674q0 84 -44 134t-114 50q-95 0 -161 -83.5t-66 -192.5v-582h-125v953zM183 1135q5 217 158 217q74 0 140 -76q45 -52 79 -52q60 0 60 118h95q0 -221 -154 -221q-70 0 -144 79
q-48 51 -78 51q-61 0 -61 -116h-95z" />
    <glyph glyph-name="oacute" unicode="&#xf3;" horiz-adv-x="875" 
d="M440 975q157 0 262 -136.5t105 -361.5q0 -130 -41.5 -245.5t-128.5 -184.5t-202 -69q-171 0 -269.5 141t-98.5 353q0 169 62 292t151.5 167t159.5 44zM448 857q-125 0 -188 -106t-63 -289q0 -157 62 -263t174 -106q106 0 174.5 98.5t68.5 287.5q0 180 -67 279t-161 99z
M482 1383h149l-215 -293h-84z" />
    <glyph glyph-name="ograve" unicode="&#xf2;" horiz-adv-x="875" 
d="M440 975q157 0 262 -136.5t105 -361.5q0 -130 -41.5 -245.5t-128.5 -184.5t-202 -69q-171 0 -269.5 141t-98.5 353q0 169 62 292t151.5 167t159.5 44zM448 857q-125 0 -188 -106t-63 -289q0 -157 62 -263t174 -106q106 0 174.5 98.5t68.5 287.5q0 180 -67 279t-161 99z
M273 1384h147l150 -293h-83z" />
    <glyph glyph-name="ocircumflex" unicode="&#xf4;" horiz-adv-x="875" 
d="M440 975q157 0 262 -136.5t105 -361.5q0 -130 -41.5 -245.5t-128.5 -184.5t-202 -69q-171 0 -269.5 141t-98.5 353q0 169 62 292t151.5 167t159.5 44zM448 857q-125 0 -188 -106t-63 -289q0 -157 62 -263t174 -106q106 0 174.5 98.5t68.5 287.5q0 180 -67 279t-161 99z
M351 1383h192l148 -293h-86l-159 222l-161 -222h-81z" />
    <glyph glyph-name="odieresis" unicode="&#xf6;" horiz-adv-x="875" 
d="M440 975q157 0 262 -136.5t105 -361.5q0 -130 -41.5 -245.5t-128.5 -184.5t-202 -69q-171 0 -269.5 141t-98.5 353q0 169 62 292t151.5 167t159.5 44zM448 857q-125 0 -188 -106t-63 -289q0 -157 62 -263t174 -106q106 0 174.5 98.5t68.5 287.5q0 180 -67 279t-161 99z
M298 1363q74 0 74 -126q0 -127 -75 -127q-72 0 -72 123q0 130 73 130zM596 1361q75 0 75 -124q0 -128 -73 -128q-76 0 -76 128q0 124 74 124z" />
    <glyph glyph-name="otilde" unicode="&#xf5;" horiz-adv-x="875" 
d="M440 975q157 0 262 -136.5t105 -361.5q0 -130 -41.5 -245.5t-128.5 -184.5t-202 -69q-171 0 -269.5 141t-98.5 353q0 169 62 292t151.5 167t159.5 44zM448 857q-125 0 -188 -106t-63 -289q0 -157 62 -263t174 -106q106 0 174.5 98.5t68.5 287.5q0 180 -67 279t-161 99z
M170 1135q5 217 158 217q74 0 140 -76q45 -52 79 -52q60 0 60 118h95q0 -221 -154 -221q-70 0 -144 79q-48 51 -78 51q-61 0 -61 -116h-95z" />
    <glyph glyph-name="uacute" unicode="&#xfa;" horiz-adv-x="853" 
d="M614 953h125v-953h-125v131q-53 -76 -116 -114.5t-136 -38.5q-122 0 -190.5 83t-68.5 222v670h124v-670q0 -95 40 -142.5t120 -47.5q100 0 163.5 84.5t63.5 217.5v558zM473 1383h149l-215 -293h-84z" />
    <glyph glyph-name="ugrave" unicode="&#xf9;" horiz-adv-x="853" 
d="M614 953h125v-953h-125v131q-53 -76 -116 -114.5t-136 -38.5q-122 0 -190.5 83t-68.5 222v670h124v-670q0 -95 40 -142.5t120 -47.5q100 0 163.5 84.5t63.5 217.5v558zM252 1384h147l150 -293h-83z" />
    <glyph glyph-name="ucircumflex" unicode="&#xfb;" horiz-adv-x="853" 
d="M614 953h125v-953h-125v131q-53 -76 -116 -114.5t-136 -38.5q-122 0 -190.5 83t-68.5 222v670h124v-670q0 -95 40 -142.5t120 -47.5q100 0 163.5 84.5t63.5 217.5v558zM343 1383h192l148 -293h-86l-159 222l-161 -222h-81z" />
    <glyph glyph-name="udieresis" unicode="&#xfc;" horiz-adv-x="853" 
d="M614 953h125v-953h-125v131q-53 -76 -116 -114.5t-136 -38.5q-122 0 -190.5 83t-68.5 222v670h124v-670q0 -95 40 -142.5t120 -47.5q100 0 163.5 84.5t63.5 217.5v558zM277 1363q74 0 74 -126q0 -127 -75 -127q-72 0 -72 123q0 130 73 130zM575 1361q75 0 75 -124
q0 -128 -73 -128q-76 0 -76 128q0 124 74 124z" />
    <glyph glyph-name="dagger" unicode="&#x2020;" 
d="M360 1372h111v-419h260v-104h-260v-1203h-111v1203h-259v104h259v419z" />
    <glyph glyph-name="degree" unicode="&#xb0;" horiz-adv-x="811" 
d="M694 1140q0 -127 -86 -209t-202 -82q-118 0 -203 82t-85 201q0 117 84.5 201.5t203.5 84.5q127 0 207.5 -87t80.5 -191zM610 1130q0 91 -60.5 150t-143.5 59q-85 0 -145 -60t-60 -144q0 -85 60 -144.5t145 -59.5q87 0 145.5 62t58.5 137z" />
    <glyph glyph-name="cent" unicode="&#xa2;" horiz-adv-x="768" 
d="M458 1332h102v-171q83 -13 148 -52v-130q-72 53 -148 65v-753q82 17 148 67v-137q-71 -34 -148 -50v-171h-102v171q-182 31 -272.5 172.5t-90.5 317.5q0 185 98.5 329.5t264.5 170.5v171zM458 287v754q-231 -79 -231 -383q0 -158 63 -251.5t168 -119.5z" />
    <glyph glyph-name="sterling" unicode="&#xa3;" horiz-adv-x="917" 
d="M306 718q-9 24 -32 73q-67 146 -67 228q0 145 104.5 241t257.5 96q136 0 271 -85v-147q-140 117 -261 117q-104 0 -174 -62t-70 -157q0 -72 68 -216q24 -50 38 -88h271v-109h-253q-6 -115 -41.5 -192t-129.5 -215q28 20 53.5 30t48.5 10q63 0 174 -77q100 -69 150 -69
q42 0 112 51q10 7 14 10v-134q-76 -45 -140 -45q-76 0 -195 81q-102 69 -160 69q-40 0 -73.5 -28t-75.5 -100h-135q42 74 96 152q121 178 148.5 261.5t28.5 195.5h-234v109h206z" />
    <glyph glyph-name="section" unicode="&#xa7;" horiz-adv-x="853" 
d="M237 902q-78 106 -78 205q0 111 79.5 188t188.5 77q65 0 125.5 -31t103 -101.5t49.5 -195.5h-109q-25 235 -172 235q-68 0 -112 -50.5t-44 -115.5q0 -62 42 -119t178 -166q182 -145 235.5 -223.5t53.5 -181.5q0 -85 -37 -148t-124 -118q42 -51 63 -104t21 -108
q0 -129 -81.5 -215t-203.5 -86q-115 0 -197 78t-97 256h116q26 -239 177 -239q78 0 127.5 55.5t49.5 134.5q0 42 -14 80t-43 71q-58 67 -200 172q-144 107 -203 188.5t-59 178.5q0 82 33 145t132 138zM291 847q-116 -114 -116 -216q0 -84 60 -148.5t188 -160.5
q53 -39 144 -113q99 96 99 209q0 76 -48 137t-233 214z" />
    <glyph glyph-name="bullet" unicode="&#x2022;" horiz-adv-x="1024" 
d="M761 722q0 -112 -74 -184.5t-175 -72.5q-104 0 -176.5 74t-72.5 177t73 176.5t176 73.5q107 0 178 -76t71 -168z" />
    <glyph glyph-name="paragraph" unicode="&#xb6;" horiz-adv-x="1323" 
d="M1267 1395v-130h-196v-1709h-131v1709h-263v-1709h-131v1002q-129 0 -220.5 39.5t-160 140.5t-68.5 239q0 194 132.5 306t346.5 112h691z" />
    <glyph glyph-name="germandbls" unicode="&#xdf;" horiz-adv-x="896" 
d="M121 0v601q0 437 11 545t98 190t214 82q126 0 213 -86.5t87 -220.5q0 -224 -232 -322q164 -14 246 -117.5t82 -256.5q0 -182 -108 -309.5t-268 -127.5q-66 0 -122 22v120q60 -28 118 -28q112 0 185.5 91.5t73.5 227.5q0 143 -83.5 224t-212.5 81h-81v112q110 0 192 60.5
t82 191.5q0 102 -53 162t-137 60q-86 0 -134.5 -65t-48.5 -174v-1063h-122z" />
    <glyph glyph-name="registered" unicode="&#xae;" horiz-adv-x="1643" 
d="M1586 676q0 -348 -230 -565t-534 -217q-315 0 -539.5 223.5t-224.5 538.5q0 314 224.5 538t539.5 224q217 0 400 -113.5t273.5 -290.5t90.5 -338zM1493 640q0 307 -202.5 497.5t-468.5 190.5q-278 0 -474.5 -196.5t-196.5 -474.5q0 -276 197 -473t474 -197
q288 0 479.5 203.5t191.5 449.5zM512 1051h334q121 0 197 -54t76 -159q0 -79 -52 -145t-186 -83q88 -34 128.5 -87t138.5 -276h-120q-97 220 -157.5 284t-211.5 64h-45v-348h-102v804zM614 680h132q160 0 207.5 40t47.5 113q0 76 -52.5 106t-186.5 30h-148v-289z" />
    <glyph glyph-name="copyright" unicode="&#xa9;" horiz-adv-x="1643" 
d="M1586 676q0 -348 -230 -565t-534 -217q-315 0 -539.5 223.5t-224.5 538.5q0 314 224.5 538t539.5 224q217 0 400 -113.5t273.5 -290.5t90.5 -338zM1493 640q0 307 -202.5 497.5t-468.5 190.5q-278 0 -474.5 -196.5t-196.5 -474.5q0 -276 197 -473t474 -197
q288 0 479.5 203.5t191.5 449.5zM1154 853l-98 -27q-71 166 -223 166q-113 0 -197 -82.5t-84 -242.5q0 -151 71 -254t198 -103q93 0 149.5 47.5t100.5 157.5l90 -31q-48 -150 -141 -206.5t-195 -56.5q-103 0 -192.5 55.5t-139.5 161.5t-50 222q0 160 101.5 287t281.5 127
q116 0 192.5 -53.5t135.5 -167.5z" />
    <glyph glyph-name="trademark" unicode="&#x2122;" horiz-adv-x="1920" 
d="M202 1395h636v-84h-268v-729h-102v729h-266v84zM932 1395h153l204 -649l213 649h155v-813h-91v729l-243 -729h-69l-230 729v-729h-92v813z" />
    <glyph glyph-name="acute" unicode="&#xb4;" horiz-adv-x="683" 
d="M375 1383h149l-215 -293h-84z" />
    <glyph glyph-name="dieresis" unicode="&#xa8;" horiz-adv-x="683" 
d="M191 1363q74 0 74 -126q0 -127 -75 -127q-72 0 -72 123q0 130 73 130zM489 1361q75 0 75 -124q0 -128 -73 -128q-76 0 -76 128q0 124 74 124z" />
    <glyph glyph-name="notequal" unicode="&#x2260;" horiz-adv-x="1365" 
d="M143 953h602l209 532h91l-204 -532h380v-108h-424l-139 -357h563v-108h-604l-211 -530h-92l209 530h-380v108h422l139 357h-561v108z" />
    <glyph glyph-name="AE" unicode="&#xc6;" horiz-adv-x="1472" 
d="M499 1395h885v-114h-540v-495h508v-115h-508v-553h540v-118h-673v671h-336l-234 -671h-149zM588 1281l-173 -495h296v495h-123z" />
    <glyph glyph-name="Oslash" unicode="&#xd8;" horiz-adv-x="1045" 
d="M811 1283q169 -201 169 -608q0 -212 -57 -364t-160 -242.5t-240 -90.5q-107 0 -204 61l-54 -135h-110l81 206q-64 67 -117 211t-53 365q0 340 124.5 536t321.5 196q119 0 214 -60l52 133h115zM293 255l385 980q-69 59 -152 59q-154 0 -236.5 -164.5t-82.5 -452.5
q0 -262 86 -422zM754 1139l-387 -978q62 -56 155 -56q149 0 232 161t83 434q0 272 -83 439z" />
    <glyph glyph-name="infinity" unicode="&#x221e;" horiz-adv-x="1460" 
d="M654 808q70 169 158 223t212 54q167 0 275 -118.5t108 -298.5q0 -187 -110.5 -303t-238.5 -116q-98 0 -169 60t-168 226q-113 -233 -324 -233q-108 0 -182 51.5t-117.5 127t-43.5 190.5q0 162 91 264t216 102q77 0 147 -41.5t146 -187.5zM750 605q68 -147 142 -205
t170 -58q129 0 208.5 93t79.5 233q0 145 -86.5 242t-195.5 97q-85 0 -150 -58t-168 -344zM625 731q-90 215 -267 215q-96 0 -172.5 -70t-76.5 -204q0 -138 72.5 -215t157.5 -77q68 0 139 56t147 295z" />
    <glyph glyph-name="plusminus" unicode="&#xb1;" horiz-adv-x="1365" 
d="M142 875h485v488h108v-488h489v-108h-489v-485h-108v485h-485v108zM142 108h1082v-108h-1082v108z" />
    <glyph glyph-name="lessequal" unicode="&#x2264;" horiz-adv-x="1365" 
d="M1221 361l-1078 456v97l1078 455v-117l-934 -386l934 -387v-118zM142 108h1080v-108h-1080v108z" />
    <glyph glyph-name="greaterequal" unicode="&#x2265;" horiz-adv-x="1365" 
d="M143 1369l1078 -456v-97l-1078 -455v117l934 386l-934 387v118zM142 108h1080v-108h-1080v108z" />
    <glyph glyph-name="yen" unicode="&#xa5;" 
d="M547 777h277v-90h-317l-20 -46v-252h337v-91h-337v-298h-137v298h-341v91h341v252l-20 46h-321v90h280l-280 618h156l256 -618l245 618h158z" />
    <glyph glyph-name="mu" unicode="&#xb5;" horiz-adv-x="917" 
d="M139 1063h119v-759q0 -90 10 -128t46.5 -67t92.5 -29q76 0 137.5 46.5t87 118t25.5 224.5v594h121v-1063h-121v104q-59 -65 -120 -97.5t-125 -32.5q-31 0 -69.5 9t-84.5 26v-417h-119v1471z" />
    <glyph glyph-name="partialdiff" unicode="&#x2202;" horiz-adv-x="1003" 
d="M925 717q12 108 12 187q0 177 -94 276.5t-252 99.5q-95 0 -170.5 -39.5t-130.5 -119.5h-46q68 151 163.5 226t217.5 75q155 0 260.5 -123t105.5 -380q0 -361 -166 -655.5t-426 -294.5q-147 0 -243 86t-96 249q0 239 164.5 421.5t387.5 182.5q102 0 188 -52.5t125 -138.5z
M908 628q-37 113 -118 169t-169 56q-94 0 -185.5 -68.5t-149 -229t-57.5 -292.5q0 -105 52 -171t143 -66q136 0 279.5 163.5t204.5 438.5z" />
    <glyph glyph-name="summation" unicode="&#x2211;" horiz-adv-x="1451" 
d="M1351 -204h-1313v36l669 831l-669 817v37h1278l27 -337h-40q-27 256 -249 256h-740l562 -687l-629 -777h818q67 0 139 23t109 72.5t62 150.5l40 -7z" />
    <glyph glyph-name="product" unicode="&#x220f;" horiz-adv-x="1685" 
d="M1239 1438h-795v-1449q0 -85 39 -120t123 -35h36v-38h-597v38h35q87 0 125 36t38 119v1334q0 86 -39.5 120.5t-123.5 34.5h-35v38h1594v-38h-35q-92 0 -127 -37.5t-35 -117.5v-1334q0 -85 39 -120t123 -35h35v-38h-597v38h35q87 0 124.5 36t37.5 119v1449z" />
    <glyph glyph-name="pi" unicode="&#x3c0;" horiz-adv-x="1124" 
d="M1024 916v-146h-232q-39 -236 -39 -459q0 -93 37 -132.5t88 -39.5q98 0 110 111h36q-18 -145 -74.5 -211.5t-131.5 -66.5q-72 0 -123.5 67.5t-51.5 279.5q0 195 38 451h-235l-17 -245q-9 -129 -34.5 -275t-49 -196t-46.5 -66t-47 -16q-37 0 -63.5 24.5t-26.5 58.5
q0 30 8.5 49.5t56.5 85.5q52 71 70 168.5t38 411.5h-29q-67 0 -111.5 -27t-96.5 -114h-36q30 113 78 180.5t96.5 87t149.5 19.5h638z" />
    <glyph glyph-name="integral" unicode="&#x222b;" horiz-adv-x="561" 
d="M200 895l12 445q9 344 75 433.5t148 89.5q43 0 84 -30.5t41 -76.5q0 -44 -25.5 -74t-66.5 -30q-35 0 -76 36q-23 20 -40 20q-40 0 -40 -63q0 -42 9 -146q37 -411 37 -665q0 -68 -12 -470.5t-77 -493t-151 -90.5q-49 0 -83.5 32.5t-34.5 88.5q0 43 24.5 71t65.5 28
q40 0 70 -33q28 -31 48 -31t29.5 15.5t9.5 45.5q0 42 -9 120q-38 317 -38 778z" />
    <glyph glyph-name="ordfeminine" unicode="&#xaa;" horiz-adv-x="555" 
d="M84 1358q100 60 183 60q100 0 156 -57t56 -145v-351q0 -29 23 -29q12 0 48 20v-101q-47 -13 -74 -13q-84 0 -100 74q-31 -39 -68.5 -59t-81.5 -20q-76 0 -132.5 57.5t-56.5 144.5q0 108 82.5 157t254.5 68v38q0 53 -32.5 85t-79.5 32q-64 0 -178 -86v125zM374 1076
q-134 -21 -180.5 -47.5t-46.5 -87.5q0 -49 29.5 -77t69.5 -28q57 0 92.5 48t35.5 113v79z" />
    <glyph glyph-name="ordmasculine" unicode="&#xba;" horiz-adv-x="576" 
d="M291 1418q104 0 179.5 -91t75.5 -248q0 -152 -73 -247t-185 -95q-115 0 -186 96t-71 245q0 148 71.5 244t188.5 96zM296 1319q-75 0 -115 -67.5t-40 -183.5q0 -99 39 -165.5t108 -66.5t107.5 66t38.5 185q0 101 -38 166.5t-100 65.5z" />
    <glyph glyph-name="Omega" unicode="&#x2126;" horiz-adv-x="1573" 
d="M86 313h36q3 -54 33.5 -90.5t129.5 -36.5h270v67q-166 32 -300 178.5t-134 365.5q0 256 191 423t478 167q285 0 474 -163.5t189 -423.5q0 -210 -118.5 -351t-317.5 -196v-67h275q80 0 116 28.5t42 98.5h36v-313h-559l22 302q258 82 258 477q0 258 -126 395.5t-296 137.5
q-181 0 -300 -145.5t-119 -373.5q0 -191 59 -315t197 -176l23 -302h-559v313z" />
    <glyph glyph-name="ae" unicode="&#xe6;" horiz-adv-x="1301" 
d="M640 819q122 156 278 156q148 0 237.5 -112.5t89.5 -285.5v-63h-579v-49q0 -180 77 -276t178 -96q150 0 294 155v-150q-152 -120 -302 -120q-102 0 -182.5 57t-140.5 170q-41 -113 -107 -170t-157 -57q-113 0 -190.5 82.5t-77.5 206.5q0 104 57.5 172t159 100t269.5 49
v48q0 110 -45 165t-136 55q-55 0 -103 -22t-127 -84v143q148 82 245 82q90 0 145.5 -33.5t116.5 -122.5zM1111 623q-8 118 -56 177t-136 59q-179 0 -240 -236h432zM544 487q-192 -19 -274 -63t-82 -153q0 -78 45 -129t111 -51q85 0 142.5 79t57.5 186v131z" />
    <glyph glyph-name="oslash" unicode="&#xf8;" horiz-adv-x="875" 
d="M205 73q-138 130 -138 399q0 233 108.5 368t264.5 135q74 0 147 -36l47 106h110l-73 -169q136 -147 136 -399q0 -210 -98 -354.5t-274 -144.5q-76 0 -143 32l-47 -106h-115zM260 198l279 632q-50 28 -98 28q-109 0 -176.5 -101t-67.5 -287q0 -164 63 -272zM615 749
l-276 -631q45 -25 91 -25q105 0 175.5 97.5t70.5 288.5q0 165 -61 270z" />
    <glyph glyph-name="questiondown" unicode="&#xbf;" horiz-adv-x="853" 
d="M493 720q-75 0 -75 124q0 129 74 129q73 0 73 -126q0 -127 -72 -127zM739 -357q-176 -109 -328 -109q-156 0 -261.5 97t-105.5 248q0 105 50.5 175.5t206.5 207.5q77 67 102 118.5t25 136.5v84h125v-71q0 -132 -40 -206t-172 -186q-110 -94 -138.5 -145t-28.5 -109
q0 -96 70 -161.5t182 -65.5q74 0 140 28.5t173 100.5v-143z" />
    <glyph glyph-name="exclamdown" unicode="&#xa1;" horiz-adv-x="427" 
d="M219 724q-77 0 -77 126q0 127 74 127q73 0 73 -126q0 -60 -20 -93.5t-50 -33.5zM283 -441h-139l19 1047h105z" />
    <glyph glyph-name="logicalnot" unicode="&#xac;" horiz-adv-x="1365" 
d="M142 964h1080v-595h-106v487h-974v108z" />
    <glyph glyph-name="radical" unicode="&#x221a;" horiz-adv-x="1124" 
d="M1050 1869h74l-312 -1947l-496 1021l-198 -91l-34 64l301 151l405 -823z" />
    <glyph glyph-name="florin" unicode="&#x192;" horiz-adv-x="1131" 
d="M741 1062h224l-22 -92h-221l-248 -1141q-31 -143 -93.5 -201.5t-183.5 -58.5q-71 0 -177 31l22 100q87 -22 144 -22q67 0 104.5 29.5t46.5 70.5l259 1192h-169l20 92h168l25 108q30 127 54.5 185.5t85 97t150.5 38.5q54 0 180 -32l-21 -99q-82 20 -152 20t-103 -35.5
t-55 -125.5z" />
    <glyph glyph-name="approxequal" unicode="&#x2248;" horiz-adv-x="1344" 
d="M1209 897q-159 -124 -275 -124q-59 0 -115 16t-211 90q-119 56 -182 56q-124 0 -291 -135v121q154 122 293 122q86 0 287 -95q142 -66 207 -66q129 0 287 138v-123zM1209 415q-159 -125 -275 -125q-59 0 -115 16.5t-211 89.5q-119 57 -182 57q-124 0 -291 -135v121
q154 122 293 122q86 0 287 -95q142 -67 207 -67q125 0 287 139v-123z" />
    <glyph glyph-name="Delta" unicode="&#x2206;" horiz-adv-x="1259" 
d="M1229 0h-1200l628 1387zM993 82l-399 967l-440 -967h839z" />
    <glyph glyph-name="guillemotleft" unicode="&#xab;" horiz-adv-x="597" 
d="M201 789h102l-102 -315l102 -317h-102l-108 317zM454 789h103l-103 -315l103 -317h-103l-107 317z" />
    <glyph glyph-name="guillemotright" unicode="&#xbb;" horiz-adv-x="597" 
d="M397 157h-102l102 315l-102 317h102l108 -317zM143 157h-102l102 315l-102 317h102l108 -317z" />
    <glyph glyph-name="ellipsis" unicode="&#x2026;" horiz-adv-x="2048" 
d="M1722 243q38 0 62.5 -33.5t24.5 -86.5q0 -54 -24.5 -88.5t-62.5 -34.5q-40 0 -63 34.5t-23 87.5q0 57 25 89t61 32zM1037 240q38 0 62.5 -34t24.5 -90q0 -55 -24 -91t-62 -36q-40 0 -63 36t-23 89q0 58 24 92t61 34zM354 239q40 0 63 -34t23 -89q0 -127 -85 -127
q-40 0 -62.5 34.5t-22.5 88.5q0 63 25 95t59 32z" />
    <glyph glyph-name="nonbreakingspace" unicode="&#xa0;" horiz-adv-x="469" 
 />
    <glyph glyph-name="Agrave" unicode="&#xc0;" horiz-adv-x="896" 
d="M378 1395h134l389 -1395h-152l-118 482h-371l-117 -482h-149zM443 1225l-155 -630h313zM269 1786h147l150 -293h-83z" />
    <glyph glyph-name="Atilde" unicode="&#xc3;" horiz-adv-x="896" 
d="M378 1395h134l389 -1395h-152l-118 482h-371l-117 -482h-149zM443 1225l-155 -630h313zM190 1537q5 217 158 217q74 0 140 -76q45 -52 79 -52q60 0 60 118h95q0 -221 -154 -221q-70 0 -144 79q-48 51 -78 51q-61 0 -61 -116h-95z" />
    <glyph glyph-name="Otilde" unicode="&#xd5;" horiz-adv-x="1045" 
d="M528 1418q202 0 327 -195t125 -548q0 -317 -129 -507t-328 -190q-203 0 -330 187.5t-127 519.5q0 338 123 535.5t339 197.5zM534 1294q-168 0 -247.5 -170.5t-79.5 -446.5q0 -261 83 -416.5t230 -155.5q149 0 233 160t84 435q0 299 -88.5 446.5t-214.5 147.5zM256 1537
q5 217 158 217q74 0 140 -76q45 -52 79 -52q60 0 60 118h95q0 -221 -154 -221q-70 0 -144 79q-48 51 -78 51q-61 0 -61 -116h-95z" />
    <glyph glyph-name="OE" unicode="&#x152;" horiz-adv-x="1600" 
d="M1511 1395v-118h-542v-490h509v-115h-509v-553h542v-119h-679v159q-65 -90 -143.5 -135.5t-169.5 -45.5q-194 0 -322.5 186t-128.5 543q0 190 55.5 361.5t164 260.5t239.5 89q101 0 177.5 -48t127.5 -145v170h679zM530 1291q-158 0 -240 -163.5t-82 -464.5
q0 -259 88.5 -410.5t225.5 -151.5q143 0 227 161.5t84 432.5q0 182 -39.5 322t-114.5 207t-149 67z" />
    <glyph glyph-name="oe" unicode="&#x153;" horiz-adv-x="1429" 
d="M737 768q119 207 311 207q154 0 241.5 -119t87.5 -311v-29h-581v-71q0 -167 79.5 -259.5t178.5 -92.5q139 0 289 158v-153q-154 -120 -295 -120q-104 0 -182 50.5t-129 150.5q-63 -100 -138 -150.5t-162 -50.5q-175 0 -271 143.5t-96 353.5q0 225 102.5 362.5
t270.5 137.5q91 0 164.5 -51.5t129.5 -155.5zM1242 621q-11 120 -59.5 180t-134.5 60q-176 0 -238 -240h432zM674 461q0 177 -60 286.5t-176 109.5q-106 0 -173.5 -106t-67.5 -290q0 -155 62 -261.5t175 -106.5q115 0 177.5 108.5t62.5 259.5z" />
    <glyph glyph-name="endash" unicode="&#x2013;" horiz-adv-x="1024" 
d="M-21 551h1066v-61h-1066v61z" />
    <glyph glyph-name="emdash" unicode="&#x2014;" horiz-adv-x="2048" 
d="M-22 552h2091v-63h-2091v63z" />
    <glyph glyph-name="quotedblleft" unicode="&#x201c;" horiz-adv-x="747" 
d="M530 1395h69q-61 -127 -69 -240q76 -38 76 -116q0 -63 -28.5 -103.5t-70.5 -40.5q-40 0 -64.5 43.5t-24.5 105.5q0 162 112 351zM210 1395h69q-61 -127 -69 -240q76 -37 76 -115q0 -65 -29.5 -104.5t-69.5 -39.5t-64.5 42.5t-24.5 105.5q0 162 112 351z" />
    <glyph glyph-name="quotedblright" unicode="&#x201d;" horiz-adv-x="747" 
d="M216 918h-69q60 128 69 243q-38 19 -57 47.5t-19 66.5q0 62 28.5 102.5t70.5 40.5q40 0 64.5 -43t24.5 -106q0 -81 -28 -168.5t-84 -182.5zM536 918h-69q61 127 69 241q-38 19 -57 47.5t-19 67.5q0 64 29 104t70 40q40 0 64.5 -43t24.5 -106q0 -81 -28 -168.5t-84 -182.5
z" />
    <glyph glyph-name="quoteleft" unicode="&#x2018;" horiz-adv-x="427" 
d="M210 1395h69q-61 -127 -69 -240q76 -37 76 -115q0 -65 -29.5 -104.5t-69.5 -39.5t-64.5 42.5t-24.5 105.5q0 162 112 351z" />
    <glyph glyph-name="quoteright" unicode="&#x2019;" horiz-adv-x="427" 
d="M216 918h-69q60 128 69 244q-38 19 -57 47t-19 66q0 62 28.5 102.5t70.5 40.5q39 0 64 -43t25 -106q0 -81 -28 -168.5t-84 -182.5z" />
    <glyph glyph-name="divide" unicode="&#xf7;" horiz-adv-x="1365" 
d="M608 1077q0 30 22 50t50 20q30 0 51 -21t21 -51t-21 -51t-52 -21q-32 0 -51.5 23t-19.5 51zM143 719h1080v-105h-1080v105zM607 256q0 33 22 54t52 21t51.5 -21.5t21.5 -51.5q0 -29 -21.5 -50.5t-51.5 -21.5q-32 0 -53 22t-21 48z" />
    <glyph glyph-name="lozenge" unicode="&#x25ca;" horiz-adv-x="1012" 
d="M548 1422l418 -713l-418 -709h-111l-391 709l391 713h111zM494 1325l-340 -616l340 -615l359 615z" />
    <glyph glyph-name="ydieresis" unicode="&#xff;" horiz-adv-x="725" 
d="M9 953h139l235 -798l205 798h135l-320 -1111q-51 -178 -105 -243t-156 -65q-36 0 -77 22v117q42 -13 69 -13q56 0 90 49.5t78 203.5l21 76zM225 1363q74 0 74 -126q0 -127 -75 -127q-72 0 -72 123q0 130 73 130zM523 1361q75 0 75 -124q0 -128 -73 -128q-76 0 -76 128
q0 124 74 124z" />
    <glyph glyph-name="Ydieresis" unicode="&#x178;" 
d="M8 1395h158l256 -617l245 617h156l-335 -756v-639h-137v639zM274 1765q74 0 74 -126q0 -127 -75 -127q-72 0 -72 123q0 130 73 130zM572 1763q75 0 75 -124q0 -128 -73 -128q-76 0 -76 128q0 124 74 124z" />
    <glyph glyph-name="fraction" unicode="&#x2215;" horiz-adv-x="213" 
d="M595 1395l-835 -1486h-112l823 1486h124z" />
    <glyph glyph-name="currency" unicode="&#xa4;" horiz-adv-x="1387" 
d="M972 1019l126 126l73 -76l-125 -125q96 -134 96 -277q0 -78 -20.5 -139.5t-75.5 -138.5l125 -124l-73 -75l-126 125q-66 -48 -135 -72t-142 -24q-149 0 -278 96l-126 -125l-75 75l126 124q-96 133 -96 277q0 148 96 278l-126 125l75 76l126 -126q67 48 136 72t139 24
q77 0 138.5 -20t141.5 -76zM352 675q0 -155 102.5 -252.5t239.5 -97.5q141 0 241 100.5t100 241.5q0 140 -100 240.5t-241 100.5q-147 0 -244.5 -103.5t-97.5 -229.5z" />
    <glyph glyph-name="guilsinglleft" unicode="&#x2039;" horiz-adv-x="341" 
d="M190 789h102l-102 -315l102 -317h-102l-108 317z" />
    <glyph glyph-name="guilsinglright" unicode="&#x203a;" horiz-adv-x="341" 
d="M152 157h-102l102 315l-102 317h102l108 -317z" />
    <glyph glyph-name="fi" unicode="&#xf001;" horiz-adv-x="789" 
d="M127 953v215q0 125 48.5 187.5t144.5 62.5q49 0 111 -23v-115q-49 22 -84 22q-43 0 -69 -27.5t-26 -71.5v-250h414v-953h-126v843h-288v-843h-125v843h-129v110h129zM604 1375q74 0 74 -114q0 -118 -75 -118q-74 0 -74 114q0 118 75 118z" />
    <glyph glyph-name="fl" unicode="&#xf002;" horiz-adv-x="789" 
d="M126 953v215q0 125 48.5 187.5t144.5 62.5q49 0 111 -23v-115q-48 22 -86 22q-46 0 -69.5 -29.5t-23.5 -88.5v-231h285v442h126v-1395h-126v843h-285v-843h-125v843h-129v110h129z" />
    <glyph glyph-name="daggerdbl" unicode="&#x2021;" 
d="M361 1374h110v-386h260v-93h-260v-771h260v-93h-260v-385h-110v385h-259v93h259v771h-259v93h259v386z" />
    <glyph glyph-name="periodcentered" unicode="&#x2219;" horiz-adv-x="469" 
d="M232 781q35 0 55.5 -33t20.5 -80q0 -115 -76 -115q-71 0 -71 111q0 57 21 87t50 30z" />
    <glyph glyph-name="quotesinglbase" unicode="&#x201a;" horiz-adv-x="427" 
d="M216 -263h-69q60 128 69 244q-38 19 -57 47.5t-19 67.5q0 65 29.5 105t69.5 40t64.5 -43t24.5 -107q0 -81 -28 -169.5t-84 -184.5z" />
    <glyph glyph-name="quotedblbase" unicode="&#x201e;" horiz-adv-x="747" 
d="M216 -260h-69q60 128 69 243q-76 38 -76 116q0 65 29.5 104.5t69.5 39.5t64.5 -43.5t24.5 -105.5q0 -158 -112 -354zM536 -260h-69q60 126 69 240q-76 38 -76 116q0 64 28.5 104t70.5 40q40 0 64.5 -43t24.5 -105q0 -157 -112 -352z" />
    <glyph glyph-name="perthousand" unicode="&#x2030;" horiz-adv-x="2155" 
d="M1037 1494h115l-684 -1588h-113l565 1319q-86 -45 -156 -45q-69 0 -147 45q29 -76 29 -181q0 -160 -69 -264t-206 -104q-128 0 -200 103.5t-72 264.5q0 179 74 276.5t197 97.5q69 0 174 -61q127 -72 218 -72q194 0 275 209zM382 1314q-71 0 -114 -67.5t-43 -202.5
q0 -126 41.5 -194t107.5 -68q69 0 108.5 71.5t39.5 200.5q0 128 -38 194t-102 66zM1768 719q142 0 215 -102t73 -263q0 -166 -68 -271t-208 -105q-131 0 -204 102.5t-73 260.5q0 187 78.5 282.5t186.5 95.5zM1783 615q-76 0 -114 -69t-38 -207q0 -117 39 -185.5t109 -68.5
q69 0 108.5 71.5t39.5 195.5q0 131 -43.5 197t-100.5 66zM1121 719q145 0 216.5 -103.5t71.5 -261.5q0 -166 -68 -271t-208 -105q-131 0 -204 102.5t-73 260.5q0 187 78.5 282.5t186.5 95.5zM1137 615q-76 0 -114 -69t-38 -207q0 -117 38.5 -185.5t108.5 -68.5
q69 0 108.5 71.5t39.5 195.5q0 129 -42.5 196t-100.5 67z" />
    <glyph glyph-name="Acircumflex" unicode="&#xc2;" horiz-adv-x="896" 
d="M378 1395h134l389 -1395h-152l-118 482h-371l-117 -482h-149zM443 1225l-155 -630h313zM371 1785h192l148 -293h-86l-159 222l-161 -222h-81z" />
    <glyph glyph-name="Ecircumflex" unicode="&#xca;" horiz-adv-x="896" 
d="M130 1395h677v-118h-542v-491h512v-116h-512v-554h542v-116h-677v1395zM376 1785h192l148 -293h-86l-159 222l-161 -222h-81z" />
    <glyph glyph-name="Aacute" unicode="&#xc1;" horiz-adv-x="896" 
d="M378 1395h134l389 -1395h-152l-118 482h-371l-117 -482h-149zM443 1225l-155 -630h313zM514 1785h149l-215 -293h-84z" />
    <glyph glyph-name="Edieresis" unicode="&#xcb;" horiz-adv-x="896" 
d="M130 1395h677v-118h-542v-491h512v-116h-512v-554h542v-116h-677v1395zM322 1765q74 0 74 -126q0 -127 -75 -127q-72 0 -72 123q0 130 73 130zM620 1763q75 0 75 -124q0 -128 -73 -128q-76 0 -76 128q0 124 74 124z" />
    <glyph glyph-name="Egrave" unicode="&#xc8;" horiz-adv-x="896" 
d="M130 1395h677v-118h-542v-491h512v-116h-512v-554h542v-116h-677v1395zM286 1786h147l150 -293h-83z" />
    <glyph glyph-name="Iacute" unicode="&#xcd;" horiz-adv-x="405" 
d="M133 1395h136v-1395h-136v1395zM261 1785h149l-215 -293h-84z" />
    <glyph glyph-name="Icircumflex" unicode="&#xce;" horiz-adv-x="405" 
d="M133 1395h136v-1395h-136v1395zM106 1785h192l148 -293h-86l-159 222l-161 -222h-81z" />
    <glyph glyph-name="Idieresis" unicode="&#xcf;" horiz-adv-x="405" 
d="M133 1395h136v-1395h-136v1395zM53 1765q74 0 74 -126q0 -127 -75 -127q-72 0 -72 123q0 130 73 130zM351 1763q75 0 75 -124q0 -128 -73 -128q-76 0 -76 128q0 124 74 124z" />
    <glyph glyph-name="Igrave" unicode="&#xcc;" horiz-adv-x="405" 
d="M133 1395h136v-1395h-136v1395zM22 1786h147l150 -293h-83z" />
    <glyph glyph-name="Oacute" unicode="&#xd3;" horiz-adv-x="1045" 
d="M528 1418q202 0 327 -195t125 -548q0 -317 -129 -507t-328 -190q-203 0 -330 187.5t-127 519.5q0 338 123 535.5t339 197.5zM534 1294q-168 0 -247.5 -170.5t-79.5 -446.5q0 -261 83 -416.5t230 -155.5q149 0 233 160t84 435q0 299 -88.5 446.5t-214.5 147.5zM580 1785
h149l-215 -293h-84z" />
    <glyph glyph-name="Ocircumflex" unicode="&#xd4;" horiz-adv-x="1045" 
d="M528 1418q202 0 327 -195t125 -548q0 -317 -129 -507t-328 -190q-203 0 -330 187.5t-127 519.5q0 338 123 535.5t339 197.5zM534 1294q-168 0 -247.5 -170.5t-79.5 -446.5q0 -261 83 -416.5t230 -155.5q149 0 233 160t84 435q0 299 -88.5 446.5t-214.5 147.5zM425 1785
h192l148 -293h-86l-159 222l-161 -222h-81z" />
    <glyph glyph-name="Ograve" unicode="&#xd2;" horiz-adv-x="1045" 
d="M528 1418q202 0 327 -195t125 -548q0 -317 -129 -507t-328 -190q-203 0 -330 187.5t-127 519.5q0 338 123 535.5t339 197.5zM534 1294q-168 0 -247.5 -170.5t-79.5 -446.5q0 -261 83 -416.5t230 -155.5q149 0 233 160t84 435q0 299 -88.5 446.5t-214.5 147.5zM328 1786
h147l150 -293h-83z" />
    <glyph glyph-name="Uacute" unicode="&#xda;" horiz-adv-x="960" 
d="M108 1395h135v-1004q0 -135 63.5 -214t177.5 -79q109 0 174.5 76t65.5 217v1004h137v-1004q0 -189 -103.5 -301t-275.5 -112q-175 0 -274.5 120.5t-99.5 321.5v975zM538 1785h149l-215 -293h-84z" />
    <glyph glyph-name="Ucircumflex" unicode="&#xdb;" horiz-adv-x="960" 
d="M108 1395h135v-1004q0 -135 63.5 -214t177.5 -79q109 0 174.5 76t65.5 217v1004h137v-1004q0 -189 -103.5 -301t-275.5 -112q-175 0 -274.5 120.5t-99.5 321.5v975zM383 1785h192l148 -293h-86l-159 222l-161 -222h-81z" />
    <glyph glyph-name="Ugrave" unicode="&#xd9;" horiz-adv-x="960" 
d="M108 1395h135v-1004q0 -135 63.5 -214t177.5 -79q109 0 174.5 76t65.5 217v1004h137v-1004q0 -189 -103.5 -301t-275.5 -112q-175 0 -274.5 120.5t-99.5 321.5v975zM293 1786h147l150 -293h-83z" />
    <glyph glyph-name="dotlessi" unicode="&#x131;" horiz-adv-x="341" 
d="M110 953h125v-953h-125v953z" />
    <glyph glyph-name="circumflex" unicode="&#x2c6;" horiz-adv-x="683" 
d="M245 1383h192l148 -293h-86l-159 222l-161 -222h-81z" />
    <glyph glyph-name="tilde" unicode="&#x2dc;" horiz-adv-x="683" 
d="M76 1135q5 217 158 217q74 0 140 -76q45 -52 79 -52q60 0 60 118h95q0 -221 -154 -221q-70 0 -144 79q-48 51 -78 51q-61 0 -61 -116h-95z" />
    <glyph glyph-name="macron" unicode="&#x2c9;" horiz-adv-x="683" 
d="M95 1288h494v-103h-494v103z" />
    <glyph glyph-name="breve" unicode="&#x2d8;" horiz-adv-x="683" 
d="M65 1363h97q33 -155 181 -155q64 0 115.5 39.5t61.5 115.5h98q-15 -119 -93 -185t-181 -66q-102 0 -180.5 62.5t-98.5 188.5z" />
    <glyph glyph-name="dotaccent" unicode="&#x2d9;" horiz-adv-x="683" 
d="M341 1363q74 0 74 -126q0 -127 -75 -127q-72 0 -72 123q0 130 73 130z" />
    <glyph glyph-name="ring" unicode="&#x2da;" horiz-adv-x="683" 
d="M342 1383q59 0 103.5 -42.5t44.5 -105.5q0 -62 -43.5 -105.5t-104.5 -43.5q-62 0 -105.5 43.5t-43.5 105.5q0 61 43.5 104.5t105.5 43.5zM342 1311q-32 0 -54 -22t-22 -53t22 -53t54 -22q31 0 53 22t22 53t-22 53t-53 22z" />
    <glyph glyph-name="cedilla" unicode="&#xb8;" horiz-adv-x="683" 
d="M489 42v-165h49q74 0 123.5 -45t49.5 -110q0 -79 -67.5 -133t-165.5 -54q-73 0 -147 26v106q73 -40 136 -40q53 0 91 23.5t38 59.5q0 34 -30.5 52t-65.5 18h-111v262h100z" />
    <glyph glyph-name="hungarumlaut" unicode="&#x2dd;" horiz-adv-x="683" 
d="M315 1383h149l-215 -293h-84zM538 1383h149l-215 -293h-84z" />
    <glyph glyph-name="ogonek" unicode="&#x2db;" horiz-adv-x="683" 
d="M246 21h92q-33 -103 -33 -168q0 -69 40 -112t108 -43q62 0 152 35v-84q-109 -53 -206 -53q-92 0 -143 62.5t-51 153.5q0 75 41 209z" />
    <glyph glyph-name="caron" unicode="&#x2c7;" horiz-adv-x="683" 
d="M99 1385h80l160 -223l161 223h84l-151 -294h-189z" />
    <glyph glyph-name="Scaron" unicode="&#x160;" horiz-adv-x="853" 
d="M60 268q107 -87 173.5 -119.5t135.5 -32.5q109 0 194.5 78t85.5 203q0 94 -56 157q-57 62 -217 122q-317 120 -317 364q0 157 112.5 267.5t269.5 110.5q129 0 266 -96v-181q-87 81 -143.5 111t-119.5 30q-105 0 -174.5 -72t-69.5 -167q0 -96 62.5 -151.5t226.5 -122.5
q99 -40 159.5 -81t101 -116t40.5 -171q0 -179 -124 -301t-294 -122q-148 0 -312 115v175zM184 1787h80l160 -223l161 223h84l-151 -294h-189z" />
    <glyph glyph-name="scaron" unicode="&#x161;" horiz-adv-x="747" 
d="M69 208q140 -114 267 -114q98 0 162 49.5t64 125.5q0 55 -42.5 92t-164.5 73q-150 45 -219 103t-69 161q0 118 93 197.5t230 79.5q110 0 250 -78v-142q-119 104 -244 104q-86 0 -141.5 -46t-55.5 -111q0 -55 50 -90q49 -36 163 -68q280 -78 280 -266
q0 -127 -102.5 -213.5t-248.5 -86.5q-135 0 -272 87v143zM143 1385h80l160 -223l161 223h84l-151 -294h-189z" />
    <glyph glyph-name="brokenbar" unicode="&#xa6;" horiz-adv-x="1045" 
d="M468 1418h109v-718h-109v718zM468 255h109v-721h-109v721z" />
    <glyph glyph-name="Eth" unicode="&#xd0;" horiz-adv-x="1003" 
d="M125 1395h322q245 0 365 -182t120 -528q0 -317 -126 -501t-359 -184h-322v637h-136v120h136v638zM262 1274v-517h264v-120h-264v-517h185q183 0 263 153t80 457q0 265 -83.5 404.5t-259.5 139.5h-185z" />
    <glyph glyph-name="eth" unicode="&#xf0;" horiz-adv-x="896" 
d="M378 1395h140q32 -31 56 -73l164 73l46 -92l-155 -72q198 -335 198 -663q0 -239 -107 -414.5t-282 -175.5q-168 0 -266.5 142.5t-98.5 356.5q0 224 103 361t257 137q67 0 123 -30t101 -91q-42 160 -139 325l-201 -95l-43 95l190 89q-33 59 -86 127zM454 859
q-127 0 -190.5 -105.5t-63.5 -288.5q0 -157 64.5 -265.5t175.5 -108.5q103 0 168.5 97.5t65.5 289.5q0 181 -63 281t-157 100z" />
    <glyph glyph-name="Yacute" unicode="&#xdd;" 
d="M8 1395h158l256 -617l245 617h156l-335 -756v-639h-137v639zM482 1785h149l-215 -293h-84z" />
    <glyph glyph-name="yacute" unicode="&#xfd;" horiz-adv-x="725" 
d="M9 953h139l235 -798l205 798h135l-320 -1111q-51 -178 -105 -243t-156 -65q-36 0 -77 22v117q42 -13 69 -13q56 0 90 49.5t78 203.5l21 76zM421 1383h149l-215 -293h-84z" />
    <glyph glyph-name="Thorn" unicode="&#xde;" horiz-adv-x="960" 
d="M278 1080h140q173 0 271 -25t163 -118t65 -240q0 -189 -97.5 -284t-293.5 -95h-248v-318h-136v1395h136v-315zM278 953v-516h248q131 0 190 64t59 196q0 115 -63 185.5t-186 70.5h-248z" />
    <glyph glyph-name="thorn" unicode="&#xfe;" horiz-adv-x="875" 
d="M245 85v-529h-125v1839h125v-582q49 81 108 121.5t128 40.5q150 0 244 -142t94 -345q0 -220 -106 -365t-260 -145q-58 0 -99.5 22.5t-108.5 84.5zM245 203q44 -54 89.5 -81.5t92.5 -27.5q114 0 186.5 108t72.5 282q0 158 -63 266.5t-168 108.5q-95 0 -152.5 -89.5
t-57.5 -209.5v-357z" />
    <glyph glyph-name="multiply" unicode="&#xd7;" horiz-adv-x="1365" 
d="M191 1083l76 76l417 -419l415 419l76 -76l-415 -419l415 -414l-76 -75l-415 413l-417 -413l-76 75l416 414z" />
    <glyph glyph-name="onesuperior" unicode="&#xb9;" horiz-adv-x="640" 
d="M428 1395v-788h-106v544h-132v90h40q41 0 72.5 28t31.5 73v53h94z" />
    <glyph glyph-name="twosuperior" unicode="&#xb2;" horiz-adv-x="640" 
d="M565 708v-103h-458v103q0 98 39.5 158t159.5 156q84 67 108 100t24 68q0 46 -36.5 78.5t-92.5 32.5q-57 0 -150 -59q-11 -8 -15 -10v118q91 52 181 52q100 0 162.5 -55.5t62.5 -147.5q0 -76 -40.5 -126.5t-162.5 -148.5q-130 -103 -130 -184v-32h348z" />
    <glyph glyph-name="threesuperior" unicode="&#xb3;" horiz-adv-x="640" 
d="M125 1356q88 45 168 45q89 0 150 -49t61 -145q0 -65 -31 -104t-99 -77q84 -23 126 -71t42 -121q0 -104 -75 -173t-182 -69q-80 0 -160 42v125q76 -64 153 -64q65 0 108 41.5t43 104.5q0 60 -41 93.5t-111 33.5h-77v95h36q73 0 115 34t42 91q0 49 -32 80.5t-80 31.5
q-80 0 -156 -66v122z" />
    <glyph glyph-name="onehalf" unicode="&#xbd;" horiz-adv-x="1493" 
d="M1241 1395l-835 -1483h-112l823 1483h124zM435 1395v-787h-106v544h-132v90h40q41 0 72.5 28t31.5 73v52h94zM1418 33v-102h-458v102q0 99 39.5 158.5t160.5 156.5q85 68 108 101t23 67q0 45 -36.5 77.5t-92.5 32.5q-57 0 -149 -59q-12 -8 -16 -10v118q91 52 183 52
q100 0 161.5 -56.5t61.5 -146.5q0 -75 -40 -126t-163 -148q-130 -103 -130 -184v-33h348z" />
    <glyph glyph-name="onequarter" unicode="&#xbc;" horiz-adv-x="1493" 
d="M1241 1395l-835 -1483h-112l823 1483h124zM435 1395v-787h-106v544h-132v90h40q41 0 72.5 28t31.5 73v52h94zM935 256l306 462h107v-462h99v-100h-99v-226h-107v226h-306v100zM1241 542l-201 -286h201v286z" />
    <glyph glyph-name="threequarters" unicode="&#xbe;" horiz-adv-x="1493" 
d="M133 1358q88 45 169 45q94 0 152 -52t58 -143q0 -56 -32.5 -101t-97.5 -79q84 -23 126 -71t42 -121q0 -105 -75 -173.5t-182 -68.5q-76 0 -160 41v126q76 -64 153 -64q65 0 108 41.5t43 103.5q0 60 -41 93.5t-111 33.5h-77v95h36q73 0 115 34.5t42 91.5q0 49 -32 80.5
t-80 31.5q-78 0 -156 -67v123zM1241 1395l-835 -1483h-112l823 1483h124zM936 256l305 462h107v-462h100v-100h-100v-226h-107v226h-305v100zM1241 542l-201 -286h201v286z" />
    <glyph glyph-name="sfthyphen" unicode="&#xad;" horiz-adv-x="576" 
d="M67 550h443v-125h-443v125z" />
    <glyph glyph-name="macron" unicode="&#xaf;" horiz-adv-x="1024" 
d="M-12 1651h1048v-102h-1048v102z" />
    </font>
</defs>
</svg>
