<?xml version="1.0" standalone="no"?>
<!DOCTYPE svg PUBLIC "-//W3C//DTD SVG 1.1//EN" "http://www.w3.org/Graphics/SVG/1.1/DTD/svg11.dtd" >
<svg xmlns="http://www.w3.org/2000/svg" xmlns:xlink="http://www.w3.org/1999/xlink" version="1.1">
<metadata>
Created by FontForge 20150824 at Sun Feb  7 23:26:05 2016
 By Everything Fonts
Typeface (c) The Monotype Corporation plc. Data (c) The Monotype Corporation plc, Type Solutions Inc 1990-1992. All rights reserved.
</metadata>
<defs>
<font id="AbadiMT-CondensedBold" horiz-adv-x="683" >
  <font-face 
    font-family="Abadi MT Condensed"
    font-weight="700"
    font-stretch="condensed"
    units-per-em="2048"
    panose-1="2 11 8 6 3 1 1 1 1 3"
    ascent="1638"
    descent="-410"
    x-height="953"
    cap-height="1395"
    bbox="-368 -511 2207 1869"
    underline-thickness="102"
    underline-position="-256"
    unicode-range="U+0020-F004"
  />
<missing-glyph horiz-adv-x="1536" 
d="M256 0v1280h1024v-1280h-1024zM288 32h960v1216h-960v-1216z" />
    <glyph glyph-name=".notdef" horiz-adv-x="1536" 
d="M256 0v1280h1024v-1280h-1024zM288 32h960v1216h-960v-1216z" />
    <glyph glyph-name="glyph1" horiz-adv-x="0" 
 />
    <glyph glyph-name="glyph2" horiz-adv-x="501" 
 />
    <glyph glyph-name="space" unicode=" " horiz-adv-x="501" 
 />
    <glyph glyph-name="exclam" unicode="!" horiz-adv-x="533" 
d="M135 1395h275l-30 -1012h-223zM260 277q70 0 112.5 -44.5t42.5 -104.5q0 -63 -43.5 -106.5t-104.5 -43.5t-104.5 44t-43.5 105q0 64 44.5 107t96.5 43z" />
    <glyph glyph-name="quotedbl" unicode="&#x22;" horiz-adv-x="725" 
d="M144 877l-50 279v239h205v-239l-45 -279h-110zM475 877l-49 279v239h205v-239l-48 -279h-108z" />
    <glyph glyph-name="numbersign" unicode="#" horiz-adv-x="1365" 
d="M81 1001h315l84 391h165l-85 -391h379l83 391h166l-84 -391h180v-165h-212l-68 -327h280v-166h-312l-83 -388h-166l84 388h-382l-80 -388h-166l82 388h-180v166h214l68 327h-282v165zM528 836l-68 -326h380l68 326h-380z" />
    <glyph glyph-name="dollar" unicode="$" horiz-adv-x="917" 
d="M391 1483h121v-132q159 -12 285 -85v-273q-130 134 -285 141v-349q360 -91 360 -366q0 -84 -34.5 -165.5t-114 -149.5t-211.5 -104v-148h-121v131q-195 2 -343 98v279q97 -88 168.5 -121.5t174.5 -35.5v404q-342 90 -342 363q0 104 50 189t119 125.5t173 66.5v132z
M391 1102q-84 -56 -84 -140q0 -85 84 -133v273zM512 569v-328q101 60 101 172q0 97 -101 156z" />
    <glyph glyph-name="percent" unicode="%" horiz-adv-x="1579" 
d="M1198 1486l-672 -1582h-158l548 1294q-79 -49 -139 -49q-71 0 -143 40q23 -90 23 -161q0 -156 -82.5 -255t-218.5 -99q-146 0 -225 105.5t-79 263.5q0 149 76.5 256t229.5 107q81 0 196 -63q121 -65 203 -65q188 0 286 208h155zM359 1264q-60 0 -90 -54.5t-30 -163.5
q0 -106 31 -166t85 -60q55 0 86 60t31 165t-32.5 162t-80.5 57zM1208 719q155 0 236.5 -99.5t81.5 -263.5t-83 -271t-229 -107q-144 0 -222.5 105t-78.5 264q0 174 87 273t208 99zM1221 573q-57 0 -88 -60t-31 -158q0 -103 31 -165.5t83 -62.5q56 0 88 63t32 170
q0 104 -33.5 158.5t-81.5 54.5z" />
    <glyph glyph-name="ampersand" unicode="&#x26;" horiz-adv-x="1067" 
d="M335 846q-64 146 -64 252q0 142 91.5 231t234.5 89q94 0 180 -40v-223q-75 50 -131 50q-52 0 -88 -35.5t-36 -81.5q0 -48 35 -120l220 -446q23 112 23 223v46h230v-34q0 -281 -131 -487l131 -270h-281l-41 80q-121 -102 -256 -102q-196 0 -293.5 130t-97.5 296
q0 130 60.5 230t213.5 212zM415 685q-100 -119 -100 -238q0 -99 58.5 -167.5t141.5 -68.5q67 0 110 43z" />
    <glyph glyph-name="quotesingle" unicode="'" horiz-adv-x="384" 
d="M136 877l-46 273v245h205v-245l-48 -273h-111z" />
    <glyph glyph-name="parenleft" unicode="(" 
d="M613 1395q-222 -344 -222 -923q0 -234 29.5 -407.5t73.5 -279.5t119 -229h-203q-240 405 -240 901q0 544 240 938h203z" />
    <glyph glyph-name="parenright" unicode=")" 
d="M69 1395h204q239 -394 239 -938q0 -496 -239 -901h-204q223 333 223 916q0 241 -31.5 415.5t-75 280.5t-116.5 227z" />
    <glyph glyph-name="asterisk" unicode="*" horiz-adv-x="853" 
d="M359 1395h133v-248l233 75l43 -124l-237 -74l146 -197l-108 -78l-146 193l-147 -193l-107 78l147 197l-231 74l40 124l234 -75v248z" />
    <glyph glyph-name="plus" unicode="+" horiz-adv-x="1365" 
d="M130 757h459v460h185v-460h461v-185h-461v-458h-185v458h-459v185z" />
    <glyph glyph-name="comma" unicode="," horiz-adv-x="555" 
d="M145 -424q99 221 105 361q-120 51 -120 170q0 74 45.5 122.5t111.5 48.5q75 0 119 -57t44 -135q0 -191 -200 -510h-105z" />
    <glyph glyph-name="hyphen" unicode="-" horiz-adv-x="725" 
d="M669 614v-262h-614v262h614z" />
    <glyph glyph-name="hyphen" unicode="&#xad;" horiz-adv-x="725" 
d="M669 614v-262h-614v262h614z" />
    <glyph glyph-name="period" unicode="." horiz-adv-x="555" 
d="M271 294q72 0 116.5 -47t44.5 -111q0 -66 -45 -112t-109 -46q-65 0 -110 46.5t-45 111.5q0 67 46.5 112.5t101.5 45.5z" />
    <glyph glyph-name="slash" unicode="/" horiz-adv-x="704" 
d="M497 1427h178l-470 -1581h-175z" />
    <glyph glyph-name="zero" unicode="0" horiz-adv-x="1003" 
d="M484 1354q240 0 356 -193t116 -483q0 -330 -124.5 -515t-335.5 -185q-215 0 -332.5 191.5t-117.5 493.5q0 195 53.5 360.5t160.5 248t224 82.5zM507 1152q-100 0 -152.5 -132.5t-52.5 -356.5q0 -227 51 -354.5t144 -127.5q96 0 149 129t53 359q0 236 -53 359.5
t-139 123.5z" />
    <glyph glyph-name="one" unicode="1" horiz-adv-x="1003" 
d="M463 1332h214v-1332h-242v890h-217v189h66q77 0 128 48t51 134v71z" />
    <glyph glyph-name="two" unicode="2" horiz-adv-x="1003" 
d="M902 225v-225h-792v179q0 189 66.5 295.5t260.5 263.5q113 92 150.5 141.5t37.5 100.5q0 62 -50.5 106t-129.5 44q-111 0 -268 -112v250q166 86 325 86q168 0 275 -102t107 -264q0 -120 -59.5 -204.5t-237.5 -234.5q-153 -129 -187.5 -188t-36.5 -136h539z" />
    <glyph glyph-name="three" unicode="3" horiz-adv-x="1003" 
d="M159 1268q157 86 310 86q167 0 273.5 -92t106.5 -238q0 -100 -57 -177.5t-171 -132.5q144 -30 216 -111t72 -213q0 -178 -127.5 -295t-323.5 -117q-148 0 -299 77v268q154 -115 266 -115q94 0 158.5 60t64.5 149q0 83 -60.5 131t-166.5 48h-135v208h102q91 0 146 46.5
t55 117.5q0 68 -51 114t-117 46q-112 0 -262 -116v256z" />
    <glyph glyph-name="four" unicode="4" horiz-adv-x="1003" 
d="M549 1332h253v-751h168v-200h-168v-381h-253v381h-489v207zM549 981l-267 -400h267v400z" />
    <glyph glyph-name="five" unicode="5" horiz-adv-x="1003" 
d="M158 1332h659v-221h-406v-306q45 30 85.5 45t76.5 15q145 0 235.5 -119t90.5 -289q0 -207 -129.5 -343t-331.5 -136q-138 0 -280 76v257q136 -110 260 -110q102 0 161.5 72.5t59.5 174.5q0 83 -41.5 146t-117.5 63q-32 0 -60.5 -17t-53.5 -51h-208v743z" />
    <glyph glyph-name="six" unicode="6" horiz-adv-x="1003" 
d="M338 693q106 154 250 154q143 0 243 -122t100 -298q0 -190 -116 -319.5t-288 -129.5q-137 0 -232 79t-152.5 225t-57.5 347q0 188 51.5 357.5t172.5 268.5t281 99q114 0 258 -62v-265q-110 101 -232 101q-121 0 -198 -105t-80 -330zM352 420q56 -216 168 -216
q64 0 108 60t44 151q0 85 -38.5 142.5t-95.5 57.5q-113 0 -186 -195z" />
    <glyph glyph-name="seven" unicode="7" horiz-adv-x="1003" 
d="M113 1332h804v-222l-452 -1110h-272l462 1110h-542v222z" />
    <glyph glyph-name="eight" unicode="8" horiz-adv-x="1003" 
d="M327 669q-110 78 -157.5 154t-47.5 174q0 159 111 258t283 99q161 0 263.5 -87t102.5 -220q0 -174 -213 -301q157 -74 216.5 -159t59.5 -203q0 -196 -134 -301t-317 -105q-190 0 -313 104t-123 254q0 105 64 190.5t205 142.5zM510 807q119 83 119 187q0 58 -33.5 98
t-87.5 40t-92 -38.5t-38 -103.5q0 -115 132 -183zM493 599q-98 -59 -140 -108.5t-42 -117.5q0 -75 51 -123.5t129 -48.5q82 0 139.5 51.5t57.5 133.5q0 143 -195 213z" />
    <glyph glyph-name="nine" unicode="9" horiz-adv-x="1003" 
d="M672 636q-108 -147 -247 -147q-146 0 -244.5 120.5t-98.5 294.5q0 189 114 319.5t284 130.5q139 0 245.5 -90.5t155.5 -246t49 -343.5q0 -184 -59 -345t-177.5 -256t-271.5 -95q-111 0 -256 62v262q110 -97 226 -97q88 0 154.5 58.5t94.5 145.5t31 227zM658 911
q-46 220 -168 220q-67 0 -109.5 -63t-42.5 -150q0 -80 37 -139t99 -59q109 0 184 191z" />
    <glyph glyph-name="colon" unicode=":" horiz-adv-x="555" 
d="M278 975q62 0 108 -45t46 -110t-45.5 -110.5t-108.5 -45.5q-64 0 -109.5 45.5t-45.5 108.5q0 70 50 113.5t105 43.5zM271 294q72 0 116.5 -47t44.5 -111q0 -66 -45 -112t-109 -46q-65 0 -110 46.5t-45 111.5q0 67 46.5 112.5t101.5 45.5z" />
    <glyph glyph-name="semicolon" unicode=";" horiz-adv-x="555" 
d="M287 970q69 0 113.5 -46.5t44.5 -108.5q0 -64 -45.5 -109t-109.5 -45t-109.5 45.5t-45.5 108.5q0 66 46.5 110.5t105.5 44.5zM145 -424q99 221 105 361q-120 51 -120 170q0 74 45.5 122.5t111.5 48.5q75 0 119 -57t44 -135q0 -191 -200 -510h-105z" />
    <glyph glyph-name="less" unicode="&#x3c;" horiz-adv-x="1365" 
d="M1234 121l-1103 461v167l1103 462v-200l-852 -345l852 -345v-200z" />
    <glyph glyph-name="equal" unicode="=" horiz-adv-x="1365" 
d="M131 996h1103v-185h-1103v185zM131 521h1103v-185h-1103v185z" />
    <glyph glyph-name="greater" unicode="&#x3e;" horiz-adv-x="1365" 
d="M131 1211l1103 -461v-167l-1103 -462v200l852 344l-852 345v201z" />
    <glyph glyph-name="question" unicode="?" horiz-adv-x="917" 
d="M95 1325q195 93 350 93q180 0 306.5 -93.5t126.5 -269.5q0 -99 -43.5 -166.5t-157.5 -166.5q-94 -82 -126.5 -135.5t-32.5 -139.5v-64h-251v77q0 135 51 219.5t190 209.5q70 63 90 95t20 69q0 66 -59.5 105.5t-142.5 39.5q-143 0 -321 -125v252zM385 276q69 0 111 -44.5
t42 -104.5q0 -62 -43.5 -105.5t-103.5 -43.5q-62 0 -104.5 44t-42.5 105q0 63 44 106t97 43z" />
    <glyph glyph-name="at" unicode="@" horiz-adv-x="1707" 
d="M1254 1072l-127 -792q-4 -25 -4 -35q0 -38 37 -38q100 0 203 139t103 353q0 254 -153.5 411.5t-402.5 157.5q-197 0 -357.5 -99.5t-234 -270.5t-73.5 -361q0 -321 183.5 -510t467.5 -189q136 0 262.5 47t242.5 141h210q-130 -166 -322.5 -251t-391.5 -85
q-241 0 -417.5 109.5t-279.5 290t-103 438.5q0 374 214 632t595 258q335 0 521.5 -208t186.5 -511q0 -300 -169 -480t-345 -180q-50 0 -93.5 22t-63.5 94q-68 -66 -117.5 -92t-118.5 -26q-149 0 -239 116.5t-90 310.5q0 249 125.5 444t305.5 195q69 0 127 -36t104 -109
l16 114h198zM586 406q0 -93 40 -158t107 -65q65 0 114.5 51t91.5 209.5t42 302.5q0 86 -36.5 143.5t-104.5 57.5q-76 0 -133.5 -71.5t-89 -214.5t-31.5 -255z" />
    <glyph glyph-name="A" unicode="A" horiz-adv-x="1045" 
d="M383 1395h263l384 -1395h-295l-69 340h-304l-74 -340h-272zM510 1051l-102 -493h211z" />
    <glyph glyph-name="B" unicode="B" horiz-adv-x="1045" 
d="M122 1395h408q166 0 275 -80.5t109 -245.5q0 -110 -55 -189.5t-178 -133.5q163 -19 244.5 -104.5t81.5 -236.5q0 -185 -125 -295t-324 -110h-436v1395zM382 1161v-324h86q89 0 135.5 49t46.5 125q0 69 -39 109.5t-101 40.5h-128zM382 619v-388h148q98 0 154 55.5
t56 142.5q0 88 -55.5 139t-154.5 51h-148z" />
    <glyph glyph-name="C" unicode="C" horiz-adv-x="832" 
d="M784 46q-123 -68 -235 -68q-238 0 -365 201t-127 511q0 336 139.5 532t358.5 196q109 0 229 -66v-267q-94 100 -191 100q-126 0 -198.5 -128t-72.5 -376q0 -126 32 -238.5t96.5 -171.5t137.5 -59q97 0 196 98v-264z" />
    <glyph glyph-name="D" unicode="D" horiz-adv-x="1067" 
d="M122 1395h380q170 0 290 -88t168.5 -255t48.5 -348q0 -319 -142 -511.5t-404 -192.5h-341v1395zM382 1163v-931h74q99 0 163 54.5t93 163.5t29 258q0 228 -64 341.5t-192 113.5h-103z" />
    <glyph glyph-name="E" unicode="E" horiz-adv-x="981" 
d="M122 1395h781v-230h-520v-325h487v-218h-487v-391h520v-231h-781v1395z" />
    <glyph glyph-name="F" unicode="F" horiz-adv-x="939" 
d="M122 1395h761v-232h-501v-354h469v-222h-469v-587h-260v1395z" />
    <glyph glyph-name="G" unicode="G" horiz-adv-x="981" 
d="M691 113q-45 -67 -97.5 -101t-111.5 -34q-180 0 -306.5 207.5t-126.5 498.5q0 347 152.5 540.5t383.5 193.5q146 0 279 -80v-261q-129 110 -238 110q-142 0 -228.5 -127.5t-86.5 -376.5q0 -193 62.5 -327.5t146.5 -134.5q49 0 85.5 48.5t36.5 115.5v145h-167v224h419
v-754h-128z" />
    <glyph glyph-name="H" unicode="H" horiz-adv-x="1109" 
d="M122 1395h261v-557h340v557h264v-1395h-264v622h-340v-622h-261v1395z" />
    <glyph glyph-name="I" unicode="I" horiz-adv-x="512" 
d="M125 1395h262v-1395h-262v1395z" />
    <glyph glyph-name="J" unicode="J" horiz-adv-x="576" 
d="M193 1395h261v-1102q0 -157 -68 -236t-204 -79q-77 0 -152 33v231q36 -29 77 -29q43 0 64.5 28.5t21.5 85.5v1068z" />
    <glyph glyph-name="K" unicode="K" horiz-adv-x="1003" 
d="M122 1395h261v-520l303 520h284l-313 -494l351 -901h-294l-222 639l-109 -173v-466h-261v1395z" />
    <glyph glyph-name="L" unicode="L" horiz-adv-x="896" 
d="M122 1395h257v-1165h499v-230h-756v1395z" />
    <glyph glyph-name="M" unicode="M" horiz-adv-x="1280" 
d="M865 1395h291v-1395h-246v657q0 30 2 106q5 162 5 256q-5 -21 -31 -95l-83 -236l-163 -433l-162 433q-82 219 -114 331q3 -181 7 -362v-657h-246v1395h291l224 -589z" />
    <glyph glyph-name="N" unicode="N" horiz-adv-x="1109" 
d="M744 1395h247v-1395h-264l-242 602q-54 135 -129 351l9 -385q1 -19 1 -45v-523h-247v1395h264l242 -602q54 -135 128 -351l-9 431v522z" />
    <glyph glyph-name="O" unicode="O" horiz-adv-x="1109" 
d="M533 1418q263 0 395.5 -198t132.5 -515q0 -207 -59 -376t-176.5 -260t-277.5 -91q-168 0 -282.5 96t-165.5 264t-51 371q0 321 136 515t348 194zM564 1192q-124 0 -188.5 -133.5t-64.5 -361.5q0 -233 65 -361.5t178 -128.5q112 0 176 133.5t64 361.5q0 234 -66 362
t-164 128z" />
    <glyph glyph-name="P" unicode="P" horiz-adv-x="1024" 
d="M122 1395h457q190 0 294.5 -99.5t104.5 -284.5q0 -204 -123 -314t-342 -110h-129v-587h-262v1395zM384 1165v-357h113q94 0 153 50.5t59 140.5q0 83 -47.5 124.5t-142.5 41.5h-135z" />
    <glyph glyph-name="Q" unicode="Q" horiz-adv-x="1109" 
d="M742 14q57 -101 155 -101q60 0 119 36v-213q-80 -30 -155 -30q-121 0 -191 62t-132 209q-236 5 -362.5 201t-126.5 523q0 192 56.5 358.5t172.5 262.5t275 96q233 0 370 -192.5t137 -536.5q0 -253 -79.5 -421.5t-238.5 -253.5zM564 1186q-109 0 -181 -116.5t-72 -376.5
q0 -234 64.5 -362.5t178.5 -128.5q111 0 175.5 132.5t64.5 363.5q0 237 -66.5 362.5t-163.5 125.5z" />
    <glyph glyph-name="R" unicode="R" horiz-adv-x="1003" 
d="M122 1395h385q219 0 328 -83.5t109 -251.5q0 -146 -72 -233.5t-238 -138.5q104 -20 156 -86t86 -207l98 -395h-284l-71 363q-24 120 -68.5 171t-135.5 51h-32v-585h-261v1395zM383 1160v-354h100q82 0 139.5 54.5t57.5 139.5q0 69 -43.5 114.5t-113.5 45.5h-140z" />
    <glyph glyph-name="S" unicode="S" horiz-adv-x="917" 
d="M80 368q168 -155 302 -155q100 0 160.5 62t60.5 142q0 54 -35 105t-166 101q-193 75 -257 171q-65 96 -65 212q0 180 120.5 296t302.5 116q135 0 289 -88v-277q-141 132 -266 132q-75 0 -128 -48.5t-53 -118.5q0 -68 47 -111q47 -44 153 -83q107 -39 173.5 -82.5
t109.5 -125t43 -186.5q0 -193 -134.5 -322.5t-333.5 -129.5q-153 0 -323 99v291z" />
    <glyph glyph-name="T" unicode="T" horiz-adv-x="917" 
d="M27 1395h864v-233h-306v-1162h-259v1162h-299v233z" />
    <glyph glyph-name="U" unicode="U" horiz-adv-x="1067" 
d="M106 1395h262v-978q0 -109 40 -163.5t120 -54.5q76 0 122.5 62.5t46.5 185.5v948h264v-934q0 -219 -111.5 -351t-324.5 -132q-98 0 -192.5 36.5t-160.5 141.5t-66 261v978z" />
    <glyph glyph-name="V" unicode="V" horiz-adv-x="981" 
d="M699 1395h277l-354 -1395h-265l-352 1395h285l205 -1032z" />
    <glyph glyph-name="W" unicode="W" horiz-adv-x="1323" 
d="M1037 1395h265l-256 -1395h-261l-125 1092l-121 -1092h-255l-264 1395h264l139 -1018l107 1018h255l128 -1018z" />
    <glyph glyph-name="X" unicode="X" horiz-adv-x="981" 
d="M81 1395h285l124 -442l126 442h286l-232 -623l292 -772h-292l-180 612l-186 -612h-284l294 772z" />
    <glyph glyph-name="Y" unicode="Y" horiz-adv-x="960" 
d="M13 1395h298l165 -483l167 483h305l-341 -760v-635h-263v635z" />
    <glyph glyph-name="Z" unicode="Z" horiz-adv-x="1024" 
d="M153 1395h767v-231l-524 -932h568v-232h-865v232l517 932h-463v231z" />
    <glyph glyph-name="bracketleft" unicode="[" horiz-adv-x="704" 
d="M234 1395h392v-154h-202v-1524h202v-161h-392v1839z" />
    <glyph glyph-name="backslash" unicode="\" horiz-adv-x="704" 
d="M12 1427h178l503 -1581h-175z" />
    <glyph glyph-name="bracketright" unicode="]" horiz-adv-x="704" 
d="M470 -444h-392v154h202v1524h-202v161h392v-1839z" />
    <glyph glyph-name="asciicircum" unicode="^" horiz-adv-x="960" 
d="M239 594h-185l353 801h145l355 -801h-181l-247 598z" />
    <glyph glyph-name="underscore" unicode="_" horiz-adv-x="1024" 
d="M-12 -154h1048v-102h-1048v102z" />
    <glyph glyph-name="grave" unicode="`" 
d="M99 1388h233l151 -294h-170z" />
    <glyph glyph-name="a" unicode="a" horiz-adv-x="917" 
d="M164 895q148 80 289 80q164 0 259 -92t95 -241v-325q0 -211 62 -317h-274q-22 36 -31 86q-42 -54 -94 -81t-115 -27q-126 0 -206.5 91.5t-80.5 215.5q0 104 61 180.5t151 107t273 57.5q-11 65 -47 97t-97 32q-108 0 -245 -97v233zM553 451q-130 -22 -181 -53.5t-51 -97.5
q0 -53 33.5 -86.5t78.5 -33.5q51 0 85.5 40t34.5 91v140z" />
    <glyph glyph-name="b" unicode="b" horiz-adv-x="960" 
d="M101 1395h251v-551q45 66 100.5 98.5t120.5 32.5q149 0 238.5 -143t89.5 -343q0 -229 -106 -370t-244 -141q-55 0 -105 24.5t-94 72.5l-61 -75h-190v1395zM352 267q28 -36 59.5 -54t66.5 -18q83 0 126 81t43 202q0 108 -41 183t-106 75q-59 0 -103.5 -61t-44.5 -146v-262
z" />
    <glyph glyph-name="c" unicode="c" horiz-adv-x="725" 
d="M678 40q-113 -62 -212 -62q-169 0 -289 141.5t-120 358.5q0 215 122.5 356t303.5 141q101 0 195 -55v-237q-84 71 -157 71q-89 0 -149.5 -78.5t-60.5 -197.5q0 -114 57 -196.5t146 -82.5q80 0 164 76v-235z" />
    <glyph glyph-name="d" unicode="d" horiz-adv-x="960" 
d="M604 1395h254v-1395h-234l-20 101q-45 -61 -98.5 -92t-115.5 -31q-150 0 -242 146t-92 346q0 219 103 362t253 143q47 0 95 -21.5t97 -64.5v506zM604 691q-29 32 -59.5 47.5t-62.5 15.5q-76 0 -124.5 -81.5t-48.5 -203.5q0 -107 41 -180t108 -73q61 0 103.5 60t42.5 149
v266z" />
    <glyph glyph-name="e" unicode="e" horiz-adv-x="896" 
d="M822 87q-169 -109 -324 -109q-206 0 -323.5 143.5t-117.5 352.5q0 211 118.5 356t310.5 145q172 0 272.5 -123t100.5 -330v-78h-552q6 -115 66 -174.5t147 -59.5q144 0 302 156v-279zM314 613h292q-6 90 -38.5 134.5t-90.5 44.5q-57 0 -102 -48.5t-61 -130.5z" />
    <glyph glyph-name="f" unicode="f" horiz-adv-x="555" 
d="M142 953v167q0 149 67 223.5t201 74.5q71 0 144 -23v-216q-33 21 -75 21t-63 -27.5t-21 -83.5v-136h159v-191h-159v-762h-253v762h-126v191h126z" />
    <glyph glyph-name="g" unicode="g" horiz-adv-x="960" 
d="M608 126q-46 -63 -100 -94.5t-115 -31.5q-134 0 -234.5 138.5t-100.5 341.5q0 197 100 346t256 149q51 0 99.5 -25t94.5 -75l66 78h188v-872q0 -179 -42 -286.5t-153.5 -184t-238.5 -76.5q-139 0 -303 97v286q150 -134 276 -134q93 0 150 62.5t57 164.5v116zM608 684
q-29 36 -60.5 54t-65.5 18q-74 0 -122.5 -78t-48.5 -191q0 -102 41.5 -175.5t109.5 -73.5q64 0 105 68t41 158v220z" />
    <glyph glyph-name="h" unicode="h" horiz-adv-x="939" 
d="M101 1395h249v-540q46 60 102.5 90t123.5 30q119 0 191.5 -86t72.5 -224v-665h-255v620q0 57 -23.5 85.5t-70.5 28.5q-63 0 -102 -56t-39 -146v-532h-249v1395z" />
    <glyph glyph-name="i" unicode="i" horiz-adv-x="469" 
d="M235 1418q59 0 102.5 -42t43.5 -104q0 -61 -43 -103.5t-103 -42.5t-103 42.5t-43 103.5q0 60 43 103t103 43zM108 953h253v-953h-253v953z" />
    <glyph glyph-name="j" unicode="j" horiz-adv-x="469" 
d="M236 1418q59 0 102.5 -42t43.5 -104q0 -61 -43 -103.5t-103 -42.5t-103 42.5t-43 103.5q0 60 43 103t103 43zM113 953h251v-1135q0 -130 -72 -207t-192 -77q-63 0 -143 22v221q32 -20 66 -20q45 0 67.5 27t22.5 80v1089z" />
    <glyph glyph-name="k" unicode="k" horiz-adv-x="853" 
d="M102 1395h251v-759l204 317h269l-233 -317l269 -636h-285l-152 405l-72 -100v-305h-251v1395z" />
    <glyph glyph-name="l" unicode="l" horiz-adv-x="469" 
d="M108 1395h253v-1395h-253v1395z" />
    <glyph glyph-name="m" unicode="m" horiz-adv-x="1344" 
d="M771 833q42 71 98.5 106.5t127.5 35.5q111 0 177 -77t66 -192v-706h-251v594q0 77 -15.5 106t-55.5 29q-61 0 -91.5 -51t-30.5 -153v-525h-250v561q0 102 -13 135t-60 33q-58 0 -90 -52.5t-32 -143.5v-533h-246v953h225l21 -98q41 60 93 90t114 30q132 0 213 -142z" />
    <glyph glyph-name="n" unicode="n" horiz-adv-x="939" 
d="M351 856q47 60 104 89.5t124 29.5q117 0 188.5 -85.5t71.5 -221.5v-668h-252v598q0 69 -23 103t-70 34q-62 0 -102.5 -56t-40.5 -144v-535h-250v953h228z" />
    <glyph glyph-name="o" unicode="o" horiz-adv-x="960" 
d="M481 975q182 0 302 -130t120 -366q0 -219 -114.5 -360t-315.5 -141q-189 0 -302.5 133t-113.5 356q0 173 69.5 296.5t172 167.5t182.5 44zM487 746q-86 0 -131 -75.5t-45 -200.5q0 -113 44.5 -191t120.5 -78q75 0 122 76.5t47 212.5q0 118 -46 187t-112 69z" />
    <glyph glyph-name="p" unicode="p" horiz-adv-x="960" 
d="M350 848q47 64 102 95.5t117 31.5q154 0 243 -140t89 -339q0 -209 -96 -363.5t-259 -154.5q-52 0 -101 22.5t-95 67.5v-512h-249v1397h225zM350 268q32 -34 62.5 -51.5t60.5 -17.5q77 0 124.5 78t47.5 201q0 111 -40.5 185t-109.5 74q-66 0 -105.5 -67.5t-39.5 -162.5
v-239z" />
    <glyph glyph-name="q" unicode="q" horiz-adv-x="960" 
d="M607 95q-53 -58 -107.5 -87.5t-109.5 -29.5q-144 0 -238 138.5t-94 347.5t97 360t248 151q53 0 104 -25.5t100 -76.5l68 80h184v-1397h-252v539zM607 674q-28 40 -59.5 60t-67.5 20q-75 0 -123 -76t-48 -200q0 -112 41.5 -187.5t111.5 -75.5q66 0 105.5 68.5t39.5 157.5
v233z" />
    <glyph glyph-name="r" unicode="r" horiz-adv-x="619" 
d="M352 849q34 63 78 94.5t98 31.5q48 0 92 -22v-234q-53 21 -94 21q-75 0 -124.5 -66t-49.5 -158v-516h-251v953h228z" />
    <glyph glyph-name="s" unicode="s" horiz-adv-x="789" 
d="M57 308q139 -123 271 -123q56 0 95.5 31t39.5 80q0 40 -30 63q-31 23 -119 50q-260 80 -260 268q0 133 107 215.5t259 82.5q135 0 267 -74v-256q-133 121 -254 121q-53 0 -86.5 -24t-33.5 -62q0 -34 30.5 -55t111.5 -45q147 -42 216 -102q68 -61 68 -176
q0 -139 -111.5 -231.5t-277.5 -92.5q-145 0 -293 82v248z" />
    <glyph glyph-name="t" unicode="t" horiz-adv-x="576" 
d="M169 1232h205v-279h160v-194h-160v-448q0 -51 20.5 -77t61.5 -26q39 0 78 21v-218q-74 -33 -162 -33q-123 0 -185 61t-62 182v538h-126v194h139z" />
    <glyph glyph-name="u" unicode="u" horiz-adv-x="939" 
d="M101 953h250v-604q0 -66 24 -99.5t72 -33.5q59 0 99.5 54.5t40.5 161.5v521h250v-953h-232l-18 101q-45 -61 -102 -92t-125 -31q-121 0 -190 90.5t-69 251.5v633z" />
    <glyph glyph-name="v" unicode="v" horiz-adv-x="811" 
d="M5 953h270l133 -637l133 637h264l-276 -953h-254z" />
    <glyph glyph-name="w" unicode="w" horiz-adv-x="1131" 
d="M9 953h256l96 -702l80 702h251l84 -702l92 702h253l-220 -953h-243l-90 765l-90 -765h-250z" />
    <glyph glyph-name="x" unicode="x" horiz-adv-x="789" 
d="M45 953h269l86 -346l89 346h262l-182 -434l218 -519h-283l-116 389l-120 -389h-265l221 519z" />
    <glyph glyph-name="y" unicode="y" horiz-adv-x="811" 
d="M2 953h276l136 -654l127 654h259l-293 -1063q-51 -188 -120.5 -265.5t-194.5 -77.5q-72 0 -137 23v222q40 -29 88 -29q58 0 88.5 49.5t53.5 159.5z" />
    <glyph glyph-name="z" unicode="z" horiz-adv-x="832" 
d="M84 953h676v-211l-400 -532h426v-210h-735v210l395 532h-362v211z" />
    <glyph glyph-name="braceleft" unicode="{" 
d="M54 538q68 2 119.5 36.5t69.5 109.5t18 298q0 153 16 227.5t56.5 123.5t94 67t149.5 18h56v-157h-31q-116 0 -144 -44t-28 -162v-148q0 -209 -44.5 -301.5t-164.5 -148.5q121 -51 165 -152t44 -299v-148q0 -119 28.5 -162t143.5 -43h31v-157h-56q-99 0 -153.5 19.5
t-97 74.5t-54 139t-11.5 259q0 230 -44.5 306.5t-162.5 80.5v163z" />
    <glyph glyph-name="bar" unicode="|" horiz-adv-x="1158" 
d="M486 1418h186v-1884h-186v1884z" />
    <glyph glyph-name="braceright" unicode="}" 
d="M633 538v-163q-68 -2 -119.5 -36.5t-69.5 -109.5t-18 -298q0 -152 -16 -227t-56.5 -123.5t-94 -66.5t-149.5 -18h-56v157h31q109 0 140.5 41t31.5 164v148q0 203 45.5 302t163.5 149q-123 58 -166 151.5t-43 298.5v148q0 119 -28.5 162.5t-143.5 43.5h-31v157h56
q99 0 153.5 -19.5t97 -75t54 -139.5t11.5 -258q0 -231 44.5 -307.5t162.5 -80.5z" />
    <glyph glyph-name="asciitilde" unicode="~" horiz-adv-x="1344" 
d="M1222 628q-158 -135 -302 -135q-61 0 -119.5 20t-185.5 80q-129 61 -194 61q-139 0 -299 -143v195q159 132 311 132q58 0 114 -19t179 -77q136 -64 207 -64q125 0 289 145v-195z" />
    <glyph glyph-name="Adieresis" unicode="&#xc4;" horiz-adv-x="1045" 
d="M383 1395h263l384 -1395h-295l-69 340h-304l-74 -340h-272zM510 1051l-102 -493h211zM328 1776q55 0 96 -39.5t41 -97.5q0 -57 -40 -97t-97 -40q-56 0 -96.5 40t-40.5 97t40.5 97t96.5 40zM691 1776q56 0 97.5 -40t41.5 -99q0 -57 -41 -97.5t-98 -40.5t-97.5 40.5
t-40.5 97.5q0 58 40.5 98.5t97.5 40.5z" />
    <glyph glyph-name="Aring" unicode="&#xc5;" horiz-adv-x="1045" 
d="M653 1370l377 -1370h-295l-69 340h-304l-74 -340h-272l358 1362q-18 25 -27 51t-9 54q0 72 51 122t122 50t121.5 -50.5t50.5 -121.5q0 -25 -7.5 -49t-22.5 -48zM509 1541q-30 0 -51.5 -21.5t-21.5 -51.5t21.5 -51.5t51.5 -21.5q31 0 52 21.5t21 51.5q0 29 -21 51t-52 22z
M510 1051l-102 -493h211z" />
    <glyph glyph-name="Ccedilla" unicode="&#xc7;" horiz-adv-x="832" 
d="M556 -22v-95h34q73 0 130.5 -38.5t57.5 -112.5q0 -80 -67.5 -135t-174.5 -55q-74 0 -157 30v114q72 -43 136 -43q45 0 79.5 24t34.5 58q0 31 -26.5 46.5t-80.5 15.5h-81v203q-182 44 -283 233t-101 467q0 331 137 529.5t361 198.5q109 0 229 -66v-267q-94 100 -191 100
q-126 0 -198.5 -128t-72.5 -376q0 -126 32 -238.5t96.5 -171.5t137.5 -59q97 0 196 98v-264q-124 -67 -228 -68z" />
    <glyph glyph-name="Eacute" unicode="&#xc9;" horiz-adv-x="981" 
d="M122 1395h781v-230h-520v-325h487v-218h-487v-391h520v-231h-781v1395zM523 1785h237l-219 -293h-170z" />
    <glyph glyph-name="Ntilde" unicode="&#xd1;" horiz-adv-x="1109" 
d="M744 1395h247v-1395h-264l-242 602q-54 135 -129 351l9 -385q1 -19 1 -45v-523h-247v1395h264l242 -602q54 -135 128 -351l-9 431v522zM870 1763q-1 -131 -52 -197t-128 -66q-64 0 -152 68q-56 44 -85 44q-55 0 -56 -98h-149q1 127 51.5 193.5t128.5 66.5q64 0 148 -63
q58 -44 88 -44q53 0 53 96h153z" />
    <glyph glyph-name="Odieresis" unicode="&#xd6;" horiz-adv-x="1109" 
d="M533 1418q263 0 395.5 -198t132.5 -515q0 -207 -59 -376t-176.5 -260t-277.5 -91q-168 0 -282.5 96t-165.5 264t-51 371q0 321 136 515t348 194zM564 1192q-124 0 -188.5 -133.5t-64.5 -361.5q0 -233 65 -361.5t178 -128.5q112 0 176 133.5t64 361.5q0 234 -66 362
t-164 128zM357 1776q55 0 96 -39.5t41 -97.5q0 -57 -40 -97t-97 -40q-56 0 -96.5 40t-40.5 97t40.5 97t96.5 40zM720 1776q56 0 97.5 -40t41.5 -99q0 -57 -41 -97.5t-98 -40.5t-97.5 40.5t-40.5 97.5q0 58 40.5 98.5t97.5 40.5z" />
    <glyph glyph-name="Udieresis" unicode="&#xdc;" horiz-adv-x="1067" 
d="M106 1395h262v-978q0 -109 40 -163.5t120 -54.5q76 0 122.5 62.5t46.5 185.5v948h264v-934q0 -219 -111.5 -351t-324.5 -132q-98 0 -192.5 36.5t-160.5 141.5t-66 261v978zM360 1776q55 0 96 -39.5t41 -97.5q0 -57 -40 -97t-97 -40q-56 0 -96.5 40t-40.5 97t40.5 97
t96.5 40zM723 1776q56 0 97.5 -40t41.5 -99q0 -57 -41 -97.5t-98 -40.5t-97.5 40.5t-40.5 97.5q0 58 40.5 98.5t97.5 40.5z" />
    <glyph glyph-name="aacute" unicode="&#xe1;" horiz-adv-x="917" 
d="M164 895q148 80 289 80q164 0 259 -92t95 -241v-325q0 -211 62 -317h-274q-22 36 -31 86q-42 -54 -94 -81t-115 -27q-126 0 -206.5 91.5t-80.5 215.5q0 104 61 180.5t151 107t273 57.5q-11 65 -47 97t-97 32q-108 0 -245 -97v233zM553 451q-130 -22 -181 -53.5t-51 -97.5
q0 -53 33.5 -86.5t78.5 -33.5q51 0 85.5 40t34.5 91v140zM510 1385h237l-219 -293h-170z" />
    <glyph glyph-name="agrave" unicode="&#xe0;" horiz-adv-x="917" 
d="M164 895q148 80 289 80q164 0 259 -92t95 -241v-325q0 -211 62 -317h-274q-22 36 -31 86q-42 -54 -94 -81t-115 -27q-126 0 -206.5 91.5t-80.5 215.5q0 104 61 180.5t151 107t273 57.5q-11 65 -47 97t-97 32q-108 0 -245 -97v233zM553 451q-130 -22 -181 -53.5t-51 -97.5
q0 -53 33.5 -86.5t78.5 -33.5q51 0 85.5 40t34.5 91v140zM224 1388h233l151 -294h-170z" />
    <glyph glyph-name="acircumflex" unicode="&#xe2;" horiz-adv-x="917" 
d="M164 895q148 80 289 80q164 0 259 -92t95 -241v-325q0 -211 62 -317h-274q-22 36 -31 86q-42 -54 -94 -81t-115 -27q-126 0 -206.5 91.5t-80.5 215.5q0 104 61 180.5t151 107t273 57.5q-11 65 -47 97t-97 32q-108 0 -245 -97v233zM553 451q-130 -22 -181 -53.5t-51 -97.5
q0 -53 33.5 -86.5t78.5 -33.5q51 0 85.5 40t34.5 91v140zM353 1388h274l150 -296h-170l-118 164l-118 -162h-170z" />
    <glyph glyph-name="adieresis" unicode="&#xe4;" horiz-adv-x="917" 
d="M164 895q148 80 289 80q164 0 259 -92t95 -241v-325q0 -211 62 -317h-274q-22 36 -31 86q-42 -54 -94 -81t-115 -27q-126 0 -206.5 91.5t-80.5 215.5q0 104 61 180.5t151 107t273 57.5q-11 65 -47 97t-97 32q-108 0 -245 -97v233zM553 451q-130 -22 -181 -53.5t-51 -97.5
q0 -53 33.5 -86.5t78.5 -33.5q51 0 85.5 40t34.5 91v140zM283 1376q55 0 96 -39.5t41 -97.5q0 -57 -40 -97t-97 -40q-56 0 -96.5 40t-40.5 97t40.5 97t96.5 40zM646 1376q56 0 97.5 -40t41.5 -99q0 -57 -41 -97.5t-98 -40.5t-97.5 40.5t-40.5 97.5q0 58 40.5 98.5t97.5 40.5
z" />
    <glyph glyph-name="atilde" unicode="&#xe3;" horiz-adv-x="917" 
d="M164 895q148 80 289 80q164 0 259 -92t95 -241v-325q0 -211 62 -317h-274q-22 36 -31 86q-42 -54 -94 -81t-115 -27q-126 0 -206.5 91.5t-80.5 215.5q0 104 61 180.5t151 107t273 57.5q-11 65 -47 97t-97 32q-108 0 -245 -97v233zM553 451q-130 -22 -181 -53.5t-51 -97.5
q0 -53 33.5 -86.5t78.5 -33.5q51 0 85.5 40t34.5 91v140zM788 1363q-1 -131 -52 -197t-128 -66q-64 0 -152 68q-56 44 -85 44q-55 0 -56 -98h-149q1 127 51.5 193.5t128.5 66.5q64 0 148 -63q58 -44 88 -44q53 0 53 96h153z" />
    <glyph glyph-name="aring" unicode="&#xe5;" horiz-adv-x="917" 
d="M164 895q148 80 289 80q164 0 259 -92t95 -241v-325q0 -211 62 -317h-274q-22 36 -31 86q-42 -54 -94 -81t-115 -27q-126 0 -206.5 91.5t-80.5 215.5q0 104 61 180.5t151 107t273 57.5q-11 65 -47 97t-97 32q-108 0 -245 -97v233zM553 451q-130 -22 -181 -53.5t-51 -97.5
q0 -53 33.5 -86.5t78.5 -33.5q51 0 85.5 40t34.5 91v140zM465 1410q71 0 122 -51t51 -121q0 -72 -51 -122.5t-122 -50.5t-121.5 50.5t-50.5 122.5q0 71 50.5 121.5t121.5 50.5zM464 1312q-30 0 -51.5 -21.5t-21.5 -51.5t21.5 -51.5t51.5 -21.5t51.5 21.5t21.5 51.5
q0 29 -21 51t-52 22z" />
    <glyph glyph-name="ccedilla" unicode="&#xe7;" horiz-adv-x="725" 
d="M475 -22v-95h34q73 0 130.5 -38.5t57.5 -112.5q0 -82 -67.5 -136t-174.5 -54q-76 0 -156 30v114q71 -43 136 -43q43 0 78.5 23.5t35.5 58.5q0 31 -27 46.5t-81 15.5h-81v207q-136 43 -219.5 177t-83.5 307q0 211 119.5 354t306.5 143q101 0 195 -55v-237q-84 71 -157 71
q-89 0 -149.5 -78.5t-60.5 -197.5q0 -114 57 -196.5t146 -82.5q80 0 164 76v-235q-109 -60 -203 -62z" />
    <glyph glyph-name="eacute" unicode="&#xe9;" horiz-adv-x="896" 
d="M822 87q-169 -109 -324 -109q-206 0 -323.5 143.5t-117.5 352.5q0 211 118.5 356t310.5 145q172 0 272.5 -123t100.5 -330v-78h-552q6 -115 66 -174.5t147 -59.5q144 0 302 156v-279zM314 613h292q-6 90 -38.5 134.5t-90.5 44.5q-57 0 -102 -48.5t-61 -130.5zM496 1385
h237l-219 -293h-170z" />
    <glyph glyph-name="egrave" unicode="&#xe8;" horiz-adv-x="896" 
d="M822 87q-169 -109 -324 -109q-206 0 -323.5 143.5t-117.5 352.5q0 211 118.5 356t310.5 145q172 0 272.5 -123t100.5 -330v-78h-552q6 -115 66 -174.5t147 -59.5q144 0 302 156v-279zM314 613h292q-6 90 -38.5 134.5t-90.5 44.5q-57 0 -102 -48.5t-61 -130.5zM228 1388
h233l151 -294h-170z" />
    <glyph glyph-name="ecircumflex" unicode="&#xea;" horiz-adv-x="896" 
d="M822 87q-169 -109 -324 -109q-206 0 -323.5 143.5t-117.5 352.5q0 211 118.5 356t310.5 145q172 0 272.5 -123t100.5 -330v-78h-552q6 -115 66 -174.5t147 -59.5q144 0 302 156v-279zM314 613h292q-6 90 -38.5 134.5t-90.5 44.5q-57 0 -102 -48.5t-61 -130.5zM346 1388
h274l150 -296h-170l-118 164l-118 -162h-170z" />
    <glyph glyph-name="edieresis" unicode="&#xeb;" horiz-adv-x="896" 
d="M822 87q-169 -109 -324 -109q-206 0 -323.5 143.5t-117.5 352.5q0 211 118.5 356t310.5 145q172 0 272.5 -123t100.5 -330v-78h-552q6 -115 66 -174.5t147 -59.5q144 0 302 156v-279zM314 613h292q-6 90 -38.5 134.5t-90.5 44.5q-57 0 -102 -48.5t-61 -130.5zM299 1376
q55 0 96 -39.5t41 -97.5q0 -57 -40 -97t-97 -40q-56 0 -96.5 40t-40.5 97t40.5 97t96.5 40zM662 1376q56 0 97.5 -40t41.5 -99q0 -57 -41 -97.5t-98 -40.5t-97.5 40.5t-40.5 97.5q0 58 40.5 98.5t97.5 40.5z" />
    <glyph glyph-name="iacute" unicode="&#xed;" horiz-adv-x="469" 
d="M108 953h253v-953h-253v953zM265 1385h237l-219 -293h-170z" />
    <glyph glyph-name="igrave" unicode="&#xec;" horiz-adv-x="469" 
d="M109 953h253v-953h-253v953zM-21 1388h233l151 -294h-170z" />
    <glyph glyph-name="icircumflex" unicode="&#xee;" horiz-adv-x="469" 
d="M109 953h253v-953h-253v953zM85 1388h274l150 -296h-170l-118 164l-118 -162h-170z" />
    <glyph glyph-name="idieresis" unicode="&#xef;" horiz-adv-x="469" 
d="M108 953h253v-953h-253v953zM50 1376q55 0 96 -39.5t41 -97.5q0 -57 -40 -97t-97 -40q-56 0 -96.5 40t-40.5 97t40.5 97t96.5 40zM413 1376q56 0 97.5 -40t41.5 -99q0 -57 -41 -97.5t-98 -40.5t-97.5 40.5t-40.5 97.5q0 58 40.5 98.5t97.5 40.5z" />
    <glyph glyph-name="ntilde" unicode="&#xf1;" horiz-adv-x="939" 
d="M351 856q47 60 104 89.5t124 29.5q117 0 188.5 -85.5t71.5 -221.5v-668h-252v598q0 69 -23 103t-70 34q-62 0 -102.5 -56t-40.5 -144v-535h-250v953h228zM790 1363q-1 -131 -52 -197t-128 -66q-64 0 -152 68q-56 44 -85 44q-55 0 -56 -98h-149q1 127 51.5 193.5
t128.5 66.5q64 0 148 -63q58 -44 88 -44q53 0 53 96h153z" />
    <glyph glyph-name="oacute" unicode="&#xf3;" horiz-adv-x="960" 
d="M481 975q182 0 302 -130t120 -366q0 -219 -114.5 -360t-315.5 -141q-189 0 -302.5 133t-113.5 356q0 173 69.5 296.5t172 167.5t182.5 44zM487 746q-86 0 -131 -75.5t-45 -200.5q0 -113 44.5 -191t120.5 -78q75 0 122 76.5t47 212.5q0 118 -46 187t-112 69zM507 1385h237
l-219 -293h-170z" />
    <glyph glyph-name="ograve" unicode="&#xf2;" horiz-adv-x="960" 
d="M481 975q182 0 302 -130t120 -366q0 -219 -114.5 -360t-315.5 -141q-189 0 -302.5 133t-113.5 356q0 173 69.5 296.5t172 167.5t182.5 44zM487 746q-86 0 -131 -75.5t-45 -200.5q0 -113 44.5 -191t120.5 -78q75 0 122 76.5t47 212.5q0 118 -46 187t-112 69zM221 1388h233
l151 -294h-170z" />
    <glyph glyph-name="ocircumflex" unicode="&#xf4;" horiz-adv-x="960" 
d="M481 975q182 0 302 -130t120 -366q0 -219 -114.5 -360t-315.5 -141q-189 0 -302.5 133t-113.5 356q0 173 69.5 296.5t172 167.5t182.5 44zM487 746q-86 0 -131 -75.5t-45 -200.5q0 -113 44.5 -191t120.5 -78q75 0 122 76.5t47 212.5q0 118 -46 187t-112 69zM350 1388h274
l150 -296h-170l-118 164l-118 -162h-170z" />
    <glyph glyph-name="odieresis" unicode="&#xf6;" horiz-adv-x="960" 
d="M481 975q182 0 302 -130t120 -366q0 -219 -114.5 -360t-315.5 -141q-189 0 -302.5 133t-113.5 356q0 173 69.5 296.5t172 167.5t182.5 44zM487 746q-86 0 -131 -75.5t-45 -200.5q0 -113 44.5 -191t120.5 -78q75 0 122 76.5t47 212.5q0 118 -46 187t-112 69zM304 1376
q55 0 96 -39.5t41 -97.5q0 -57 -40 -97t-97 -40q-56 0 -96.5 40t-40.5 97t40.5 97t96.5 40zM667 1376q56 0 97.5 -40t41.5 -99q0 -57 -41 -97.5t-98 -40.5t-97.5 40.5t-40.5 97.5q0 58 40.5 98.5t97.5 40.5z" />
    <glyph glyph-name="otilde" unicode="&#xf5;" horiz-adv-x="960" 
d="M481 975q182 0 302 -130t120 -366q0 -219 -114.5 -360t-315.5 -141q-189 0 -302.5 133t-113.5 356q0 173 69.5 296.5t172 167.5t182.5 44zM487 746q-86 0 -131 -75.5t-45 -200.5q0 -113 44.5 -191t120.5 -78q75 0 122 76.5t47 212.5q0 118 -46 187t-112 69zM785 1363
q-1 -131 -52 -197t-128 -66q-64 0 -152 68q-56 44 -85 44q-55 0 -56 -98h-149q1 127 51.5 193.5t128.5 66.5q64 0 148 -63q58 -44 88 -44q53 0 53 96h153z" />
    <glyph glyph-name="uacute" unicode="&#xfa;" horiz-adv-x="939" 
d="M101 953h250v-604q0 -66 24 -99.5t72 -33.5q59 0 99.5 54.5t40.5 161.5v521h250v-953h-232l-18 101q-45 -61 -102 -92t-125 -31q-121 0 -190 90.5t-69 251.5v633zM513 1385h237l-219 -293h-170z" />
    <glyph glyph-name="ugrave" unicode="&#xf9;" horiz-adv-x="939" 
d="M101 953h250v-604q0 -66 24 -99.5t72 -33.5q59 0 99.5 54.5t40.5 161.5v521h250v-953h-232l-18 101q-45 -61 -102 -92t-125 -31q-121 0 -190 90.5t-69 251.5v633zM227 1388h233l151 -294h-170z" />
    <glyph glyph-name="ucircumflex" unicode="&#xfb;" horiz-adv-x="939" 
d="M101 953h250v-604q0 -66 24 -99.5t72 -33.5q59 0 99.5 54.5t40.5 161.5v521h250v-953h-232l-18 101q-45 -61 -102 -92t-125 -31q-121 0 -190 90.5t-69 251.5v633zM332 1388h274l150 -296h-170l-118 164l-118 -162h-170z" />
    <glyph glyph-name="udieresis" unicode="&#xfc;" horiz-adv-x="939" 
d="M101 953h250v-604q0 -66 24 -99.5t72 -33.5q59 0 99.5 54.5t40.5 161.5v521h250v-953h-232l-18 101q-45 -61 -102 -92t-125 -31q-121 0 -190 90.5t-69 251.5v633zM286 1376q55 0 96 -39.5t41 -97.5q0 -57 -40 -97t-97 -40q-56 0 -96.5 40t-40.5 97t40.5 97t96.5 40z
M649 1376q56 0 97.5 -40t41.5 -99q0 -57 -41 -97.5t-98 -40.5t-97.5 40.5t-40.5 97.5q0 58 40.5 98.5t97.5 40.5z" />
    <glyph glyph-name="dagger" unicode="&#x2020;" horiz-adv-x="832" 
d="M292 1378h245v-396h220v-197h-220v-1116h-245v1116h-218v197h218v396z" />
    <glyph glyph-name="degree" unicode="&#xb0;" horiz-adv-x="811" 
d="M128 1133q0 124 82.5 204.5t195.5 80.5q115 0 196 -81.5t81 -196.5q0 -114 -81.5 -195.5t-195.5 -81.5q-122 0 -200 85t-78 185zM237 1145q0 -78 51 -126t118 -48q69 0 118.5 49t49.5 120q0 70 -49 119.5t-120 49.5q-72 0 -120 -51.5t-48 -112.5z" />
    <glyph glyph-name="cent" unicode="&#xa2;" horiz-adv-x="704" 
d="M333 1330h166v-170q79 -11 158 -55v-238q-77 74 -155 74q-87 0 -149 -81t-62 -198q0 -116 60 -193.5t149 -77.5q71 0 157 73v-235q-69 -40 -158 -56v-173h-166v190q-149 64 -223.5 182.5t-74.5 291.5q0 170 74.5 289t223.5 187v190z" />
    <glyph glyph-name="sterling" unicode="&#xa3;" horiz-adv-x="917" 
d="M237 761q-69 160 -69 246q0 144 118 245.5t298 101.5q132 0 300 -65v-259q-147 104 -257 104q-86 0 -143.5 -49t-57.5 -117q0 -26 6 -47t64 -160h285v-192h-254q-2 -97 -132 -265q53 35 97 35q51 0 139 -60q94 -64 151 -64q53 0 102 40v-229q-80 -48 -138 -48
q-59 0 -167 80q-98 72 -147 72q-91 0 -154 -130h-249q45 78 92 152q100 160 126.5 229t30.5 188h-212v192h171z" />
    <glyph glyph-name="section" unicode="&#xa7;" horiz-adv-x="896" 
d="M330 822q-134 92 -174 163t-40 149q0 133 95 208.5t241 75.5q92 0 160 -28t113 -95t45 -172v-36h-219v26q0 55 -29.5 91t-79.5 36q-41 0 -69.5 -24t-28.5 -64q0 -38 30 -69q30 -32 107 -80q190 -119 271 -222.5t81 -217.5q0 -104 -61 -169.5t-207 -117.5
q122 -85 167.5 -153.5t45.5 -159.5q0 -137 -92 -209t-235 -72q-170 0 -251.5 76.5t-81.5 212.5v29h220q0 -64 29 -104.5t83 -40.5q42 0 71.5 28t29.5 65q0 36 -36 72q-36 35 -131 95q-170 108 -249 205q-79 96 -79 210q0 200 274 292zM438 748q-150 -75 -150 -187
q0 -53 30.5 -92t102.5 -93l37 -26q142 75 142 184q0 114 -162 214z" />
    <glyph glyph-name="bullet" unicode="&#x2022;" horiz-adv-x="725" 
d="M658 732q0 -133 -88 -218.5t-207 -85.5q-123 0 -209.5 87t-86.5 209t87 208.5t208 86.5q130 0 213 -90t83 -197z" />
    <glyph glyph-name="paragraph" unicode="&#xb6;" horiz-adv-x="1109" 
d="M405 -444v1011q-195 13 -299.5 125t-104.5 284q0 177 113.5 298t359.5 121h633v-172h-144v-1667h-170v1667h-223v-1667h-165z" />
    <glyph glyph-name="germandbls" unicode="&#xdf;" horiz-adv-x="981" 
d="M100 0v1011q0 193 100.5 300t278.5 107q151 0 250.5 -82.5t99.5 -239.5q0 -117 -55 -188.5t-164 -130.5q158 -16 236 -109.5t78 -248.5q0 -210 -115 -325.5t-248 -115.5q-60 0 -116 22v227q34 -18 69 -18q66 0 108 67.5t42 161.5q0 112 -51 164.5t-168 56.5v198
q60 0 100.5 44t40.5 129q0 73 -29 120.5t-87 47.5q-55 0 -87 -51t-32 -136v-1011h-251z" />
    <glyph glyph-name="registered" unicode="&#xae;" horiz-adv-x="1515" 
d="M736 1418q348 0 567 -230.5t219 -536.5q0 -316 -225 -541t-541 -225t-541 225.5t-225 540.5q0 218 113.5 401.5t291.5 274.5t341 91zM774 1268q-276 0 -454 -183.5t-178 -433.5q0 -255 180.5 -435.5t435.5 -180.5q253 0 434 181t181 435q0 265 -187 441t-412 176z
M410 242v813h386q144 0 208.5 -67.5t64.5 -162.5q0 -94 -54.5 -151t-164.5 -77q51 -22 81 -54.5t91 -137.5l96 -163h-204l-68 131q-61 117 -107 160t-121 43h-43v-334h-165zM575 704h133q101 0 143.5 26.5t42.5 87.5q0 54 -42 80.5t-127 26.5h-150v-221z" />
    <glyph glyph-name="copyright" unicode="&#xa9;" horiz-adv-x="1515" 
d="M736 1418q348 0 567 -230.5t219 -535.5q0 -318 -224 -542.5t-542 -224.5t-542 224.5t-224 541.5q0 224 118.5 410.5t296.5 271.5t331 85zM772 1267q-276 0 -453.5 -183.5t-177.5 -431.5q0 -255 180 -435.5t435 -180.5q254 0 434.5 181t180.5 434q0 175 -91 322.5
t-234 220.5t-274 73zM942 538l161 -55q-81 -259 -339 -259q-175 0 -279.5 115t-104.5 308q0 199 106.5 314t273.5 115q130 0 212 -56.5t131 -186.5l-162 -39q-52 140 -178 140q-105 0 -156 -79t-51 -197q0 -131 48 -211.5t149 -80.5q140 0 189 172z" />
    <glyph glyph-name="trademark" unicode="&#x2122;" horiz-adv-x="2048" 
d="M487 576v677h-253v142h665v-142h-246v-677h-166zM998 576v819h259l149 -564l150 564h259v-819h-158v653l-177 -653h-150l-176 653v-653h-156z" />
    <glyph glyph-name="acute" unicode="&#xb4;" 
d="M386 1385h237l-219 -293h-170z" />
    <glyph glyph-name="dieresis" unicode="&#xa8;" 
d="M159 1376q55 0 96 -39.5t41 -97.5q0 -57 -40 -97t-97 -40q-56 0 -96.5 40t-40.5 97t40.5 97t96.5 40zM522 1376q56 0 97.5 -40t41.5 -99q0 -57 -41 -97.5t-98 -40.5t-97.5 40.5t-40.5 97.5q0 58 40.5 98.5t97.5 40.5z" />
    <glyph glyph-name="notequal" unicode="&#x2260;" horiz-adv-x="1365" 
d="M131 995h599l207 526h157l-203 -526h343v-184h-416l-113 -290h529v-185h-601l-208 -525h-158l207 525h-343v185h415l113 290h-528v184z" />
    <glyph glyph-name="AE" unicode="&#xc6;" horiz-adv-x="1579" 
d="M473 1395h1028v-229h-518v-323h487v-225h-487v-382h518v-236h-780v395h-304l-120 -395h-283zM648 1183l-167 -565h240v565h-73z" />
    <glyph glyph-name="Oslash" unicode="&#xd8;" horiz-adv-x="1109" 
d="M815 1490h162l-93 -217q176 -191 176 -565q0 -346 -140.5 -538t-362.5 -192q-116 0 -209 58l-57 -129h-158l91 213q-175 202 -175 560q0 350 137 544t359 194q118 0 215 -57zM348 407l319 742q-61 44 -113 44q-111 0 -177 -132t-66 -355q0 -172 37 -299zM760 991
l-322 -742q51 -44 115 -44q111 0 175.5 132.5t64.5 368.5q0 173 -33 285z" />
    <glyph glyph-name="infinity" unicode="&#x221e;" horiz-adv-x="1460" 
d="M653 807q70 169 158 223t212 54q167 0 275 -118.5t108 -298.5q0 -128 -49.5 -217.5t-130 -145.5t-169.5 -56q-79 0 -155 49t-182 237q-56 -116 -137 -174.5t-187 -58.5q-143 0 -243 101.5t-100 267.5q0 156 88.5 261t218.5 105q77 0 147 -41.5t146 -187.5zM749 605
q68 -148 142 -206t170 -58q129 0 208.5 93t79.5 233q0 145 -86.5 242t-195.5 97q-80 0 -132 -44t-81.5 -101t-93.5 -227zM624 730q-45 108 -111.5 161.5t-155.5 53.5q-96 0 -172.5 -70t-76.5 -204q0 -138 72.5 -215t157.5 -77q63 0 133 50.5t142 266.5z" />
    <glyph glyph-name="plusminus" unicode="&#xb1;" horiz-adv-x="1365" 
d="M130 938h459v461h185v-461h461v-184h-461v-459h-185v459h-459v184zM130 185h1105v-185h-1105v185z" />
    <glyph glyph-name="lessequal" unicode="&#x2264;" horiz-adv-x="1365" 
d="M1234 330l-1103 461v167l1103 461v-199l-852 -345l852 -345v-200zM130 184h1105v-184h-1105v184z" />
    <glyph glyph-name="greaterequal" unicode="&#x2265;" horiz-adv-x="1365" 
d="M131 1419l1103 -461v-167l-1103 -461v199l851 345l-851 345v200zM130 184h1105v-184h-1105v184z" />
    <glyph glyph-name="yen" unicode="&#xa5;" horiz-adv-x="961" 
d="M731 911h216v-174h-293l-47 -105v-155h340v-173h-340v-304h-263v304h-331v173h331v155l-46 105h-285v174h210l-210 484h298l165 -484l167 484h304z" />
    <glyph glyph-name="mu" unicode="&#xb5;" horiz-adv-x="1024" 
d="M128 1062h266v-541q0 -189 32.5 -249.5t92.5 -60.5q69 0 96 67t27 236v548h266v-1062h-246v119q-16 -69 -48.5 -104t-82.5 -35q-51 0 -85 33.5t-52 100.5v-521h-266v1469z" />
    <glyph glyph-name="partialdiff" unicode="&#x2202;" horiz-adv-x="1003" 
d="M366 1150h-42q52 142 139 213t209 71q100 0 165.5 -46.5t97 -122.5t31.5 -231q0 -344 -95 -586t-209 -356.5t-272 -114.5q-155 0 -235.5 92t-80.5 224q0 231 188.5 436t398.5 205q168 0 236 -150q8 77 8 127q0 110 -42 178t-101 106.5t-170 38.5q-73 0 -129.5 -21
t-96.5 -63zM881 691q-63 192 -214 192q-86 0 -163.5 -90t-125.5 -264.5t-48 -316.5q0 -94 29 -131t91 -37q134 0 259 199t172 448z" />
    <glyph glyph-name="summation" unicode="&#x2211;" horiz-adv-x="1451" 
d="M1351 -204h-1313v36l669 831l-669 817v37h1278l27 -337h-40q-27 256 -249 256h-740l562 -687l-629 -777h818q55 0 131 20.5t116 73.5t63 152l40 -7z" />
    <glyph glyph-name="product" unicode="&#x220f;" horiz-adv-x="1685" 
d="M1239 1438h-795v-1449q0 -85 39 -120t123 -35h36v-38h-597v38h35q87 0 125 36t38 119v1334q0 85 -38 120t-125 35h-35v38h1594v-38h-35q-86 0 -124 -35.5t-38 -119.5v-1334q0 -85 39 -120t123 -35h35v-38h-597v38h35q93 0 127.5 37.5t34.5 117.5v1449z" />
    <glyph glyph-name="pi" unicode="&#x3c0;" horiz-adv-x="1124" 
d="M1039 935v-207h-215q-36 -291 -36 -423q0 -79 22 -119t65 -40q99 0 118 170h37q-12 -344 -211 -344q-95 0 -143 83t-48 248q0 143 35 425h-198q-32 -517 -84 -636.5t-132 -119.5q-47 0 -76.5 30.5t-29.5 71.5q0 53 56 152q52 94 74.5 198.5t26.5 303.5h-34
q-130 0 -177 -116h-37q36 122 92 202.5t104.5 100.5t158.5 20h632z" />
    <glyph glyph-name="integral" unicode="&#x222b;" horiz-adv-x="561" 
d="M200 895l12 445q9 344 75 433.5t148 89.5q53 0 89 -34.5t36 -72.5q0 -44 -25.5 -74t-66.5 -30q-35 0 -76 36q-23 20 -40 20q-40 0 -40 -63q0 -42 9 -146q37 -411 37 -665q0 -68 -12 -470.5t-77 -493t-151 -90.5q-49 0 -83.5 32.5t-34.5 88.5q0 45 26 72t64 27
q40 0 70 -33q28 -31 48 -31t29.5 15.5t9.5 45.5q0 42 -9 120q-38 317 -38 778z" />
    <glyph glyph-name="ordfeminine" unicode="&#xaa;" horiz-adv-x="619" 
d="M117 1367q99 51 195 51q98 0 164 -57t66 -170v-224q0 -121 41 -191h-182q-15 21 -26 58q-29 -36 -61.5 -54t-69.5 -18q-90 0 -140.5 60.5t-50.5 143.5q0 101 75.5 153.5t246.5 71.5q-7 43 -32.5 64.5t-69.5 21.5q-68 0 -156 -63v153zM375 1074q-85 -12 -120 -34.5
t-35 -66.5q0 -39 18.5 -59t55.5 -20q41 0 61 24.5t20 73.5v82z" />
    <glyph glyph-name="ordmasculine" unicode="&#xba;" horiz-adv-x="640" 
d="M307 1418q147 0 219.5 -92.5t72.5 -233.5q0 -146 -76 -238t-206 -92q-132 0 -204.5 93.5t-72.5 231.5q0 152 79 241.5t188 89.5zM323 1270q-53 0 -83.5 -50t-30.5 -135q0 -75 29 -126.5t80 -51.5q49 0 81 54t32 134q0 81 -32 128t-76 47z" />
    <glyph glyph-name="Omega" unicode="&#x2126;" horiz-adv-x="1573" 
d="M617 359l34 -359h-619v377h36q4 -69 33.5 -101t125.5 -32h328l-7 69q-251 53 -358.5 197t-107.5 315q0 231 185 396.5t519 165.5t519 -165.5t185 -396.5q0 -171 -107.5 -315t-358.5 -197l-7 -69h328q65 0 91.5 10t45.5 38t22 85h36v-377h-619l34 359q183 63 183 441
q0 287 -107 398t-245 111q-109 0 -191.5 -63t-121.5 -162.5t-39 -270.5q0 -392 183 -454z" />
    <glyph glyph-name="ae" unicode="&#xe6;" horiz-adv-x="1387" 
d="M706 866q125 109 262 109q181 0 274.5 -126.5t93.5 -341.5v-60h-544q19 -233 206 -233q149 0 301 160v-282q-180 -114 -333 -114q-207 0 -330 181q-50 -90 -117 -135.5t-150 -45.5q-135 0 -223 90t-88 219q0 95 50 165t127.5 104t252.5 66l53 9q-8 61 -49 94.5t-94 33.5
q-110 0 -246 -103v239q148 80 297 80q147 0 257 -109zM792 614h290q-5 90 -38 135t-93 45q-130 0 -159 -180zM541 447q-127 -22 -178 -51.5t-51 -96.5q0 -54 30.5 -85.5t76.5 -31.5q55 0 88.5 40.5t33.5 99.5v125z" />
    <glyph glyph-name="oslash" unicode="&#xf8;" horiz-adv-x="960" 
d="M673 1045h159l-84 -179q155 -153 155 -383q0 -220 -120 -362.5t-293 -142.5q-80 0 -154 34l-50 -108h-164l84 180q-149 158 -149 392q0 217 116.5 358t286.5 141q78 0 161 -36zM324 302l213 451q-30 13 -56 13q-80 0 -135 -80t-55 -209q0 -98 33 -175zM630 647l-214 -449
q36 -12 67 -12q79 0 131.5 80t52.5 210q0 93 -37 171z" />
    <glyph glyph-name="questiondown" unicode="&#xbf;" horiz-adv-x="917" 
d="M533 675q-70 0 -112 44.5t-42 104.5q0 62 43.5 105.5t103.5 43.5q62 0 104.5 -43.5t42.5 -104.5q0 -65 -44.5 -107.5t-95.5 -42.5zM822 -374q-194 -92 -350 -92q-179 0 -306 93.5t-127 268.5q0 99 43.5 166.5t157.5 166.5q95 83 127 136t32 139v64h251v-77
q0 -135 -51 -219t-190 -210q-70 -63 -89.5 -95t-19.5 -68q0 -65 57.5 -105.5t143.5 -40.5q138 0 321 125v-252z" />
    <glyph glyph-name="exclamdown" unicode="&#xa1;" horiz-adv-x="533" 
d="M273 674q-70 0 -112 44.5t-42 104.5q0 62 43.5 106t104.5 44t104.5 -44t43.5 -105q0 -64 -44.5 -107t-97.5 -43zM399 -444h-276l31 1012h222z" />
    <glyph glyph-name="logicalnot" unicode="&#xac;" horiz-adv-x="1365" 
d="M131 1002h1105v-672h-184v487h-921v185z" />
    <glyph glyph-name="radical" unicode="&#x221a;" horiz-adv-x="1124" 
d="M1050 1869h74l-312 -1947l-496 1021l-198 -91l-34 64l301 151l405 -823z" />
    <glyph glyph-name="florin" unicode="&#x192;" horiz-adv-x="1131" 
d="M280 851l36 211h202l16 89q27 146 51.5 203t93 97t193.5 40q139 0 274 -41l-54 -226q-94 28 -158 28q-65 0 -87 -31t-36 -103l-11 -56h208l-37 -211h-205l-173 -978q-20 -115 -52 -175.5t-100 -94.5t-179 -34q-146 0 -278 40l57 219q120 -21 166 -21q62 0 84.5 32
t40.5 139l150 873h-202z" />
    <glyph glyph-name="approxequal" unicode="&#x2248;" horiz-adv-x="1344" 
d="M1222 869q-157 -135 -298 -135q-65 0 -124.5 20t-184.5 81q-127 61 -194 61q-139 0 -299 -144v195q157 133 310 133q50 0 103 -15.5t191 -81.5q134 -64 206 -64q130 0 290 145v-195zM1222 387q-157 -135 -298 -135q-65 0 -124.5 19.5t-184.5 80.5q-127 61 -194 61
q-139 0 -299 -143v194q157 133 310 133q50 0 103 -15t191 -81q134 -64 206 -64q130 0 290 145v-195z" />
    <glyph glyph-name="Delta" unicode="&#x2206;" horiz-adv-x="1259" 
d="M1229 0h-1200l628 1387zM993 82l-399 967l-440 -967h839z" />
    <glyph glyph-name="guillemotleft" unicode="&#xab;" horiz-adv-x="704" 
d="M150 790h167l-105 -315l105 -316h-167l-107 316zM467 790h167l-106 -315l106 -316h-167l-107 316z" />
    <glyph glyph-name="guillemotright" unicode="&#xbb;" horiz-adv-x="704" 
d="M554 159h-167l105 316l-105 315h167l107 -315zM237 159h-167l106 316l-106 315h167l107 -315z" />
    <glyph glyph-name="ellipsis" unicode="&#x2026;" horiz-adv-x="2048" 
d="M1698 291q73 0 117 -47t44 -109q0 -65 -45.5 -111t-109.5 -46q-65 0 -109.5 46.5t-44.5 109.5q0 68 46.5 112.5t101.5 44.5zM1012 288q72 0 116.5 -45.5t44.5 -108.5q0 -65 -45 -110.5t-109 -45.5q-65 0 -110 46t-45 109q0 67 47 111t101 44zM338 287q71 0 116 -45.5
t45 -109.5t-45.5 -109t-108.5 -45q-64 0 -109.5 45t-45.5 109q0 65 46.5 110t101.5 45z" />
    <glyph glyph-name="nbspace" unicode="&#xa0;" horiz-adv-x="501" 
 />
    <glyph glyph-name="Agrave" unicode="&#xc0;" horiz-adv-x="1045" 
d="M383 1395h263l384 -1395h-295l-69 340h-304l-74 -340h-272zM510 1051l-102 -493h211zM257 1788h233l151 -294h-170z" />
    <glyph glyph-name="Atilde" unicode="&#xc3;" horiz-adv-x="1045" 
d="M383 1395h263l384 -1395h-295l-69 340h-304l-74 -340h-272zM510 1051l-102 -493h211zM846 1763q-1 -131 -52 -197t-128 -66q-64 0 -152 68q-56 44 -85 44q-55 0 -56 -98h-149q1 127 51.5 193.5t128.5 66.5q64 0 148 -63q58 -44 88 -44q53 0 53 96h153z" />
    <glyph glyph-name="Otilde" unicode="&#xd5;" horiz-adv-x="1109" 
d="M533 1418q263 0 395.5 -198t132.5 -515q0 -207 -59 -376t-176.5 -260t-277.5 -91q-168 0 -282.5 96t-165.5 264t-51 371q0 321 136 515t348 194zM564 1192q-124 0 -188.5 -133.5t-64.5 -361.5q0 -233 65 -361.5t178 -128.5q112 0 176 133.5t64 361.5q0 234 -66 362
t-164 128zM869 1763q-1 -131 -52 -197t-128 -66q-64 0 -152 68q-56 44 -85 44q-55 0 -56 -98h-149q1 127 51.5 193.5t128.5 66.5q64 0 148 -63q58 -44 88 -44q53 0 53 96h153z" />
    <glyph glyph-name="OE" unicode="&#x152;" horiz-adv-x="1664" 
d="M792 63q-52 -42 -112.5 -63.5t-128.5 -21.5q-162 0 -275.5 97t-164.5 267.5t-51 374.5q0 193 57.5 354t169.5 254t264 93q73 0 135.5 -24t113.5 -72v73h780v-233h-519v-325h486v-218h-486v-387h519v-232h-788v63zM569 1187q-122 0 -184.5 -130.5t-62.5 -359.5
q0 -231 61.5 -363.5t173.5 -132.5q111 0 176.5 130t65.5 366q0 239 -64.5 364.5t-165.5 125.5z" />
    <glyph glyph-name="oe" unicode="&#x153;" horiz-adv-x="1472" 
d="M771 827q127 148 297 148q176 0 272 -126t96 -348v-54h-545q4 -111 68.5 -172.5t141.5 -61.5q143 0 295 156v-277q-166 -114 -315 -114q-194 0 -310 140q-53 -70 -127 -105t-169 -35q-132 0 -229.5 69.5t-144.5 185t-47 249.5q0 124 42.5 236t142 184.5t244.5 72.5
q92 0 160.5 -33t127.5 -115zM891 614h294q-10 90 -43 135t-89 45q-57 0 -102 -48.5t-60 -131.5zM484 748q-83 0 -129.5 -74.5t-46.5 -203.5q0 -113 44 -191t121 -78q78 0 121.5 79t43.5 202q0 118 -44.5 192t-109.5 74z" />
    <glyph glyph-name="endash" unicode="&#x2013;" horiz-adv-x="1024" 
d="M-11 604h1045v-182h-1045v182z" />
    <glyph glyph-name="emdash" unicode="&#x2014;" horiz-adv-x="2048" 
d="M-11 604h2070v-182h-2070v182z" />
    <glyph glyph-name="quotedblleft" unicode="&#x201c;" horiz-adv-x="1024" 
d="M880 1395q-99 -221 -105 -361q120 -51 120 -170q0 -74 -45.5 -122t-111.5 -48q-71 0 -117 55t-46 136q0 191 200 510h105zM410 1395q-99 -221 -105 -361q121 -51 121 -170q0 -73 -45.5 -121.5t-111.5 -48.5q-71 0 -117 55t-46 135q0 192 199 511h105z" />
    <glyph glyph-name="quotedblright" unicode="&#x201d;" horiz-adv-x="1024" 
d="M145 716q99 221 105 361q-120 51 -120 170q0 74 45.5 122.5t111.5 48.5q75 0 119 -57t44 -135q0 -191 -200 -510h-105zM615 716q99 222 104 361q-120 51 -120 170q0 74 45.5 122.5t111.5 48.5q75 0 119 -57t44 -134q0 -192 -200 -511h-104z" />
    <glyph glyph-name="quoteleft" unicode="&#x2018;" horiz-adv-x="555" 
d="M410 1395q-99 -221 -105 -361q121 -51 121 -170q0 -73 -45.5 -121.5t-111.5 -48.5q-71 0 -117 55t-46 135q0 192 199 511h105z" />
    <glyph glyph-name="quoteright" unicode="&#x2019;" horiz-adv-x="555" 
d="M145 716q99 221 105 361q-120 51 -120 170q0 74 45.5 122.5t111.5 48.5q75 0 119 -57t44 -135q0 -191 -200 -510h-105z" />
    <glyph glyph-name="divide" unicode="&#xf7;" horiz-adv-x="1365" 
d="M566 1083q0 50 34 81.5t79 31.5q46 0 79 -32.5t33 -79.5q0 -46 -33 -79t-79 -33q-50 0 -81.5 34.5t-31.5 76.5zM130 754h1105v-176h-1105v176zM567 251q0 51 33.5 84t79.5 33q48 0 81 -33.5t33 -79.5t-33 -79.5t-81 -33.5q-49 0 -81 34t-32 75z" />
    <glyph glyph-name="lozenge" unicode="&#x25ca;" horiz-adv-x="1012" 
d="M548 1422l418 -713l-418 -709h-111l-391 709l391 713h111zM494 1325l-340 -616l340 -615l359 615z" />
    <glyph glyph-name="ydieresis" unicode="&#xff;" horiz-adv-x="811" 
d="M2 953h276l136 -654l127 654h259l-293 -1063q-51 -188 -120.5 -265.5t-194.5 -77.5q-72 0 -137 23v222q40 -29 88 -29q58 0 88.5 49.5t53.5 159.5zM235 1376q55 0 96 -39.5t41 -97.5q0 -57 -40 -97t-97 -40q-56 0 -96.5 40t-40.5 97t40.5 97t96.5 40zM598 1376
q56 0 97.5 -40t41.5 -99q0 -57 -41 -97.5t-98 -40.5t-97.5 40.5t-40.5 97.5q0 58 40.5 98.5t97.5 40.5z" />
    <glyph glyph-name="Ydieresis" unicode="&#x178;" horiz-adv-x="960" 
d="M13 1395h298l165 -483l167 483h305l-341 -760v-635h-263v635zM301 1776q55 0 96 -39.5t41 -97.5q0 -57 -40 -97t-97 -40q-56 0 -96.5 40t-40.5 97t40.5 97t96.5 40zM664 1776q56 0 97.5 -40t41.5 -99q0 -57 -41 -97.5t-98 -40.5t-97.5 40.5t-40.5 97.5q0 58 40.5 98.5
t97.5 40.5z" />
    <glyph glyph-name="fraction" unicode="&#x2215;" horiz-adv-x="213" 
d="M412 1395h171l-789 -1486h-162z" />
    <glyph glyph-name="currency" unicode="&#xa4;" horiz-adv-x="1408" 
d="M964 1048l130 131l121 -124l-129 -130q79 -124 79 -261q0 -134 -79 -257l129 -128l-121 -123l-130 128q-61 -40 -127 -60t-136 -20q-64 0 -128.5 20t-128.5 60l-128 -128l-124 123l130 128q-80 122 -80 259q0 138 80 259l-130 130l121 124l131 -131q64 40 128.5 60
t130.5 20q65 0 130.5 -20t130.5 -60zM415 673q0 -131 87 -213.5t202 -82.5q119 0 203.5 85t84.5 204t-84.5 203.5t-203.5 84.5q-126 0 -207.5 -87.5t-81.5 -193.5z" />
    <glyph glyph-name="guilsinglleft" unicode="&#x2039;" horiz-adv-x="384" 
d="M150 790h167l-105 -315l105 -316h-167l-107 316z" />
    <glyph glyph-name="guilsinglright" unicode="&#x203a;" horiz-adv-x="384" 
d="M233 159h-167l106 316l-106 315h167l107 -315z" />
    <glyph glyph-name="fi" unicode="&#xf001;" horiz-adv-x="981" 
d="M138 953v167q0 149 67 223.5t201 74.5q72 0 145 -23v-216q-33 21 -75 21t-63.5 -27.5t-21.5 -83.5v-136h485v-953h-253v762h-232v-762h-253v762h-126v191h126zM753 1418q60 0 103 -43t43 -103q0 -61 -43 -103.5t-103 -42.5t-103 42.5t-43 103.5q0 60 43 103t103 43z" />
    <glyph glyph-name="fl" unicode="&#xf002;" horiz-adv-x="981" 
d="M138 953v167q0 149 67 223.5t201 74.5q72 0 145 -23v-216q-34 21 -74 21q-43 0 -64.5 -27.5t-21.5 -83.5v-136h229v442h253v-1395h-253v762h-229v-762h-253v762h-126v191h126z" />
    <glyph glyph-name="daggerdbl" unicode="&#x2021;" horiz-adv-x="832" 
d="M291 1378h247v-324h222v-197h-222v-664h222v-193h-222v-331h-247v331h-219v193h219v664h-219v197h219v324z" />
    <glyph glyph-name="periodcentered" unicode="&#x2219;" horiz-adv-x="555" 
d="M271 841q73 0 117 -46.5t44 -108.5q0 -64 -45.5 -109.5t-108.5 -45.5q-65 0 -110 45.5t-45 109.5q0 65 46.5 110t101.5 45z" />
    <glyph glyph-name="quotesinglbase" unicode="&#x201a;" horiz-adv-x="555" 
d="M145 -424q99 221 105 361q-120 51 -120 170q0 74 45.5 122.5t111.5 48.5q75 0 119 -57t44 -135q0 -191 -200 -510h-105z" />
    <glyph glyph-name="quotedblbase" unicode="&#x201e;" horiz-adv-x="1024" 
d="M145 -439q99 221 105 360q-120 51 -120 171q0 74 45.5 122t111.5 48q75 0 119 -56.5t44 -134.5q0 -191 -200 -510h-105zM615 -439q99 221 104 360q-120 51 -120 171q0 73 45.5 121.5t111.5 48.5q71 0 117 -55t46 -136q0 -191 -200 -510h-104z" />
    <glyph glyph-name="perthousand" unicode="&#x2030;" horiz-adv-x="2261" 
d="M1201 1486l-672 -1582h-158l548 1294q-79 -49 -139 -49q-71 0 -143 40q23 -90 23 -161q0 -156 -82.5 -255t-218.5 -99q-146 0 -225 105.5t-79 263.5q0 149 76.5 256t229.5 107q81 0 196 -63q121 -65 203 -65q188 0 286 208h155zM362 1264q-60 0 -90 -54.5t-30 -163.5
q0 -106 31 -166t85 -60q55 0 86 60t31 165t-32.5 162t-80.5 57zM1888 719q155 0 237 -99.5t82 -263.5q0 -172 -86.5 -275t-225.5 -103q-145 0 -223 105t-78 264q0 175 86.5 273.5t207.5 98.5zM1901 573q-57 0 -88 -59.5t-31 -158.5q0 -105 31.5 -166t83.5 -61q55 0 87.5 62
t32.5 171q0 103 -33.5 157.5t-82.5 54.5zM1211 719q155 0 236.5 -99.5t81.5 -263.5t-83 -271t-229 -107q-144 0 -222.5 105t-78.5 264q0 174 87 273t208 99zM1224 573q-57 0 -88 -60t-31 -158q0 -103 31 -165.5t83 -62.5q56 0 88 63t32 170q0 104 -33.5 158.5t-81.5 54.5z
" />
    <glyph glyph-name="Acircumflex" unicode="&#xc2;" horiz-adv-x="1045" 
d="M383 1395h263l384 -1395h-295l-69 340h-304l-74 -340h-272zM510 1051l-102 -493h211zM375 1788h274l150 -296h-170l-118 164l-118 -162h-170z" />
    <glyph glyph-name="Ecircumflex" unicode="&#xca;" horiz-adv-x="981" 
d="M122 1395h781v-230h-520v-325h487v-218h-487v-391h520v-231h-781v1395zM367 1788h274l150 -296h-170l-118 164l-118 -162h-170z" />
    <glyph glyph-name="Aacute" unicode="&#xc1;" horiz-adv-x="1045" 
d="M383 1395h263l384 -1395h-295l-69 340h-304l-74 -340h-272zM510 1051l-102 -493h211zM531 1785h237l-219 -293h-170z" />
    <glyph glyph-name="Edieresis" unicode="&#xcb;" horiz-adv-x="981" 
d="M122 1395h781v-230h-520v-325h487v-218h-487v-391h520v-231h-781v1395zM320 1776q55 0 96 -39.5t41 -97.5q0 -57 -40 -97t-97 -40q-56 0 -96.5 40t-40.5 97t40.5 97t96.5 40zM683 1776q56 0 97.5 -40t41.5 -99q0 -57 -41 -97.5t-98 -40.5t-97.5 40.5t-40.5 97.5
q0 58 40.5 98.5t97.5 40.5z" />
    <glyph glyph-name="Egrave" unicode="&#xc8;" horiz-adv-x="981" 
d="M122 1395h781v-230h-520v-325h487v-218h-487v-391h520v-231h-781v1395zM237 1788h233l151 -294h-170z" />
    <glyph glyph-name="Iacute" unicode="&#xcd;" horiz-adv-x="512" 
d="M125 1395h262v-1395h-262v1395zM286 1785h237l-219 -293h-170z" />
    <glyph glyph-name="Icircumflex" unicode="&#xce;" horiz-adv-x="512" 
d="M125 1395h262v-1395h-262v1395zM120 1788h274l150 -296h-170l-118 164l-118 -162h-170z" />
    <glyph glyph-name="Idieresis" unicode="&#xcf;" horiz-adv-x="512" 
d="M125 1395h262v-1395h-262v1395zM73 1776q55 0 96 -39.5t41 -97.5q0 -57 -40 -97t-97 -40q-56 0 -96.5 40t-40.5 97t40.5 97t96.5 40zM436 1776q56 0 97.5 -40t41.5 -99q0 -57 -41 -97.5t-98 -40.5t-97.5 40.5t-40.5 97.5q0 58 40.5 98.5t97.5 40.5z" />
    <glyph glyph-name="Igrave" unicode="&#xcc;" horiz-adv-x="512" 
d="M125 1395h262v-1395h-262v1395zM0 1788h233l151 -294h-170z" />
    <glyph glyph-name="Oacute" unicode="&#xd3;" horiz-adv-x="1109" 
d="M533 1418q263 0 395.5 -198t132.5 -515q0 -207 -59 -376t-176.5 -260t-277.5 -91q-168 0 -282.5 96t-165.5 264t-51 371q0 321 136 515t348 194zM564 1192q-124 0 -188.5 -133.5t-64.5 -361.5q0 -233 65 -361.5t178 -128.5q112 0 176 133.5t64 361.5q0 234 -66 362
t-164 128zM584 1785h237l-219 -293h-170z" />
    <glyph glyph-name="Ocircumflex" unicode="&#xd4;" horiz-adv-x="1109" 
d="M533 1418q263 0 395.5 -198t132.5 -515q0 -207 -59 -376t-176.5 -260t-277.5 -91q-168 0 -282.5 96t-165.5 264t-51 371q0 321 136 515t348 194zM564 1192q-124 0 -188.5 -133.5t-64.5 -361.5q0 -233 65 -361.5t178 -128.5q112 0 176 133.5t64 361.5q0 234 -66 362
t-164 128zM428 1788h274l150 -296h-170l-118 164l-118 -162h-170z" />
    <glyph glyph-name="apple" unicode="&#xf000;" horiz-adv-x="1618" 
d="M1154 1596q1 -38 1 -60q0 -73 -25.5 -129t-79 -102t-95.5 -67.5t-127 -27.5q-2 23 -2 33q0 63 45 148.5t110 131.5t173 73zM1454 1063q-189 -124 -189 -334q0 -215 232 -331q-114 -248 -208 -338.5t-203 -90.5q-50 0 -128 30q-75 29 -118 29q-50 0 -126 -29
q-79 -30 -123 -30q-172 0 -323 253.5t-151 513.5q0 206 117.5 344t336.5 138q72 0 144 -31q74 -32 120 -32q41 0 122 34q73 30 151 30q212 0 346 -156z" />
    <glyph glyph-name="Ograve" unicode="&#xd2;" horiz-adv-x="1109" 
d="M533 1418q263 0 395.5 -198t132.5 -515q0 -207 -59 -376t-176.5 -260t-277.5 -91q-168 0 -282.5 96t-165.5 264t-51 371q0 321 136 515t348 194zM564 1192q-124 0 -188.5 -133.5t-64.5 -361.5q0 -233 65 -361.5t178 -128.5q112 0 176 133.5t64 361.5q0 234 -66 362
t-164 128zM298 1788h233l151 -294h-170z" />
    <glyph glyph-name="Uacute" unicode="&#xda;" horiz-adv-x="1067" 
d="M106 1395h262v-978q0 -109 40 -163.5t120 -54.5q76 0 122.5 62.5t46.5 185.5v948h264v-934q0 -219 -111.5 -351t-324.5 -132q-98 0 -192.5 36.5t-160.5 141.5t-66 261v978zM563 1785h237l-219 -293h-170z" />
    <glyph glyph-name="Ucircumflex" unicode="&#xdb;" horiz-adv-x="1067" 
d="M106 1395h262v-978q0 -109 40 -163.5t120 -54.5q76 0 122.5 62.5t46.5 185.5v948h264v-934q0 -219 -111.5 -351t-324.5 -132q-98 0 -192.5 36.5t-160.5 141.5t-66 261v978zM407 1788h274l150 -296h-170l-118 164l-118 -162h-170z" />
    <glyph glyph-name="Ugrave" unicode="&#xd9;" horiz-adv-x="1067" 
d="M106 1395h262v-978q0 -109 40 -163.5t120 -54.5q76 0 122.5 62.5t46.5 185.5v948h264v-934q0 -219 -111.5 -351t-324.5 -132q-98 0 -192.5 36.5t-160.5 141.5t-66 261v978zM277 1788h233l151 -294h-170z" />
    <glyph glyph-name="dotlessi" unicode="&#x131;" horiz-adv-x="469" 
d="M108 953h253v-953h-253v953z" />
    <glyph glyph-name="circumflex" unicode="&#x2c6;" 
d="M205 1388h274l150 -296h-170l-118 164l-118 -162h-170z" />
    <glyph glyph-name="tilde" unicode="&#x2dc;" 
d="M652 1363q-1 -131 -52 -197t-128 -66q-64 0 -152 68q-56 44 -85 44q-55 0 -56 -98h-149q1 127 51.5 193.5t128.5 66.5q64 0 148 -63q58 -44 88 -44q53 0 53 96h153z" />
    <glyph glyph-name="macron" unicode="&#x2c9;" 
d="M59 1154v167h564v-167h-564z" />
    <glyph glyph-name="breve" unicode="&#x2d8;" 
d="M22 1385h147q10 -71 59.5 -109t110.5 -38t110.5 37.5t61.5 109.5h150q-13 -137 -105 -216.5t-215 -79.5q-96 0 -169 45t-105 105.5t-45 145.5z" />
    <glyph glyph-name="dotaccent" unicode="&#x2d9;" 
d="M341 1376q55 0 96 -39.5t41 -97.5q0 -57 -40 -97t-97 -40q-56 0 -96.5 40t-40.5 97t40.5 97t96.5 40z" />
    <glyph glyph-name="ring" unicode="&#x2da;" 
d="M341 1410q71 0 122 -51t51 -121q0 -72 -51 -122.5t-122 -50.5t-121.5 50.5t-50.5 122.5q0 71 50.5 121.5t121.5 50.5zM340 1312q-30 0 -51.5 -21.5t-21.5 -51.5t21.5 -51.5t51.5 -21.5t51.5 21.5t21.5 51.5q0 29 -21 51t-52 22z" />
    <glyph glyph-name="cedilla" unicode="&#xb8;" 
d="M514 17v-134h34q73 0 131 -38.5t58 -112.5q0 -81 -67.5 -135.5t-175.5 -54.5q-74 0 -156 30v114q71 -43 136 -43q44 0 79 24t35 58q0 31 -26.5 46.5t-80.5 15.5h-82v230h115z" />
    <glyph glyph-name="hungarumlaut" unicode="&#x2dd;" 
d="M296 1385h237l-219 -293h-170zM608 1385h237l-219 -293h-170z" />
    <glyph glyph-name="ogonek" unicode="&#x2db;" 
d="M224 24h124q-39 -90 -39 -164q0 -67 41 -109.5t101 -42.5q75 0 170 46v-119q-123 -61 -222 -61t-157.5 62t-58.5 158q0 84 41 230z" />
    <glyph glyph-name="caron" unicode="&#x2c7;" 
d="M53 1387h170l117 -164l119 164h172l-154 -296h-274z" />
    <glyph glyph-name="Lslash" unicode="&#x141;" horiz-adv-x="896" 
d="M122 1395h258v-454l182 151v-259l-182 -150v-453h498v-230h-756v469l-98 -81v259l98 81v667z" />
    <glyph glyph-name="lslash" unicode="&#x142;" horiz-adv-x="469" 
d="M109 1395h253v-489l120 103v-208l-120 -103v-698h-253v489l-121 -103v208l121 103v698z" />
    <glyph glyph-name="Scaron" unicode="&#x160;" horiz-adv-x="917" 
d="M80 368q168 -155 302 -155q100 0 160.5 62t60.5 142q0 54 -35 105t-166 101q-193 75 -257 171q-65 96 -65 212q0 180 120.5 296t302.5 116q135 0 289 -88v-277q-141 132 -266 132q-75 0 -128 -48.5t-53 -118.5q0 -68 47 -111q47 -44 153 -83q107 -39 173.5 -82.5
t109.5 -125t43 -186.5q0 -193 -134.5 -322.5t-333.5 -129.5q-153 0 -323 99v291zM191 1787h170l117 -164l119 164h172l-154 -296h-274z" />
    <glyph glyph-name="scaron" unicode="&#x161;" horiz-adv-x="789" 
d="M57 308q139 -123 271 -123q56 0 95.5 31t39.5 80q0 40 -30 63q-31 23 -119 50q-260 80 -260 268q0 133 107 215.5t259 82.5q135 0 267 -74v-256q-133 121 -254 121q-53 0 -86.5 -24t-33.5 -62q0 -34 30.5 -55t111.5 -45q147 -42 216 -102q68 -61 68 -176
q0 -139 -111.5 -231.5t-277.5 -92.5q-145 0 -293 82v248zM115 1387h170l117 -164l119 164h172l-154 -296h-274z" />
    <glyph glyph-name="Zcaron" unicode="&#x17d;" horiz-adv-x="1024" 
d="M153 1395h767v-231l-524 -932h568v-232h-865v232l517 932h-463v231zM248 1787h170l117 -164l119 164h172l-154 -296h-274z" />
    <glyph glyph-name="zcaron" unicode="&#x17e;" horiz-adv-x="832" 
d="M84 953h676v-211l-400 -532h426v-210h-735v210l395 532h-362v211zM127 1387h170l117 -164l119 164h172l-154 -296h-274z" />
    <glyph glyph-name="brokenbar" unicode="&#xa6;" horiz-adv-x="1158" 
d="M486 1418h186v-729h-186v729zM486 262h186v-728h-186v728z" />
    <glyph glyph-name="Eth" unicode="&#xd0;" horiz-adv-x="1067" 
d="M121 1395h380q181 0 296.5 -93.5t163 -254t47.5 -344.5q0 -316 -139.5 -509.5t-406.5 -193.5h-341v585h-114v225h114v585zM381 1163v-353h179v-225h-179v-353h74q98 0 162.5 54.5t93.5 163.5t29 258q0 228 -64 341.5t-192 113.5h-103z" />
    <glyph glyph-name="eth" unicode="&#xf0;" horiz-adv-x="1003" 
d="M670 1332l148 55l47 -114l-129 -49q190 -343 190 -662q0 -153 -44.5 -289.5t-147 -215.5t-241.5 -79q-186 0 -301 137t-115 359q0 205 99.5 353t254.5 148q99 0 167 -75q-32 131 -97 236l-230 -87l-41 116l213 80l-96 150h280zM499 747q-85 0 -128 -73.5t-43 -202.5
q0 -118 44.5 -195t121.5 -77q80 0 121 78t41 196q0 122 -44 198t-113 76z" />
    <glyph glyph-name="Yacute" unicode="&#xdd;" horiz-adv-x="960" 
d="M13 1395h298l165 -483l167 483h305l-341 -760v-635h-263v635zM504 1785h237l-219 -293h-170z" />
    <glyph glyph-name="yacute" unicode="&#xfd;" horiz-adv-x="811" 
d="M2 953h276l136 -654l127 654h259l-293 -1063q-51 -188 -120.5 -265.5t-194.5 -77.5q-72 0 -137 23v222q40 -29 88 -29q58 0 88.5 49.5t53.5 159.5zM438 1385h237l-219 -293h-170z" />
    <glyph glyph-name="Thorn" unicode="&#xde;" horiz-adv-x="1024" 
d="M383 293v-293h-261v1395h261v-293h196q186 0 292.5 -109.5t106.5 -298.5q0 -191 -108 -296t-291 -105h-196zM383 870v-356h123q102 0 152.5 46t50.5 138q0 86 -48 129t-144 43h-134z" />
    <glyph glyph-name="thorn" unicode="&#xfe;" horiz-adv-x="960" 
d="M101 1395h250v-551q46 66 102 98.5t122 32.5q151 0 241.5 -143t90.5 -341q0 -219 -102 -366t-254 -147q-58 0 -108 22.5t-92 67.5v-512h-250v1839zM359 267q27 -36 58.5 -54t67.5 -18q76 0 122 76.5t46 206.5q0 110 -41.5 184t-105.5 74q-59 0 -103 -61t-44 -146v-262z
" />
    <glyph glyph-name="minus" unicode="&#x2212;" horiz-adv-x="1365" 
d="M130 758h1105v-185h-1105v185z" />
    <glyph glyph-name="multiply" unicode="&#xd7;" horiz-adv-x="1365" 
d="M166 1051l130 130l387 -387l386 387l131 -130l-386 -388l382 -383l-130 -129l-383 382l-384 -382l-130 129l384 383z" />
    <glyph glyph-name="onesuperior" unicode="&#xb9;" 
d="M346 1395h153v-794h-179v506h-123v132h36q50 0 81.5 33t31.5 81v42z" />
    <glyph glyph-name="twosuperior" unicode="&#xb2;" 
d="M157 1363q109 43 192 43q111 0 183 -56.5t72 -156.5q0 -59 -29.5 -116t-135.5 -142q-68 -54 -104.5 -94t-37.5 -90h312v-150h-491v110q0 106 37 166t145 154q67 58 88 83t21 55q0 39 -29.5 62.5t-71.5 23.5q-54 0 -151 -60v168z" />
    <glyph glyph-name="threesuperior" unicode="&#xb3;" 
d="M141 1365q98 41 181 41q101 0 176.5 -47.5t75.5 -146.5q0 -60 -34.5 -107t-104.5 -81q87 -14 130 -60.5t43 -126.5q0 -108 -77 -178t-201 -70q-85 0 -189 42v169q92 -57 157 -57q51 0 85.5 32.5t34.5 78.5q0 45 -34 72t-86 27h-82v133h61q46 0 76 23t30 62q0 37 -28 61
t-68 24q-62 0 -146 -59v168z" />
    <glyph glyph-name="onehalf" unicode="&#xbd;" horiz-adv-x="1579" 
d="M352 1395h153v-794h-179v506h-123v132h36q50 0 81.5 33t31.5 81v42zM1109 1395h171l-789 -1486h-165zM1053 685q107 45 191 45q110 0 182.5 -56.5t72.5 -157.5q0 -58 -30.5 -116.5t-134.5 -142.5q-67 -53 -104 -93.5t-38 -90.5h313v-150h-492v110q0 105 37 165.5
t145 153.5q68 58 88.5 83.5t20.5 55.5q0 36 -28.5 61t-72.5 25q-56 0 -150 -61v169z" />
    <glyph glyph-name="onequarter" unicode="&#xbc;" horiz-adv-x="1579" 
d="M352 1395h153v-794h-179v506h-123v132h36q50 0 81.5 33t31.5 81v42zM1109 1395h171l-789 -1486h-165zM1253 715h180v-435h95v-131h-95v-228h-173v228h-286v151zM1109 280h151v238z" />
    <glyph glyph-name="threequarters" unicode="&#xbe;" horiz-adv-x="1579" 
d="M148 1365q98 41 181 41q101 0 176.5 -47.5t75.5 -146.5q0 -60 -34.5 -107t-104.5 -81q87 -14 130 -60.5t43 -126.5q0 -108 -77 -178t-201 -70q-85 0 -189 42v169q92 -57 157 -57q51 0 85.5 32.5t34.5 78.5q0 45 -34 72t-86 27h-82v133h61q46 0 76 23t30 62q0 37 -28 61
t-68 24q-62 0 -146 -59v168zM1109 1395h171l-789 -1486h-162zM1253 715h181v-435h95v-131h-95v-228h-173v228h-287v151zM1109 280h152v238z" />
    <glyph glyph-name="franc" unicode="&#x20a3;" horiz-adv-x="1133" 
d="M618 809v144h228l23 -104q34 63 78.5 94.5t98.5 31.5q48 0 91 -22v-234q-53 21 -93 21q-76 0 -125.5 -65t-49.5 -159v-516h-251v587h-236v-587h-260v1395h761v-232h-501v-354h236z" />
    <glyph glyph-name="Gbreve" unicode="&#x11e;" horiz-adv-x="981" 
d="M691 113q-45 -67 -97.5 -101t-111.5 -34q-180 0 -306.5 207.5t-126.5 498.5q0 347 152.5 540.5t383.5 193.5q146 0 279 -80v-261q-129 110 -238 110q-142 0 -228.5 -127.5t-86.5 -376.5q0 -193 62.5 -327.5t146.5 -134.5q49 0 85.5 48.5t36.5 115.5v145h-167v224h419
v-754h-128zM239 1785h147q10 -71 59.5 -109t110.5 -38t110.5 37.5t61.5 109.5h150q-13 -137 -105 -216.5t-215 -79.5q-96 0 -169 45t-105 105.5t-45 145.5z" />
    <glyph glyph-name="gbreve" unicode="&#x11f;" horiz-adv-x="960" 
d="M608 126q-46 -63 -100 -94.5t-115 -31.5q-134 0 -234.5 138.5t-100.5 341.5q0 197 100 346t256 149q51 0 99.5 -25t94.5 -75l66 78h188v-872q0 -179 -42 -286.5t-153.5 -184t-238.5 -76.5q-139 0 -303 97v286q150 -134 276 -134q93 0 150 62.5t57 164.5v116zM608 684
q-29 36 -60.5 54t-65.5 18q-74 0 -122.5 -78t-48.5 -191q0 -102 41.5 -175.5t109.5 -73.5q64 0 105 68t41 158v220zM197 1385h147q10 -71 59.5 -109t110.5 -38t110.5 37.5t61.5 109.5h150q-13 -137 -105 -216.5t-215 -79.5q-96 0 -169 45t-105 105.5t-45 145.5z" />
    <glyph glyph-name="Idot" unicode="&#x130;" horiz-adv-x="512" 
d="M125 1395h262v-1395h-262v1395zM256 1776q55 0 96 -39.5t41 -97.5q0 -57 -40 -97t-97 -40q-56 0 -96.5 40t-40.5 97t40.5 97t96.5 40z" />
    <glyph glyph-name="Scedilla" unicode="&#x15e;" horiz-adv-x="917" 
d="M472 -18v-99h34q73 0 130.5 -38.5t57.5 -112.5q0 -82 -67.5 -136t-174.5 -54q-74 0 -157 30v114q72 -43 136 -43q44 0 79 23.5t35 58.5q0 31 -26.5 46.5t-80.5 15.5h-81v193q-128 11 -277 97v291q168 -155 302 -155q100 0 160.5 62t60.5 142q0 54 -35 105t-166 101
q-193 75 -257 171q-65 96 -65 212q0 180 120.5 296t302.5 116q135 0 289 -88v-277q-141 132 -266 132q-75 0 -128 -48.5t-53 -118.5q0 -68 47 -111q47 -44 153 -83q107 -39 173.5 -82.5t109.5 -125t43 -186.5q0 -171 -110.5 -297t-288.5 -151z" />
    <glyph glyph-name="scedilla" unicode="&#x15f;" horiz-adv-x="789" 
d="M420 -17v-100h34q73 0 130.5 -38.5t57.5 -112.5q0 -82 -67.5 -136t-174.5 -54q-74 0 -156 30v114q71 -43 135 -43q44 0 79 23.5t35 58.5q0 31 -26.5 46.5t-80.5 15.5h-81v193q-123 11 -248 80v248q139 -123 271 -123q56 0 95.5 31t39.5 80q0 40 -30 63q-31 23 -119 50
q-260 80 -260 268q0 133 107 215.5t259 82.5q135 0 267 -74v-256q-133 121 -254 121q-49 0 -84.5 -22.5t-35.5 -63.5q0 -34 30.5 -55t111.5 -45q147 -42 216 -102q68 -61 68 -176q0 -124 -89 -211.5t-230 -107.5z" />
    <glyph glyph-name="Cacute" unicode="&#x106;" horiz-adv-x="832" 
d="M784 46q-123 -68 -235 -68q-238 0 -365 201t-127 511q0 336 139.5 532t358.5 196q109 0 229 -66v-267q-94 100 -191 100q-126 0 -198.5 -128t-72.5 -376q0 -126 32 -238.5t96.5 -171.5t137.5 -59q97 0 196 98v-264zM549 1785h237l-219 -293h-170z" />
    <glyph glyph-name="cacute" unicode="&#x107;" horiz-adv-x="725" 
d="M678 40q-113 -62 -212 -62q-169 0 -289 141.5t-120 358.5q0 215 122.5 356t303.5 141q101 0 195 -55v-237q-84 71 -157 71q-89 0 -149.5 -78.5t-60.5 -197.5q0 -114 57 -196.5t146 -82.5q80 0 164 76v-235zM468 1385h237l-219 -293h-170z" />
    <glyph glyph-name="Ccaron" unicode="&#x10c;" horiz-adv-x="832" 
d="M784 46q-123 -68 -235 -68q-238 0 -365 201t-127 511q0 336 139.5 532t358.5 196q109 0 229 -66v-267q-94 100 -191 100q-126 0 -198.5 -128t-72.5 -376q0 -126 32 -238.5t96.5 -171.5t137.5 -59q97 0 196 98v-264zM239 1787h170l117 -164l119 164h172l-154 -296h-274z
" />
    <glyph glyph-name="ccaron" unicode="&#x10d;" horiz-adv-x="725" 
d="M678 40q-113 -62 -212 -62q-169 0 -289 141.5t-120 358.5q0 215 122.5 356t303.5 141q101 0 195 -55v-237q-84 71 -157 71q-89 0 -149.5 -78.5t-60.5 -197.5q0 -114 57 -196.5t146 -82.5q80 0 164 76v-235zM159 1387h170l117 -164l119 164h172l-154 -296h-274z" />
    <glyph glyph-name="dmacron" unicode="&#x111;" horiz-adv-x="960" 
d="M858 1259h91v-147h-91v-1112h-234l-20 101q-45 -61 -98.5 -92t-115.5 -31q-150 0 -242 146t-92 346q0 219 103 362t253 143q47 0 95 -21.5t97 -64.5v223h-274v147h274v136h254v-136zM604 691q-29 32 -59.5 47.5t-62.5 15.5q-76 0 -124.5 -81.5t-48.5 -203.5
q0 -107 41 -180t108 -73q61 0 103.5 60t42.5 149v266z" />
    <glyph glyph-name="overscore" unicode="&#xaf;" horiz-adv-x="1024" 
d="M-12 1652h1048v-103h-1048v103z" />
    <glyph glyph-name="middot" unicode="&#xb7;" 
d="M694 835q57 0 97 -40.5t40 -96.5q0 -57 -40 -97.5t-97 -40.5q-56 0 -96.5 40.5t-40.5 97.5t40.5 97t96.5 40z" />
    <glyph glyph-name="foursuperior" unicode="&#xf003;" 
d="M357 1395h180v-434h95v-132h-95v-228h-172v228h-287v151zM213 961h152v238z" />
    <glyph glyph-name="commaaccent" unicode="&#xf004;" 
d="M267 -511q58 130 62 213q-71 30 -71 101q0 43 26.5 71.5t66.5 28.5q41 0 68.5 -32.5t27.5 -80.5q0 -111 -118 -301h-62z" />
    </font>
</defs>
</svg>
